{
.appVersion = "1342";
DisplayStrings = (
"/.notdef"
);
copyright = "Copyright 2020 The Carattere Project Authors (https://github.com/googlefonts/carattere)";
customParameters = (
{
name = licenseURL;
value = "https://scripts.sil.org/OFL";
},
{
name = license;
value = "This Font Software is licensed under the SIL Open Font License, Version 1.1. This license is available with a FAQ at: https://scripts.sil.org/OFL";
},
{
name = vendorID;
value = GOOG;
},
{
name = fsType;
value = (
);
},
{
name = glyphOrder;
value = (
.notdef,
CR,
NULL,
space,
nbspace
);
},
{
name = "Use Typo Metrics";
value = 1;
},
{
name = Axes;
value = (
{
Name = Weight;
Tag = wght;
}
);
}
);
date = "2013-05-01 04:30:32 +0000";
designer = "Robert E. Leuschke";
designerURL = www.typesetit.com;
disablesNiceNames = 1;
familyName = Carattere;
featurePrefixes = (
{
automatic = 1;
code = "languagesystem DFLT dflt;\012\012languagesystem latn dflt;\012languagesystem latn AZE;\012languagesystem latn CRT;\012languagesystem latn KAZ;\012languagesystem latn TAT;\012languagesystem latn TRK;\012languagesystem latn ROM;\012languagesystem latn MOL;\012languagesystem latn CAT;\012";
name = Languagesystems;
}
);
features = (
{
automatic = 1;
code = "feature sups;\012feature frac;\012feature ordn;\012feature locl;\012";
name = aalt;
},
{
automatic = 1;

glyphs = (
{
glyphname = .notdef;
lastChange = "2021-05-14 09:13:03 +0000";
layers = (
{
layerId = "3191725B-F824-48C7-90A0-BAE99CBF9356";
paths = (
{
closed = 1;
nodes = (
"50 0 LINE",
"462 0 LINE",
"471 10 LINE",
"471 611 LINE",
"462 621 LINE",
"50 621 LINE",
"40 611 LINE",
"40 10 LINE"
);
},
{
closed = 1;
nodes = (
"57 604 LINE",
"456 604 LINE",
"456 17 LINE",
"57 17 LINE"
);
},
{
closed = 1;
nodes = (
"90 48 LINE",
"421 48 LINE",
"421 568 LINE",
"90 568 LINE"
);
},
{
closed = 1;
nodes = (
"143 148 LINE",
"231 312 LINE",
"143 472 LINE",
"161 507 LINE",
"249 345 LINE",
"339 507 LINE",
"360 472 LINE",
"269 309 LINE",
"360 148 LINE",
"339 114 LINE",
"249 274 LINE",
"161 114 LINE"
);
}
);
width = 511;
}
);
note = .notdef;
},
{
glyphname = A;
lastChange = "2021-05-11 19:30:45 +0000";
layers = (
{
hints = (
{
horizontal = 1;
place = "{-164, 26}";
type = Stem;
},
{
horizontal = 1;
place = "{-130, 98}";
type = Stem;
},
{
horizontal = 1;
place = "{478, 70}";
type = Stem;
},
{
horizontal = 1;
place = "{700, -20}";
target = down;
type = TopGhost;
},
{
place = "{26, 54}";
type = Stem;
},
{
place = "{256, 48}";
type = Stem;
}
);
layerId = "3191725B-F824-48C7-90A0-BAE99CBF9356";
paths = (
{
closed = 1;
nodes = (
"734 678 OFFCURVE",
"735 681 OFFCURVE",
"735 684 CURVE SMOOTH",
"735 693 OFFCURVE",
"726 698 OFFCURVE",
"708 699 CURVE SMOOTH",
"649 702 OFFCURVE",
"572 671 OFFCURVE",
"479 606 CURVE SMOOTH",
"411 559 OFFCURVE",
"346 503 OFFCURVE",
"283 438 CURVE",
"226 510 OFFCURVE",
"172 546 OFFCURVE",
"120 546 CURVE SMOOTH",
"92 546 OFFCURVE",
"69 534 OFFCURVE",
"51 511 CURVE SMOOTH",
"34 488 OFFCURVE",
"25 458 OFFCURVE",
"25 419 CURVE SMOOTH",
"25 353 OFFCURVE",
"49 283 OFFCURVE",
"98 208 CURVE",
"69 165 OFFCURVE",
"41 123 OFFCURVE",
"12 81 CURVE SMOOTH",
"-32 17 OFFCURVE",
"-73 -31 OFFCURVE",
"-109 -66 CURVE SMOOTH",
"-157 -113 OFFCURVE",
"-199 -137 OFFCURVE",
"-235 -137 CURVE SMOOTH",
"-258 -137 OFFCURVE",
"-272 -130 OFFCURVE",
"-276 -115 CURVE",
"-267 -124 OFFCURVE",
"-256 -129 OFFCURVE",
"-243 -129 CURVE SMOOTH",
"-230 -129 OFFCURVE",
"-218 -124 OFFCURVE",
"-207 -114 CURVE SMOOTH",
"-197 -105 OFFCURVE",
"-191 -93 OFFCURVE",
"-189 -80 CURVE SMOOTH",
"-187 -67 OFFCURVE",
"-191 -55 OFFCURVE",
"-200 -45 CURVE SMOOTH",
"-209 -36 OFFCURVE",
"-220 -31 OFFCURVE",
"-233 -31 CURVE SMOOTH",
"-251 -31 OFFCURVE",
"-266 -39 OFFCURVE",
"-279 -54 CURVE SMOOTH",
"-291 -69 OFFCURVE",
"-297 -85 OFFCURVE",
"-297 -104 CURVE SMOOTH",
"-297 -125 OFFCURVE",
"-288 -141 OFFCURVE",
"-270 -151 CURVE SMOOTH",
"-257 -159 OFFCURVE",
"-240 -163 OFFCURVE",
"-221 -163 CURVE SMOOTH",
"-208 -163 OFFCURVE",
"-195 -161 OFFCURVE",
"-182 -157 CURVE SMOOTH",
"-143 -147 OFFCURVE",
"-96 -108 OFFCURVE",
"-41 -40 CURVE SMOOTH",
"-26 -21 OFFCURVE",
"26 52 OFFCURVE",
"117 180 CURVE",
"153 131 OFFCURVE",
"195 83 OFFCURVE",
"244 38 CURVE SMOOTH",
"288 -3 OFFCURVE",
"328 -35 OFFCURVE",
"365 -57 CURVE SMOOTH",
"375 -63 OFFCURVE",
"380 -61 OFFCURVE",
"380 -52 CURVE SMOOTH",
"380 -49 OFFCURVE",
"378 -45 OFFCURVE",
"373 -42 CURVE SMOOTH",
"276 25 OFFCURVE",
"196 107 OFFCURVE",
"135 205 CURVE",
"188 279 OFFCURVE",
"235 339 OFFCURVE",
"278 385 CURVE",
"339 308 OFFCURVE",
"379 214 OFFCURVE",
"397 105 CURVE",
"400 64 OFFCURVE",
"414 33 OFFCURVE",
"440 10 CURVE SMOOTH",
"463 -10 OFFCURVE",
"489 -18 OFFCURVE",
"516 -15 CURVE SMOOTH",
"549 -11 OFFCURVE",
"583 17 OFFCURVE",
"616 70 CURVE SMOOTH",
"624 82 OFFCURVE",
"645 126 OFFCURVE",
"683 201 CURVE SMOOTH",
"686 207 OFFCURVE",
"688 212 OFFCURVE",
"688 217 CURVE SMOOTH",
"688 222 OFFCURVE",
"686 225 OFFCURVE",
"683 224 CURVE SMOOTH",
"679 223 OFFCURVE",
"675 219 OFFCURVE",
"672 212 CURVE SMOOTH",
"609 81 OFFCURVE",
"560 16 OFFCURVE",
"526 16 CURVE SMOOTH",
"492 16 OFFCURVE",
"475 37 OFFCURVE",
"475 79 CURVE SMOOTH",
"475 92 OFFCURVE",
"477 108 OFFCURVE",
"480 127 CURVE SMOOTH",
"498 222 OFFCURVE",
"582 405 OFFCURVE",
"732 674 CURVE SMOOTH"
);
},
{
closed = 1;
nodes = (
"565 484 OFFCURVE",
"507 390 OFFCURVE",
"450 289 CURVE SMOOTH",
"427 249 OFFCURVE",
"412 211 OFFCURVE",
"404 176 CURVE",
"382 266 OFFCURVE",
"348 344 OFFCURVE",
"303 411 CURVE",
"344 452 OFFCURVE",
"392 493 OFFCURVE",
"449 533 CURVE SMOOTH",
"521 583 OFFCURVE",
"576 607 OFFCURVE",
"614 607 CURVE SMOOTH",
"627 607 OFFCURVE",
"633 603 OFFCURVE",
"633 594 CURVE SMOOTH",
"633 587 OFFCURVE",
"630 579 OFFCURVE",
"623 569 CURVE SMOOTH"
);
},
{
closed = 1;
nodes = (
"215 365 OFFCURVE",
"169 306 OFFCURVE",
"117 235 CURVE",
"92 284 OFFCURVE",
"79 332 OFFCURVE",
"79 378 CURVE SMOOTH",
"79 407 OFFCURVE",
"85 431 OFFCURVE",
"97 450 CURVE SMOOTH",
"108 468 OFFCURVE",
"124 477 OFFCURVE",
"144 477 CURVE SMOOTH",
"177 477 OFFCURVE",
"214 455 OFFCURVE",
"256 410 CURVE"
);
}
);
width = 606;
}
);
note = A;
unicode = 0041;
},
{
glyphname = Aacute;
lastChange = "2021-05-11 19:30:45 +0000";
layers = (
{
hints = (
{
horizontal = 1;
place = "{-164, 26}";
type = Stem;
},
{
horizontal = 1;
place = "{-130, 98}";
type = Stem;
},
{
horizontal = 1;
place = "{478, 70}";
type = Stem;
},
{
horizontal = 1;
place = "{700, -20}";
target = down;
type = TopGhost;
},
{
place = "{26, 54}";
type = Stem;
},
{
place = "{256, 48}";
type = Stem;
}
);
layerId = "3191725B-F824-48C7-90A0-BAE99CBF9356";
paths = (
{
closed = 1;
nodes = (
"734 678 OFFCURVE",
"735 681 OFFCURVE",
"735 684 CURVE SMOOTH",
"735 693 OFFCURVE",
"726 698 OFFCURVE",
"708 699 CURVE SMOOTH",
"649 702 OFFCURVE",
"572 671 OFFCURVE",
"479 606 CURVE SMOOTH",
"411 559 OFFCURVE",
"346 503 OFFCURVE",
"283 438 CURVE",
"226 510 OFFCURVE",
"172 546 OFFCURVE",
"120 546 CURVE SMOOTH",
"92 546 OFFCURVE",
"69 534 OFFCURVE",
"51 511 CURVE SMOOTH",
"34 488 OFFCURVE",
"25 458 OFFCURVE",
"25 419 CURVE SMOOTH",
"25 353 OFFCURVE",
"49 283 OFFCURVE",
"98 208 CURVE",
"69 165 OFFCURVE",
"41 123 OFFCURVE",
"12 81 CURVE SMOOTH",
"-32 17 OFFCURVE",
"-73 -31 OFFCURVE",
"-109 -66 CURVE SMOOTH",
"-157 -113 OFFCURVE",
"-199 -137 OFFCURVE",
"-235 -137 CURVE SMOOTH",
"-258 -137 OFFCURVE",
"-272 -130 OFFCURVE",
"-276 -115 CURVE",
"-267 -124 OFFCURVE",
"-256 -129 OFFCURVE",
"-243 -129 CURVE SMOOTH",
"-230 -129 OFFCURVE",
"-218 -124 OFFCURVE",
"-207 -114 CURVE SMOOTH",
"-197 -105 OFFCURVE",
"-191 -93 OFFCURVE",
"-189 -80 CURVE SMOOTH",
"-187 -67 OFFCURVE",
"-191 -55 OFFCURVE",
"-200 -45 CURVE SMOOTH",
"-209 -36 OFFCURVE",
"-220 -31 OFFCURVE",
"-233 -31 CURVE SMOOTH",
"-251 -31 OFFCURVE",
"-266 -39 OFFCURVE",
"-279 -54 CURVE SMOOTH",
"-291 -69 OFFCURVE",
"-297 -85 OFFCURVE",
"-297 -104 CURVE SMOOTH",
"-297 -125 OFFCURVE",
"-288 -141 OFFCURVE",
"-270 -151 CURVE SMOOTH",
"-257 -159 OFFCURVE",
"-240 -163 OFFCURVE",
"-221 -163 CURVE SMOOTH",
"-208 -163 OFFCURVE",
"-195 -161 OFFCURVE",
"-182 -157 CURVE SMOOTH",
"-143 -147 OFFCURVE",
"-96 -108 OFFCURVE",
"-41 -40 CURVE SMOOTH",
"-26 -21 OFFCURVE",
"26 52 OFFCURVE",
"117 180 CURVE",
"153 131 OFFCURVE",
"195 83 OFFCURVE",
"244 38 CURVE SMOOTH",
"288 -3 OFFCURVE",
"328 -35 OFFCURVE",
"365 -57 CURVE SMOOTH",
"375 -63 OFFCURVE",
"380 -61 OFFCURVE",
"380 -52 CURVE SMOOTH",
"380 -49 OFFCURVE",
"378 -45 OFFCURVE",
"373 -42 CURVE SMOOTH",
"276 25 OFFCURVE",
"196 107 OFFCURVE",
"135 205 CURVE",
"188 279 OFFCURVE",
"235 339 OFFCURVE",
"278 385 CURVE",
"339 308 OFFCURVE",
"379 214 OFFCURVE",
"397 105 CURVE",
"400 64 OFFCURVE",
"414 33 OFFCURVE",
"440 10 CURVE SMOOTH",
"463 -10 OFFCURVE",
"489 -18 OFFCURVE",
"516 -15 CURVE SMOOTH",
"549 -11 OFFCURVE",
"583 17 OFFCURVE",
"616 70 CURVE SMOOTH",
"624 82 OFFCURVE",
"645 126 OFFCURVE",
"683 201 CURVE SMOOTH",
"686 207 OFFCURVE",
"688 212 OFFCURVE",
"688 217 CURVE SMOOTH",
"688 222 OFFCURVE",
"686 225 OFFCURVE",
"683 224 CURVE SMOOTH",
"679 223 OFFCURVE",
"675 219 OFFCURVE",
"672 212 CURVE SMOOTH",
"609 81 OFFCURVE",
"560 16 OFFCURVE",
"526 16 CURVE SMOOTH",
"492 16 OFFCURVE",
"475 37 OFFCURVE",
"475 79 CURVE SMOOTH",
"475 92 OFFCURVE",
"477 108 OFFCURVE",
"480 127 CURVE SMOOTH",
"498 222 OFFCURVE",
"582 405 OFFCURVE",
"732 674 CURVE SMOOTH"
);
},
{
closed = 1;
nodes = (
"565 484 OFFCURVE",
"507 390 OFFCURVE",
"450 289 CURVE SMOOTH",
"427 249 OFFCURVE",
"412 211 OFFCURVE",
"404 176 CURVE",
"382 266 OFFCURVE",
"348 344 OFFCURVE",
"303 411 CURVE",
"344 452 OFFCURVE",
"392 493 OFFCURVE",
"449 533 CURVE SMOOTH",
"521 583 OFFCURVE",
"576 607 OFFCURVE",
"614 607 CURVE SMOOTH",
"627 607 OFFCURVE",
"633 603 OFFCURVE",
"633 594 CURVE SMOOTH",
"633 587 OFFCURVE",
"630 579 OFFCURVE",
"623 569 CURVE SMOOTH"
);
},
{
closed = 1;
nodes = (
"215 365 OFFCURVE",
"169 306 OFFCURVE",
"117 235 CURVE",
"92 284 OFFCURVE",
"79 332 OFFCURVE",
"79 378 CURVE SMOOTH",
"79 407 OFFCURVE",
"85 431 OFFCURVE",
"97 450 CURVE SMOOTH",
"108 468 OFFCURVE",
"124 477 OFFCURVE",
"144 477 CURVE SMOOTH",
"177 477 OFFCURVE",
"214 455 OFFCURVE",
"256 410 CURVE"
);
},
{
closed = 1;
nodes = (
"867 839 OFFCURVE",
"864 848 OFFCURVE",
"852 854 CURVE SMOOTH",
"847 857 OFFCURVE",
"841 858 OFFCURVE",
"835 858 CURVE SMOOTH",
"822 858 OFFCURVE",
"809 853 OFFCURVE",
"794 842 CURVE SMOOTH",
"747 807 OFFCURVE",
"706 777 OFFCURVE",
"671 751 CURVE",
"668 745 OFFCURVE",
"669 741 OFFCURVE",
"674 738 CURVE SMOOTH",
"678 736 OFFCURVE",
"709 749 OFFCURVE",
"768 776 CURVE SMOOTH",
"826 803 OFFCURVE",
"857 820 OFFCURVE",
"861 827 CURVE SMOOTH"
);
}
);
width = 606;
}
);
note = Aacute;
unicode = 00C1;
},
{
glyphname = Acircumflex;
lastChange = "2021-05-11 19:30:45 +0000";
layers = (
{
hints = (
{
horizontal = 1;
place = "{-164, 26}";
type = Stem;
},
{
horizontal = 1;
place = "{-130, 98}";
type = Stem;
},
{
horizontal = 1;
place = "{478, 70}";
type = Stem;
},
{
horizontal = 1;
place = "{700, -20}";
target = down;
type = TopGhost;
},
{
place = "{26, 54}";
type = Stem;
},
{
place = "{256, 48}";
type = Stem;
},
{
horizontal = 1;
place = "{732, 20}";
type = Stem;
}
);
layerId = "3191725B-F824-48C7-90A0-BAE99CBF9356";
paths = (
{
closed = 1;
nodes = (
"734 678 OFFCURVE",
"735 681 OFFCURVE",
"735 684 CURVE SMOOTH",
"735 693 OFFCURVE",
"726 698 OFFCURVE",
"708 699 CURVE SMOOTH",
"649 702 OFFCURVE",
"572 671 OFFCURVE",
"479 606 CURVE SMOOTH",
"411 559 OFFCURVE",
"346 503 OFFCURVE",
"283 438 CURVE",
"226 510 OFFCURVE",
"172 546 OFFCURVE",
"120 546 CURVE SMOOTH",
"92 546 OFFCURVE",
"69 534 OFFCURVE",
"51 511 CURVE SMOOTH",
"34 488 OFFCURVE",
"25 458 OFFCURVE",
"25 419 CURVE SMOOTH",
"25 353 OFFCURVE",
"49 283 OFFCURVE",
"98 208 CURVE",
"69 165 OFFCURVE",
"41 123 OFFCURVE",
"12 81 CURVE SMOOTH",
"-32 17 OFFCURVE",
"-73 -31 OFFCURVE",
"-109 -66 CURVE SMOOTH",
"-157 -113 OFFCURVE",
"-199 -137 OFFCURVE",
"-235 -137 CURVE SMOOTH",
"-258 -137 OFFCURVE",
"-272 -130 OFFCURVE",
"-276 -115 CURVE",
"-267 -124 OFFCURVE",
"-256 -129 OFFCURVE",
"-243 -129 CURVE SMOOTH",
"-230 -129 OFFCURVE",
"-218 -124 OFFCURVE",
"-207 -114 CURVE SMOOTH",
"-197 -105 OFFCURVE",
"-191 -93 OFFCURVE",
"-189 -80 CURVE SMOOTH",
"-187 -67 OFFCURVE",
"-191 -55 OFFCURVE",
"-200 -45 CURVE SMOOTH",
"-209 -36 OFFCURVE",
"-220 -31 OFFCURVE",
"-233 -31 CURVE SMOOTH",
"-251 -31 OFFCURVE",
"-266 -39 OFFCURVE",
"-279 -54 CURVE SMOOTH",
"-291 -69 OFFCURVE",
"-297 -85 OFFCURVE",
"-297 -104 CURVE SMOOTH",
"-297 -125 OFFCURVE",
"-288 -141 OFFCURVE",
"-270 -151 CURVE SMOOTH",
"-257 -159 OFFCURVE",
"-240 -163 OFFCURVE",
"-221 -163 CURVE SMOOTH",
"-208 -163 OFFCURVE",
"-195 -161 OFFCURVE",
"-182 -157 CURVE SMOOTH",
"-143 -147 OFFCURVE",
"-96 -108 OFFCURVE",
"-41 -40 CURVE SMOOTH",
"-26 -21 OFFCURVE",
"26 52 OFFCURVE",
"117 180 CURVE",
"153 131 OFFCURVE",
"195 83 OFFCURVE",
"244 38 CURVE SMOOTH",
"288 -3 OFFCURVE",
"328 -35 OFFCURVE",
"365 -57 CURVE SMOOTH",
"375 -63 OFFCURVE",
"380 -61 OFFCURVE",
"380 -52 CURVE SMOOTH",
"380 -49 OFFCURVE",
"378 -45 OFFCURVE",
"373 -42 CURVE SMOOTH",
"276 25 OFFCURVE",
"196 107 OFFCURVE",
"135 205 CURVE",
"188 279 OFFCURVE",
"235 339 OFFCURVE",
"278 385 CURVE",
"339 308 OFFCURVE",
"379 214 OFFCURVE",
"397 105 CURVE",
"400 64 OFFCURVE",
"414 33 OFFCURVE",
"440 10 CURVE SMOOTH",
"463 -10 OFFCURVE",
"489 -18 OFFCURVE",
"516 -15 CURVE SMOOTH",
"549 -11 OFFCURVE",
"583 17 OFFCURVE",
"616 70 CURVE SMOOTH",
"624 82 OFFCURVE",
"645 126 OFFCURVE",
"683 201 CURVE SMOOTH",
"686 207 OFFCURVE",
"688 212 OFFCURVE",
"688 217 CURVE SMOOTH",
"688 222 OFFCURVE",
"686 225 OFFCURVE",
"683 224 CURVE SMOOTH",
"679 223 OFFCURVE",
"675 219 OFFCURVE",
"672 212 CURVE SMOOTH",
"609 81 OFFCURVE",
"560 16 OFFCURVE",
"526 16 CURVE SMOOTH",
"492 16 OFFCURVE",
"475 37 OFFCURVE",
"475 79 CURVE SMOOTH",
"475 92 OFFCURVE",
"477 108 OFFCURVE",
"480 127 CURVE SMOOTH",
"498 222 OFFCURVE",
"582 405 OFFCURVE",
"732 674 CURVE SMOOTH"
);
},
{
closed = 1;
nodes = (
"565 484 OFFCURVE",
"507 390 OFFCURVE",
"450 289 CURVE SMOOTH",
"427 249 OFFCURVE",
"412 211 OFFCURVE",
"404 176 CURVE",
"382 266 OFFCURVE",
"348 344 OFFCURVE",
"303 411 CURVE",
"344 452 OFFCURVE",
"392 493 OFFCURVE",
"449 533 CURVE SMOOTH",
"521 583 OFFCURVE",
"576 607 OFFCURVE",
"614 607 CURVE SMOOTH",
"627 607 OFFCURVE",
"633 603 OFFCURVE",
"633 594 CURVE SMOOTH",
"633 587 OFFCURVE",
"630 579 OFFCURVE",
"623 569 CURVE SMOOTH"
);
},
{
closed = 1;
nodes = (
"215 365 OFFCURVE",
"169 306 OFFCURVE",
"117 235 CURVE",
"92 284 OFFCURVE",
"79 332 OFFCURVE",
"79 378 CURVE SMOOTH",
"79 407 OFFCURVE",
"85 431 OFFCURVE",
"97 450 CURVE SMOOTH",
"108 468 OFFCURVE",
"124 477 OFFCURVE",
"144 477 CURVE SMOOTH",
"177 477 OFFCURVE",
"214 455 OFFCURVE",
"256 410 CURVE"
);
},
{
closed = 1;
nodes = (
"799 868 LINE SMOOTH",
"798 872 OFFCURVE",
"782 872 OFFCURVE",
"752 868 CURVE",
"569 738 LINE SMOOTH",
"568 737 OFFCURVE",
"568 736 OFFCURVE",
"568 735 CURVE SMOOTH",
"568 732 OFFCURVE",
"572 732 OFFCURVE",
"580 732 CURVE SMOOTH",
"589 732 OFFCURVE",
"595 734 OFFCURVE",
"600 738 CURVE",
"762 825 LINE",
"818 738 LINE SMOOTH",
"820 735 OFFCURVE",
"823 733 OFFCURVE",
"828 732 CURVE SMOOTH",
"833 731 OFFCURVE",
"837 730 OFFCURVE",
"840 731 CURVE SMOOTH",
"843 732 OFFCURVE",
"844 735 OFFCURVE",
"843 738 CURVE SMOOTH"
);
}
);
width = 606;
}
);
note = Acircumflex;
unicode = 00C2;
},
{
glyphname = Adieresis;
lastChange = "2021-05-11 19:30:45 +0000";
layers = (
{
hints = (
{
horizontal = 1;
place = "{-164, 26}";
type = Stem;
},
{
horizontal = 1;
place = "{-130, 98}";
type = Stem;
},
{
horizontal = 1;
place = "{478, 70}";
type = Stem;
},
{
horizontal = 1;
place = "{700, -20}";
target = down;
type = TopGhost;
},
{
place = "{26, 54}";
type = Stem;
},
{
place = "{256, 48}";
type = Stem;
},
{
horizontal = 1;
place = "{758, 66}";
type = Stem;
},
{
place = "{606, 66}";
type = Stem;
},
{
place = "{736, 66}";
type = Stem;
}
);
layerId = "3191725B-F824-48C7-90A0-BAE99CBF9356";
paths = (
{
closed = 1;
nodes = (
"734 678 OFFCURVE",
"735 681 OFFCURVE",
"735 684 CURVE SMOOTH",
"735 693 OFFCURVE",
"726 698 OFFCURVE",
"708 699 CURVE SMOOTH",
"649 702 OFFCURVE",
"572 671 OFFCURVE",
"479 606 CURVE SMOOTH",
"411 559 OFFCURVE",
"346 503 OFFCURVE",
"283 438 CURVE",
"226 510 OFFCURVE",
"172 546 OFFCURVE",
"120 546 CURVE SMOOTH",
"92 546 OFFCURVE",
"69 534 OFFCURVE",
"51 511 CURVE SMOOTH",
"34 488 OFFCURVE",
"25 458 OFFCURVE",
"25 419 CURVE SMOOTH",
"25 353 OFFCURVE",
"49 283 OFFCURVE",
"98 208 CURVE",
"69 165 OFFCURVE",
"41 123 OFFCURVE",
"12 81 CURVE SMOOTH",
"-32 17 OFFCURVE",
"-73 -31 OFFCURVE",
"-109 -66 CURVE SMOOTH",
"-157 -113 OFFCURVE",
"-199 -137 OFFCURVE",
"-235 -137 CURVE SMOOTH",
"-258 -137 OFFCURVE",
"-272 -130 OFFCURVE",
"-276 -115 CURVE",
"-267 -124 OFFCURVE",
"-256 -129 OFFCURVE",
"-243 -129 CURVE SMOOTH",
"-230 -129 OFFCURVE",
"-218 -124 OFFCURVE",
"-207 -114 CURVE SMOOTH",
"-197 -105 OFFCURVE",
"-191 -93 OFFCURVE",
"-189 -80 CURVE SMOOTH",
"-187 -67 OFFCURVE",
"-191 -55 OFFCURVE",
"-200 -45 CURVE SMOOTH",
"-209 -36 OFFCURVE",
"-220 -31 OFFCURVE",
"-233 -31 CURVE SMOOTH",
"-251 -31 OFFCURVE",
"-266 -39 OFFCURVE",
"-279 -54 CURVE SMOOTH",
"-291 -69 OFFCURVE",
"-297 -85 OFFCURVE",
"-297 -104 CURVE SMOOTH",
"-297 -125 OFFCURVE",
"-288 -141 OFFCURVE",
"-270 -151 CURVE SMOOTH",
"-257 -159 OFFCURVE",
"-240 -163 OFFCURVE",
"-221 -163 CURVE SMOOTH",
"-208 -163 OFFCURVE",
"-195 -161 OFFCURVE",
"-182 -157 CURVE SMOOTH",
"-143 -147 OFFCURVE",
"-96 -108 OFFCURVE",
"-41 -40 CURVE SMOOTH",
"-26 -21 OFFCURVE",
"26 52 OFFCURVE",
"117 180 CURVE",
"153 131 OFFCURVE",
"195 83 OFFCURVE",
"244 38 CURVE SMOOTH",
"288 -3 OFFCURVE",
"328 -35 OFFCURVE",
"365 -57 CURVE SMOOTH",
"375 -63 OFFCURVE",
"380 -61 OFFCURVE",
"380 -52 CURVE SMOOTH",
"380 -49 OFFCURVE",
"378 -45 OFFCURVE",
"373 -42 CURVE SMOOTH",
"276 25 OFFCURVE",
"196 107 OFFCURVE",
"135 205 CURVE",
"188 279 OFFCURVE",
"235 339 OFFCURVE",
"278 385 CURVE",
"339 308 OFFCURVE",
"379 214 OFFCURVE",
"397 105 CURVE",
"400 64 OFFCURVE",
"414 33 OFFCURVE",
"440 10 CURVE SMOOTH",
"463 -10 OFFCURVE",
"489 -18 OFFCURVE",
"516 -15 CURVE SMOOTH",
"549 -11 OFFCURVE",
"583 17 OFFCURVE",
"616 70 CURVE SMOOTH",
"624 82 OFFCURVE",
"645 126 OFFCURVE",
"683 201 CURVE SMOOTH",
"686 207 OFFCURVE",
"688 212 OFFCURVE",
"688 217 CURVE SMOOTH",
"688 222 OFFCURVE",
"686 225 OFFCURVE",
"683 224 CURVE SMOOTH",
"679 223 OFFCURVE",
"675 219 OFFCURVE",
"672 212 CURVE SMOOTH",
"609 81 OFFCURVE",
"560 16 OFFCURVE",
"526 16 CURVE SMOOTH",
"492 16 OFFCURVE",
"475 37 OFFCURVE",
"475 79 CURVE SMOOTH",
"475 92 OFFCURVE",
"477 108 OFFCURVE",
"480 127 CURVE SMOOTH",
"498 222 OFFCURVE",
"582 405 OFFCURVE",
"732 674 CURVE SMOOTH"
);
},
{
closed = 1;
nodes = (
"565 484 OFFCURVE",
"507 390 OFFCURVE",
"450 289 CURVE SMOOTH",
"427 249 OFFCURVE",
"412 211 OFFCURVE",
"404 176 CURVE",
"382 266 OFFCURVE",
"348 344 OFFCURVE",
"303 411 CURVE",
"344 452 OFFCURVE",
"392 493 OFFCURVE",
"449 533 CURVE SMOOTH",
"521 583 OFFCURVE",
"576 607 OFFCURVE",
"614 607 CURVE SMOOTH",
"627 607 OFFCURVE",
"633 603 OFFCURVE",
"633 594 CURVE SMOOTH",
"633 587 OFFCURVE",
"630 579 OFFCURVE",
"623 569 CURVE SMOOTH"
);
},
{
closed = 1;
nodes = (
"215 365 OFFCURVE",
"169 306 OFFCURVE",
"117 235 CURVE",
"92 284 OFFCURVE",
"79 332 OFFCURVE",
"79 378 CURVE SMOOTH",
"79 407 OFFCURVE",
"85 431 OFFCURVE",
"97 450 CURVE SMOOTH",
"108 468 OFFCURVE",
"124 477 OFFCURVE",
"144 477 CURVE SMOOTH",
"177 477 OFFCURVE",
"214 455 OFFCURVE",
"256 410 CURVE"
);
},
{
closed = 1;
nodes = (
"801 812 OFFCURVE",
"790 823 OFFCURVE",
"767 823 CURVE SMOOTH",
"746 823 OFFCURVE",
"735 812 OFFCURVE",
"735 790 CURVE SMOOTH",
"735 768 OFFCURVE",
"746 757 OFFCURVE",
"769 757 CURVE SMOOTH",
"790 757 OFFCURVE",
"801 768 OFFCURVE",
"801 790 CURVE SMOOTH"
);
},
{
closed = 1;
nodes = (
"672 812 OFFCURVE",
"661 823 OFFCURVE",
"638 823 CURVE SMOOTH",
"617 823 OFFCURVE",
"606 812 OFFCURVE",
"606 790 CURVE SMOOTH",
"606 768 OFFCURVE",
"617 757 OFFCURVE",
"640 757 CURVE SMOOTH",
"661 757 OFFCURVE",
"672 768 OFFCURVE",
"672 790 CURVE SMOOTH"
);
}
);
width = 606;
}
);
note = Adieresis;
unicode = 00C4;
},
{
glyphname = Agrave;
lastChange = "2021-05-11 19:30:45 +0000";
layers = (
{
hints = (
{
horizontal = 1;
place = "{-164, 26}";
type = Stem;
},
{
horizontal = 1;
place = "{-130, 98}";
type = Stem;
},
{
horizontal = 1;
place = "{478, 70}";
type = Stem;
},
{
horizontal = 1;
place = "{700, -20}";
target = down;
type = TopGhost;
},
{
place = "{26, 54}";
type = Stem;
},
{
place = "{256, 48}";
type = Stem;
}
);
layerId = "3191725B-F824-48C7-90A0-BAE99CBF9356";
paths = (
{
closed = 1;
nodes = (
"734 678 OFFCURVE",
"735 681 OFFCURVE",
"735 684 CURVE SMOOTH",
"735 693 OFFCURVE",
"726 698 OFFCURVE",
"708 699 CURVE SMOOTH",
"649 702 OFFCURVE",
"572 671 OFFCURVE",
"479 606 CURVE SMOOTH",
"411 559 OFFCURVE",
"346 503 OFFCURVE",
"283 438 CURVE",
"226 510 OFFCURVE",
"172 546 OFFCURVE",
"120 546 CURVE SMOOTH",
"92 546 OFFCURVE",
"69 534 OFFCURVE",
"51 511 CURVE SMOOTH",
"34 488 OFFCURVE",
"25 458 OFFCURVE",
"25 419 CURVE SMOOTH",
"25 353 OFFCURVE",
"49 283 OFFCURVE",
"98 208 CURVE",
"69 165 OFFCURVE",
"41 123 OFFCURVE",
"12 81 CURVE SMOOTH",
"-32 17 OFFCURVE",
"-73 -31 OFFCURVE",
"-109 -66 CURVE SMOOTH",
"-157 -113 OFFCURVE",
"-199 -137 OFFCURVE",
"-235 -137 CURVE SMOOTH",
"-258 -137 OFFCURVE",
"-272 -130 OFFCURVE",
"-276 -115 CURVE",
"-267 -124 OFFCURVE",
"-256 -129 OFFCURVE",
"-243 -129 CURVE SMOOTH",
"-230 -129 OFFCURVE",
"-218 -124 OFFCURVE",
"-207 -114 CURVE SMOOTH",
"-197 -105 OFFCURVE",
"-191 -93 OFFCURVE",
"-189 -80 CURVE SMOOTH",
"-187 -67 OFFCURVE",
"-191 -55 OFFCURVE",
"-200 -45 CURVE SMOOTH",
"-209 -36 OFFCURVE",
"-220 -31 OFFCURVE",
"-233 -31 CURVE SMOOTH",
"-251 -31 OFFCURVE",
"-266 -39 OFFCURVE",
"-279 -54 CURVE SMOOTH",
"-291 -69 OFFCURVE",
"-297 -85 OFFCURVE",
"-297 -104 CURVE SMOOTH",
"-297 -125 OFFCURVE",
"-288 -141 OFFCURVE",
"-270 -151 CURVE SMOOTH",
"-257 -159 OFFCURVE",
"-240 -163 OFFCURVE",
"-221 -163 CURVE SMOOTH",
"-208 -163 OFFCURVE",
"-195 -161 OFFCURVE",
"-182 -157 CURVE SMOOTH",
"-143 -147 OFFCURVE",
"-96 -108 OFFCURVE",
"-41 -40 CURVE SMOOTH",
"-26 -21 OFFCURVE",
"26 52 OFFCURVE",
"117 180 CURVE",
"153 131 OFFCURVE",
"195 83 OFFCURVE",
"244 38 CURVE SMOOTH",
"288 -3 OFFCURVE",
"328 -35 OFFCURVE",
"365 -57 CURVE SMOOTH",
"375 -63 OFFCURVE",
"380 -61 OFFCURVE",
"380 -52 CURVE SMOOTH",
"380 -49 OFFCURVE",
"378 -45 OFFCURVE",
"373 -42 CURVE SMOOTH",
"276 25 OFFCURVE",
"196 107 OFFCURVE",
"135 205 CURVE",
"188 279 OFFCURVE",
"235 339 OFFCURVE",
"278 385 CURVE",
"339 308 OFFCURVE",
"379 214 OFFCURVE",
"397 105 CURVE",
"400 64 OFFCURVE",
"414 33 OFFCURVE",
"440 10 CURVE SMOOTH",
"463 -10 OFFCURVE",
"489 -18 OFFCURVE",
"516 -15 CURVE SMOOTH",
"549 -11 OFFCURVE",
"583 17 OFFCURVE",
"616 70 CURVE SMOOTH",
"624 82 OFFCURVE",
"645 126 OFFCURVE",
"683 201 CURVE SMOOTH",
"686 207 OFFCURVE",
"688 212 OFFCURVE",
"688 217 CURVE SMOOTH",
"688 222 OFFCURVE",
"686 225 OFFCURVE",
"683 224 CURVE SMOOTH",
"679 223 OFFCURVE",
"675 219 OFFCURVE",
"672 212 CURVE SMOOTH",
"609 81 OFFCURVE",
"560 16 OFFCURVE",
"526 16 CURVE SMOOTH",
"492 16 OFFCURVE",
"475 37 OFFCURVE",
"475 79 CURVE SMOOTH",
"475 92 OFFCURVE",
"477 108 OFFCURVE",
"480 127 CURVE SMOOTH",
"498 222 OFFCURVE",
"582 405 OFFCURVE",
"732 674 CURVE SMOOTH"
);
},
{
closed = 1;
nodes = (
"565 484 OFFCURVE",
"507 390 OFFCURVE",
"450 289 CURVE SMOOTH",
"427 249 OFFCURVE",
"412 211 OFFCURVE",
"404 176 CURVE",
"382 266 OFFCURVE",
"348 344 OFFCURVE",
"303 411 CURVE",
"344 452 OFFCURVE",
"392 493 OFFCURVE",
"449 533 CURVE SMOOTH",
"521 583 OFFCURVE",
"576 607 OFFCURVE",
"614 607 CURVE SMOOTH",
"627 607 OFFCURVE",
"633 603 OFFCURVE",
"633 594 CURVE SMOOTH",
"633 587 OFFCURVE",
"630 579 OFFCURVE",
"623 569 CURVE SMOOTH"
);
},
{
closed = 1;
nodes = (
"215 365 OFFCURVE",
"169 306 OFFCURVE",
"117 235 CURVE",
"92 284 OFFCURVE",
"79 332 OFFCURVE",
"79 378 CURVE SMOOTH",
"79 407 OFFCURVE",
"85 431 OFFCURVE",
"97 450 CURVE SMOOTH",
"108 468 OFFCURVE",
"124 477 OFFCURVE",
"144 477 CURVE SMOOTH",
"177 477 OFFCURVE",
"214 455 OFFCURVE",
"256 410 CURVE"
);
},
{
closed = 1;
nodes = (
"773 750 OFFCURVE",
"748 772 OFFCURVE",
"697 812 CURVE SMOOTH",
"646 852 OFFCURVE",
"617 872 OFFCURVE",
"608 872 CURVE SMOOTH",
"595 872 OFFCURVE",
"589 865 OFFCURVE",
"589 851 CURVE SMOOTH",
"589 833 OFFCURVE",
"601 818 OFFCURVE",
"626 805 CURVE SMOOTH",
"650 793 OFFCURVE",
"674 781 OFFCURVE",
"698 768 CURVE SMOOTH",
"737 747 OFFCURVE",
"759 737 OFFCURVE",
"763 737 CURVE SMOOTH",
"770 737 OFFCURVE",
"773 740 OFFCURVE",
"773 746 CURVE SMOOTH"
);
}
);
width = 606;
}
);
note = Agrave;
unicode = 00C0;
},
{
glyphname = Atilde;
lastChange = "2021-05-11 19:30:45 +0000";
layers = (
{
hints = (
{
horizontal = 1;
place = "{-164, 26}";
type = Stem;
},
{
horizontal = 1;
place = "{-130, 98}";
type = Stem;
},
{
horizontal = 1;
place = "{478, 70}";
type = Stem;
},
{
horizontal = 1;
place = "{700, -20}";
target = down;
type = TopGhost;
},
{
place = "{26, 54}";
type = Stem;
},
{
place = "{256, 48}";
type = Stem;
},
{
horizontal = 1;
place = "{806, 44}";
type = Stem;
}
);
layerId = "3191725B-F824-48C7-90A0-BAE99CBF9356";
paths = (
{
closed = 1;
nodes = (
"734 678 OFFCURVE",
"735 681 OFFCURVE",
"735 684 CURVE SMOOTH",
"735 693 OFFCURVE",
"726 698 OFFCURVE",
"708 699 CURVE SMOOTH",
"649 702 OFFCURVE",
"572 671 OFFCURVE",
"479 606 CURVE SMOOTH",
"411 559 OFFCURVE",
"346 503 OFFCURVE",
"283 438 CURVE",
"226 510 OFFCURVE",
"172 546 OFFCURVE",
"120 546 CURVE SMOOTH",
"92 546 OFFCURVE",
"69 534 OFFCURVE",
"51 511 CURVE SMOOTH",
"34 488 OFFCURVE",
"25 458 OFFCURVE",
"25 419 CURVE SMOOTH",
"25 353 OFFCURVE",
"49 283 OFFCURVE",
"98 208 CURVE",
"69 165 OFFCURVE",
"41 123 OFFCURVE",
"12 81 CURVE SMOOTH",
"-32 17 OFFCURVE",
"-73 -31 OFFCURVE",
"-109 -66 CURVE SMOOTH",
"-157 -113 OFFCURVE",
"-199 -137 OFFCURVE",
"-235 -137 CURVE SMOOTH",
"-258 -137 OFFCURVE",
"-272 -130 OFFCURVE",
"-276 -115 CURVE",
"-267 -124 OFFCURVE",
"-256 -129 OFFCURVE",
"-243 -129 CURVE SMOOTH",
"-230 -129 OFFCURVE",
"-218 -124 OFFCURVE",
"-207 -114 CURVE SMOOTH",
"-197 -105 OFFCURVE",
"-191 -93 OFFCURVE",
"-189 -80 CURVE SMOOTH",
"-187 -67 OFFCURVE",
"-191 -55 OFFCURVE",
"-200 -45 CURVE SMOOTH",
"-209 -36 OFFCURVE",
"-220 -31 OFFCURVE",
"-233 -31 CURVE SMOOTH",
"-251 -31 OFFCURVE",
"-266 -39 OFFCURVE",
"-279 -54 CURVE SMOOTH",
"-291 -69 OFFCURVE",
"-297 -85 OFFCURVE",
"-297 -104 CURVE SMOOTH",
"-297 -125 OFFCURVE",
"-288 -141 OFFCURVE",
"-270 -151 CURVE SMOOTH",
"-257 -159 OFFCURVE",
"-240 -163 OFFCURVE",
"-221 -163 CURVE SMOOTH",
"-208 -163 OFFCURVE",
"-195 -161 OFFCURVE",
"-182 -157 CURVE SMOOTH",
"-143 -147 OFFCURVE",
"-96 -108 OFFCURVE",
"-41 -40 CURVE SMOOTH",
"-26 -21 OFFCURVE",
"26 52 OFFCURVE",
"117 180 CURVE",
"153 131 OFFCURVE",
"195 83 OFFCURVE",
"244 38 CURVE SMOOTH",
"288 -3 OFFCURVE",
"328 -35 OFFCURVE",
"365 -57 CURVE SMOOTH",
"375 -63 OFFCURVE",
"380 -61 OFFCURVE",
"380 -52 CURVE SMOOTH",
"380 -49 OFFCURVE",
"378 -45 OFFCURVE",
"373 -42 CURVE SMOOTH",
"276 25 OFFCURVE",
"196 107 OFFCURVE",
"135 205 CURVE",
"188 279 OFFCURVE",
"235 339 OFFCURVE",
"278 385 CURVE",
"339 308 OFFCURVE",
"379 214 OFFCURVE",
"397 105 CURVE",
"400 64 OFFCURVE",
"414 33 OFFCURVE",
"440 10 CURVE SMOOTH",
"463 -10 OFFCURVE",
"489 -18 OFFCURVE",
"516 -15 CURVE SMOOTH",
"549 -11 OFFCURVE",
"583 17 OFFCURVE",
"616 70 CURVE SMOOTH",
"624 82 OFFCURVE",
"645 126 OFFCURVE",
"683 201 CURVE SMOOTH",
"686 207 OFFCURVE",
"688 212 OFFCURVE",
"688 217 CURVE SMOOTH",
"688 222 OFFCURVE",
"686 225 OFFCURVE",
"683 224 CURVE SMOOTH",
"679 223 OFFCURVE",
"675 219 OFFCURVE",
"672 212 CURVE SMOOTH",
"609 81 OFFCURVE",
"560 16 OFFCURVE",
"526 16 CURVE SMOOTH",
"492 16 OFFCURVE",
"475 37 OFFCURVE",
"475 79 CURVE SMOOTH",
"475 92 OFFCURVE",
"477 108 OFFCURVE",
"480 127 CURVE SMOOTH",
"498 222 OFFCURVE",
"582 405 OFFCURVE",
"732 674 CURVE SMOOTH"
);
},
{
closed = 1;
nodes = (
"565 484 OFFCURVE",
"507 390 OFFCURVE",
"450 289 CURVE SMOOTH",
"427 249 OFFCURVE",
"412 211 OFFCURVE",
"404 176 CURVE",
"382 266 OFFCURVE",
"348 344 OFFCURVE",
"303 411 CURVE",
"344 452 OFFCURVE",
"392 493 OFFCURVE",
"449 533 CURVE SMOOTH",
"521 583 OFFCURVE",
"576 607 OFFCURVE",
"614 607 CURVE SMOOTH",
"627 607 OFFCURVE",
"633 603 OFFCURVE",
"633 594 CURVE SMOOTH",
"633 587 OFFCURVE",
"630 579 OFFCURVE",
"623 569 CURVE SMOOTH"
);
},
{
closed = 1;
nodes = (
"215 365 OFFCURVE",
"169 306 OFFCURVE",
"117 235 CURVE",
"92 284 OFFCURVE",
"79 332 OFFCURVE",
"79 378 CURVE SMOOTH",
"79 407 OFFCURVE",
"85 431 OFFCURVE",
"97 450 CURVE SMOOTH",
"108 468 OFFCURVE",
"124 477 OFFCURVE",
"144 477 CURVE SMOOTH",
"177 477 OFFCURVE",
"214 455 OFFCURVE",
"256 410 CURVE"
);
},
{
closed = 1;
nodes = (
"874 848 OFFCURVE",
"871 849 OFFCURVE",
"864 850 CURVE SMOOTH",
"857 851 OFFCURVE",
"853 851 OFFCURVE",
"852 848 CURVE SMOOTH",
"840 823 OFFCURVE",
"822 811 OFFCURVE",
"797 813 CURVE SMOOTH",
"784 814 OFFCURVE",
"764 820 OFFCURVE",
"737 831 CURVE SMOOTH",
"711 842 OFFCURVE",
"691 848 OFFCURVE",
"676 849 CURVE SMOOTH",
"641 852 OFFCURVE",
"608 827 OFFCURVE",
"578 774 CURVE",
"577 771 OFFCURVE",
"580 770 OFFCURVE",
"588 769 CURVE SMOOTH",
"596 768 OFFCURVE",
"600 769 OFFCURVE",
"601 772 CURVE",
"614 796 OFFCURVE",
"632 807 OFFCURVE",
"653 805 CURVE SMOOTH",
"666 804 OFFCURVE",
"686 798 OFFCURVE",
"713 786 CURVE SMOOTH",
"740 774 OFFCURVE",
"760 767 OFFCURVE",
"774 766 CURVE SMOOTH",
"812 763 OFFCURVE",
"845 789 OFFCURVE",
"873 846 CURVE SMOOTH"
);
}
);
width = 606;
}
);
note = Atilde;
unicode = 00C3;
},
{
glyphname = AE;
lastChange = "2021-05-11 19:30:45 +0000";
layers = (
{
hints = (
{
horizontal = 1;
place = "{-164, 26}";
type = Stem;
},
{
horizontal = 1;
place = "{-64, 14}";
type = Stem;
},
{
horizontal = 1;
place = "{220, 26}";
type = Stem;
},
{
horizontal = 1;
place = "{330, 50}";
type = Stem;
},
{
horizontal = 1;
place = "{412, 16}";
type = Stem;
},
{
horizontal = 1;
place = "{478, 70}";
type = Stem;
},
{
horizontal = 1;
place = "{658, 28}";
type = Stem;
},
{
place = "{-298, 108}";
type = Stem;
},
{
place = "{26, 54}";
type = Stem;
},
{
place = "{256, 46}";
type = Stem;
},
{
place = "{492, 16}";
type = Stem;
},
{
place = "{886, 52}";
type = Stem;
},
{
place = "{1032, 24}";
type = Stem;
}
);
layerId = "3191725B-F824-48C7-90A0-BAE99CBF9356";
paths = (
{
closed = 1;
nodes = (
"1027 526 OFFCURVE",
"1054 564 OFFCURVE",
"1054 603 CURVE SMOOTH",
"1054 627 OFFCURVE",
"1043 647 OFFCURVE",
"1020 662 CURVE SMOOTH",
"998 677 OFFCURVE",
"969 685 OFFCURVE",
"932 685 CURVE SMOOTH",
"916 685 OFFCURVE",
"899 684 OFFCURVE",
"882 681 CURVE SMOOTH",
"795 666 OFFCURVE",
"730 635 OFFCURVE",
"685 588 CURVE",
"701 618 OFFCURVE",
"717 647 OFFCURVE",
"732 674 CURVE SMOOTH",
"734 678 OFFCURVE",
"735 681 OFFCURVE",
"735 684 CURVE SMOOTH",
"735 693 OFFCURVE",
"726 698 OFFCURVE",
"708 699 CURVE SMOOTH",
"649 702 OFFCURVE",
"572 671 OFFCURVE",
"479 606 CURVE SMOOTH",
"411 559 OFFCURVE",
"345 503 OFFCURVE",
"282 438 CURVE",
"226 510 OFFCURVE",
"172 546 OFFCURVE",
"120 546 CURVE SMOOTH",
"91 546 OFFCURVE",
"68 534 OFFCURVE",
"51 511 CURVE SMOOTH",
"34 488 OFFCURVE",
"25 458 OFFCURVE",
"25 419 CURVE SMOOTH",
"25 353 OFFCURVE",
"49 283 OFFCURVE",
"98 208 CURVE",
"69 165 OFFCURVE",
"41 123 OFFCURVE",
"12 81 CURVE SMOOTH",
"-33 17 OFFCURVE",
"-74 -31 OFFCURVE",
"-109 -66 CURVE SMOOTH",
"-157 -113 OFFCURVE",
"-199 -137 OFFCURVE",
"-235 -137 CURVE SMOOTH",
"-258 -137 OFFCURVE",
"-272 -130 OFFCURVE",
"-276 -115 CURVE",
"-267 -124 OFFCURVE",
"-256 -129 OFFCURVE",
"-243 -129 CURVE SMOOTH",
"-230 -129 OFFCURVE",
"-218 -124 OFFCURVE",
"-207 -114 CURVE SMOOTH",
"-197 -105 OFFCURVE",
"-191 -93 OFFCURVE",
"-190 -80 CURVE SMOOTH",
"-189 -67 OFFCURVE",
"-192 -55 OFFCURVE",
"-201 -45 CURVE SMOOTH",
"-209 -36 OFFCURVE",
"-220 -31 OFFCURVE",
"-233 -31 CURVE SMOOTH",
"-251 -31 OFFCURVE",
"-266 -39 OFFCURVE",
"-279 -54 CURVE SMOOTH",
"-291 -69 OFFCURVE",
"-297 -85 OFFCURVE",
"-297 -104 CURVE SMOOTH",
"-297 -125 OFFCURVE",
"-288 -141 OFFCURVE",
"-270 -151 CURVE SMOOTH",
"-257 -159 OFFCURVE",
"-240 -163 OFFCURVE",
"-221 -163 CURVE SMOOTH",
"-208 -163 OFFCURVE",
"-195 -161 OFFCURVE",
"-182 -157 CURVE SMOOTH",
"-143 -147 OFFCURVE",
"-96 -108 OFFCURVE",
"-41 -40 CURVE SMOOTH",
"-26 -21 OFFCURVE",
"26 52 OFFCURVE",
"117 180 CURVE",
"153 131 OFFCURVE",
"195 83 OFFCURVE",
"244 38 CURVE SMOOTH",
"288 -3 OFFCURVE",
"328 -35 OFFCURVE",
"365 -57 CURVE SMOOTH",
"375 -63 OFFCURVE",
"380 -61 OFFCURVE",
"380 -52 CURVE SMOOTH",
"380 -49 OFFCURVE",
"378 -45 OFFCURVE",
"373 -42 CURVE SMOOTH",
"276 25 OFFCURVE",
"196 107 OFFCURVE",
"135 205 CURVE",
"188 279 OFFCURVE",
"235 339 OFFCURVE",
"277 385 CURVE",
"339 308 OFFCURVE",
"379 214 OFFCURVE",
"397 105 CURVE",
"401 50 OFFCURVE",
"426 8 OFFCURVE",
"473 -23 CURVE SMOOTH",
"514 -50 OFFCURVE",
"563 -63 OFFCURVE",
"620 -63 CURVE SMOOTH",
"704 -63 OFFCURVE",
"779 -36 OFFCURVE",
"846 17 CURVE SMOOTH",
"907 66 OFFCURVE",
"938 115 OFFCURVE",
"938 165 CURVE SMOOTH",
"938 218 OFFCURVE",
"899 244 OFFCURVE",
"822 244 CURVE SMOOTH",
"811 244 OFFCURVE",
"798 243 OFFCURVE",
"785 242 CURVE SMOOTH",
"731 237 OFFCURVE",
"677 213 OFFCURVE",
"622 172 CURVE SMOOTH",
"577 139 OFFCURVE",
"549 110 OFFCURVE",
"538 85 CURVE",
"537 81 OFFCURVE",
"538 78 OFFCURVE",
"542 76 CURVE SMOOTH",
"546 74 OFFCURVE",
"549 75 OFFCURVE",
"550 79 CURVE",
"559 99 OFFCURVE",
"589 127 OFFCURVE",
"638 161 CURVE SMOOTH",
"694 200 OFFCURVE",
"740 219 OFFCURVE",
"775 219 CURVE SMOOTH",
"849 219 OFFCURVE",
"886 195 OFFCURVE",
"886 147 CURVE SMOOTH",
"886 104 OFFCURVE",
"859 62 OFFCURVE",
"806 19 CURVE SMOOTH",
"749 -27 OFFCURVE",
"687 -50 OFFCURVE",
"620 -50 CURVE SMOOTH",
"575 -50 OFFCURVE",
"540 -34 OFFCURVE",
"515 -3 CURVE SMOOTH",
"492 26 OFFCURVE",
"481 63 OFFCURVE",
"481 108 CURVE SMOOTH",
"481 120 OFFCURVE",
"482 132 OFFCURVE",
"484 145 CURVE SMOOTH",
"491 174 OFFCURVE",
"504 210 OFFCURVE",
"522 255 CURVE",
"559 318 OFFCURVE",
"609 354 OFFCURVE",
"672 364 CURVE",
"695 341 OFFCURVE",
"724 329 OFFCURVE",
"758 329 CURVE SMOOTH",
"784 329 OFFCURVE",
"797 337 OFFCURVE",
"797 352 CURVE SMOOTH",
"797 368 OFFCURVE",
"785 377 OFFCURVE",
"761 379 CURVE SMOOTH",
"738 380 OFFCURVE",
"715 381 OFFCURVE",
"693 380 CURVE",
"689 389 OFFCURVE",
"686 399 OFFCURVE",
"685 411 CURVE",
"809 415 OFFCURVE",
"905 441 OFFCURVE",
"973 488 CURVE SMOOTH"
);
},
{
closed = 1;
nodes = (
"876 460 OFFCURVE",
"789 433 OFFCURVE",
"685 428 CURVE",
"689 481 OFFCURVE",
"716 531 OFFCURVE",
"767 576 CURVE SMOOTH",
"829 631 OFFCURVE",
"893 658 OFFCURVE",
"958 658 CURVE SMOOTH",
"1007 658 OFFCURVE",
"1031 643 OFFCURVE",
"1031 613 CURVE SMOOTH",
"1031 584 OFFCURVE",
"1003 549 OFFCURVE",
"946 509 CURVE SMOOTH"
);
},
{
closed = 1;
nodes = (
"624 428 OFFCURVE",
"613 428 OFFCURVE",
"602 428 CURVE",
"613 449 OFFCURVE",
"624 470 OFFCURVE",
"635 492 CURVE",
"630 470 OFFCURVE",
"631 448 OFFCURVE",
"636 427 CURVE"
);
},
{
closed = 1;
nodes = (
"627 374 OFFCURVE",
"595 366 OFFCURVE",
"566 354 CURVE",
"575 373 OFFCURVE",
"584 392 OFFCURVE",
"595 413 CURVE",
"609 412 OFFCURVE",
"624 412 OFFCURVE",
"641 411 CURVE",
"646 399 OFFCURVE",
"652 388 OFFCURVE",
"660 377 CURVE"
);
},
{
closed = 1;
nodes = (
"588 518 OFFCURVE",
"561 477 OFFCURVE",
"543 448 CURVE",
"520 457 OFFCURVE",
"507 470 OFFCURVE",
"506 487 CURVE SMOOTH",
"505 494 OFFCURVE",
"502 497 OFFCURVE",
"497 497 CURVE SMOOTH",
"492 497 OFFCURVE",
"490 494 OFFCURVE",
"491 487 CURVE SMOOTH",
"493 461 OFFCURVE",
"505 442 OFFCURVE",
"528 433 CURVE SMOOTH",
"533 431 LINE",
"512 398 OFFCURVE",
"485 351 OFFCURVE",
"450 289 CURVE SMOOTH",
"427 249 OFFCURVE",
"412 211 OFFCURVE",
"404 176 CURVE",
"382 266 OFFCURVE",
"348 344 OFFCURVE",
"302 411 CURVE",
"343 452 OFFCURVE",
"392 493 OFFCURVE",
"449 533 CURVE SMOOTH",
"521 583 OFFCURVE",
"576 607 OFFCURVE",
"614 607 CURVE SMOOTH",
"627 607 OFFCURVE",
"633 603 OFFCURVE",
"633 594 CURVE SMOOTH",
"633 587 OFFCURVE",
"630 579 OFFCURVE",
"623 569 CURVE SMOOTH"
);
},
{
closed = 1;
nodes = (
"215 365 OFFCURVE",
"168 306 OFFCURVE",
"117 235 CURVE",
"91 284 OFFCURVE",
"78 332 OFFCURVE",
"78 378 CURVE SMOOTH",
"78 407 OFFCURVE",
"84 431 OFFCURVE",
"96 450 CURVE SMOOTH",
"107 468 OFFCURVE",
"123 477 OFFCURVE",
"144 477 CURVE SMOOTH",
"177 477 OFFCURVE",
"214 455 OFFCURVE",
"256 410 CURVE"
);
}
);
width = 959;
}
);
note = AE;
unicode = 00C6;
},
{
glyphname = B;
lastChange = "2021-05-11 19:30:45 +0000";
layers = (
{
hints = (
{
horizontal = 1;
place = "{-54, 16}";
type = Stem;
},
{
horizontal = 1;
place = "{-14, 98}";
type = Stem;
},
{
horizontal = 1;
place = "{370, 28}";
type = Stem;
},
{
horizontal = 1;
place = "{736, 20}";
type = Stem;
},
{
place = "{104, 62}";
type = Stem;
},
{
place = "{668, 70}";
type = Stem;
}
);
layerId = "3191725B-F824-48C7-90A0-BAE99CBF9356";
paths = (
{
closed = 1;
nodes = (
"797 600 OFFCURVE",
"785 629 OFFCURVE",
"760 653 CURVE SMOOTH",
"732 679 OFFCURVE",
"691 694 OFFCURVE",
"636 699 CURVE",
"665 723 OFFCURVE",
"696 735 OFFCURVE",
"728 735 CURVE SMOOTH",
"743 735 OFFCURVE",
"757 732 OFFCURVE",
"768 726 CURVE SMOOTH",
"773 723 OFFCURVE",
"776 727 OFFCURVE",
"776 736 CURVE SMOOTH",
"776 739 OFFCURVE",
"774 742 OFFCURVE",
"771 743 CURVE SMOOTH",
"755 750 OFFCURVE",
"737 754 OFFCURVE",
"718 754 CURVE SMOOTH",
"673 754 OFFCURVE",
"630 736 OFFCURVE",
"588 700 CURVE",
"506 699 OFFCURVE",
"423 683 OFFCURVE",
"338 652 CURVE SMOOTH",
"239 616 OFFCURVE",
"170 568 OFFCURVE",
"129 510 CURVE SMOOTH",
"112 486 OFFCURVE",
"103 463 OFFCURVE",
"103 440 CURVE SMOOTH",
"103 393 OFFCURVE",
"134 369 OFFCURVE",
"196 369 CURVE SMOOTH",
"226 369 OFFCURVE",
"271 385 OFFCURVE",
"330 417 CURVE SMOOTH",
"394 451 OFFCURVE",
"426 481 OFFCURVE",
"426 507 CURVE SMOOTH",
"426 510 OFFCURVE",
"424 511 OFFCURVE",
"421 512 CURVE SMOOTH",
"418 513 OFFCURVE",
"415 512 OFFCURVE",
"413 509 CURVE SMOOTH",
"388 478 OFFCURVE",
"357 451 OFFCURVE",
"321 430 CURVE SMOOTH",
"282 407 OFFCURVE",
"245 396 OFFCURVE",
"210 396 CURVE SMOOTH",
"180 396 OFFCURVE",
"165 409 OFFCURVE",
"165 435 CURVE SMOOTH",
"165 479 OFFCURVE",
"198 527 OFFCURVE",
"263 578 CURVE SMOOTH",
"297 605 OFFCURVE",
"344 629 OFFCURVE",
"405 650 CURVE SMOOTH",
"465 670 OFFCURVE",
"520 682 OFFCURVE",
"571 684 CURVE",
"548 663 OFFCURVE",
"527 637 OFFCURVE",
"511 606 CURVE SMOOTH",
"362 313 LINE SMOOTH",
"303 197 OFFCURVE",
"255 116 OFFCURVE",
"218 71 CURVE SMOOTH",
"175 20 OFFCURVE",
"125 -13 OFFCURVE",
"68 -28 CURVE SMOOTH",
"61 -30 OFFCURVE",
"53 -31 OFFCURVE",
"46 -31 CURVE SMOOTH",
"15 -31 OFFCURVE",
"-4 -21 OFFCURVE",
"-11 -2 CURVE",
"-3 -10 OFFCURVE",
"7 -14 OFFCURVE",
"19 -14 CURVE SMOOTH",
"32 -14 OFFCURVE",
"45 -9 OFFCURVE",
"56 1 CURVE SMOOTH",
"67 10 OFFCURVE",
"73 22 OFFCURVE",
"75 35 CURVE SMOOTH",
"77 48 OFFCURVE",
"75 60 OFFCURVE",
"67 70 CURVE SMOOTH",
"59 79 OFFCURVE",
"48 84 OFFCURVE",
"34 84 CURVE SMOOTH",
"15 84 OFFCURVE",
"-2 76 OFFCURVE",
"-16 61 CURVE SMOOTH",
"-30 46 OFFCURVE",
"-37 28 OFFCURVE",
"-37 8 CURVE SMOOTH",
"-37 -40 OFFCURVE",
"-2 -62 OFFCURVE",
"65 -57 CURVE SMOOTH",
"120 -53 OFFCURVE",
"179 -26 OFFCURVE",
"240 25 CURVE",
"239 -28 OFFCURVE",
"283 -54 OFFCURVE",
"370 -54 CURVE SMOOTH",
"380 -54 OFFCURVE",
"390 -54 OFFCURVE",
"400 -53 CURVE SMOOTH",
"496 -46 OFFCURVE",
"577 -13 OFFCURVE",
"644 46 CURVE SMOOTH",
"706 101 OFFCURVE",
"737 158 OFFCURVE",
"737 219 CURVE SMOOTH",
"737 291 OFFCURVE",
"692 335 OFFCURVE",
"601 351 CURVE",
"656 370 OFFCURVE",
"701 401 OFFCURVE",
"737 443 CURVE SMOOTH",
"771 483 OFFCURVE",
"791 523 OFFCURVE",
"794 565 CURVE SMOOTH"
);
},
{
closed = 1;
nodes = (
"725 515 OFFCURVE",
"706 473 OFFCURVE",
"671 434 CURVE SMOOTH",
"634 392 OFFCURVE",
"591 366 OFFCURVE",
"540 357 CURVE",
"516 357 OFFCURVE",
"490 355 OFFCURVE",
"463 352 CURVE",
"558 586 LINE SMOOTH",
"574 625 OFFCURVE",
"593 658 OFFCURVE",
"618 683 CURVE",
"657 678 OFFCURVE",
"687 663 OFFCURVE",
"706 639 CURVE SMOOTH",
"723 618 OFFCURVE",
"731 591 OFFCURVE",
"728 559 CURVE SMOOTH"
);
},
{
closed = 1;
nodes = (
"557 206 OFFCURVE",
"567 213 OFFCURVE",
"567 218 CURVE SMOOTH",
"567 221 OFFCURVE",
"563 222 OFFCURVE",
"556 222 CURVE SMOOTH",
"551 222 OFFCURVE",
"544 221 OFFCURVE",
"535 219 CURVE SMOOTH",
"474 206 OFFCURVE",
"417 187 OFFCURVE",
"364 160 CURVE",
"377 179 OFFCURVE",
"388 196 OFFCURVE",
"397 212 CURVE SMOOTH",
"423 260 OFFCURVE",
"441 299 OFFCURVE",
"452 326 CURVE",
"471 328 OFFCURVE",
"489 329 OFFCURVE",
"506 329 CURVE SMOOTH",
"560 329 OFFCURVE",
"601 318 OFFCURVE",
"629 296 CURVE SMOOTH",
"654 276 OFFCURVE",
"667 249 OFFCURVE",
"667 215 CURVE SMOOTH",
"667 171 OFFCURVE",
"647 126 OFFCURVE",
"607 79 CURVE SMOOTH",
"568 32 OFFCURVE",
"519 0 OFFCURVE",
"462 -18 CURVE SMOOTH",
"379 -44 OFFCURVE",
"326 -43 OFFCURVE",
"302 -14 CURVE SMOOTH",
"280 13 OFFCURVE",
"290 49 OFFCURVE",
"334 94 CURVE SMOOTH",
"381 143 OFFCURVE",
"448 178 OFFCURVE",
"536 201 CURVE SMOOTH"
);
}
);
width = 760;
}
);
note = B;
unicode = 0042;
},
{
glyphname = C;
lastChange = "2021-05-11 19:30:45 +0000";
layers = (
{
hints = (
{
horizontal = 1;
place = "{-76, 22}";
type = Stem;
},
{
horizontal = 1;
place = "{318, -20}";
target = down;
type = TopGhost;
},
{
horizontal = 1;
place = "{346, 26}";
type = Stem;
},
{
horizontal = 1;
place = "{642, 18}";
type = Stem;
},
{
horizontal = 1;
place = "{682, -20}";
target = down;
type = TopGhost;
},
{
place = "{14, 36}";
type = Stem;
},
{
place = "{84, 80}";
type = Stem;
},
{
place = "{628, 26}";
type = Stem;
},
{
place = "{766, 42}";
type = Stem;
}
);
layerId = "3191725B-F824-48C7-90A0-BAE99CBF9356";
paths = (
{
closed = 1;
nodes = (
"770 513 OFFCURVE",
"807 563 OFFCURVE",
"807 610 CURVE SMOOTH",
"807 658 OFFCURVE",
"762 682 OFFCURVE",
"671 682 CURVE SMOOTH",
"572 682 OFFCURVE",
"473 651 OFFCURVE",
"374 589 CURVE",
"320 636 OFFCURVE",
"256 660 OFFCURVE",
"182 660 CURVE SMOOTH",
"139 660 OFFCURVE",
"103 651 OFFCURVE",
"72 634 CURVE SMOOTH",
"35 613 OFFCURVE",
"15 582 OFFCURVE",
"13 543 CURVE SMOOTH",
"11 504 OFFCURVE",
"25 467 OFFCURVE",
"56 433 CURVE SMOOTH",
"83 404 OFFCURVE",
"116 382 OFFCURVE",
"157 368 CURVE",
"112 291 OFFCURVE",
"87 215 OFFCURVE",
"83 141 CURVE SMOOTH",
"80 75 OFFCURVE",
"94 23 OFFCURVE",
"127 -15 CURVE SMOOTH",
"161 -55 OFFCURVE",
"211 -75 OFFCURVE",
"277 -75 CURVE SMOOTH",
"336 -75 OFFCURVE",
"395 -61 OFFCURVE",
"454 -34 CURVE SMOOTH",
"513 -7 OFFCURVE",
"560 29 OFFCURVE",
"597 76 CURVE SMOOTH",
"632 120 OFFCURVE",
"650 164 OFFCURVE",
"652 207 CURVE SMOOTH",
"654 240 OFFCURVE",
"646 266 OFFCURVE",
"629 287 CURVE SMOOTH",
"612 307 OFFCURVE",
"588 317 OFFCURVE",
"556 317 CURVE SMOOTH",
"509 317 OFFCURVE",
"455 295 OFFCURVE",
"394 249 CURVE SMOOTH",
"336 205 OFFCURVE",
"296 160 OFFCURVE",
"275 113 CURVE",
"274 112 OFFCURVE",
"274 110 OFFCURVE",
"274 108 CURVE SMOOTH",
"274 101 OFFCURVE",
"276 98 OFFCURVE",
"281 98 CURVE SMOOTH",
"284 98 OFFCURVE",
"286 100 OFFCURVE",
"288 103 CURVE SMOOTH",
"314 144 OFFCURVE",
"355 186 OFFCURVE",
"412 228 CURVE SMOOTH",
"475 274 OFFCURVE",
"527 297 OFFCURVE",
"570 297 CURVE SMOOTH",
"610 297 OFFCURVE",
"629 277 OFFCURVE",
"627 236 CURVE SMOOTH",
"625 197 OFFCURVE",
"603 153 OFFCURVE",
"561 102 CURVE SMOOTH",
"474 -2 OFFCURVE",
"387 -54 OFFCURVE",
"298 -54 CURVE SMOOTH",
"249 -54 OFFCURVE",
"213 -37 OFFCURVE",
"189 -2 CURVE SMOOTH",
"169 28 OFFCURVE",
"159 69 OFFCURVE",
"162 120 CURVE SMOOTH",
"166 191 OFFCURVE",
"193 268 OFFCURVE",
"244 349 CURVE",
"263 346 OFFCURVE",
"284 345 OFFCURVE",
"305 345 CURVE SMOOTH",
"462 345 OFFCURVE",
"592 383 OFFCURVE",
"696 459 CURVE SMOOTH"
);
},
{
closed = 1;
nodes = (
"763 578 OFFCURVE",
"735 538 OFFCURVE",
"680 498 CURVE SMOOTH",
"596 437 OFFCURVE",
"506 397 OFFCURVE",
"410 379 CURVE SMOOTH",
"375 373 OFFCURVE",
"341 370 OFFCURVE",
"307 370 CURVE SMOOTH",
"292 370 OFFCURVE",
"276 371 OFFCURVE",
"260 373 CURVE",
"299 430 OFFCURVE",
"346 482 OFFCURVE",
"399 528 CURVE",
"414 510 OFFCURVE",
"424 496 OFFCURVE",
"431 487 CURVE SMOOTH",
"434 482 OFFCURVE",
"439 480 OFFCURVE",
"445 481 CURVE SMOOTH",
"450 482 OFFCURVE",
"452 485 OFFCURVE",
"449 490 CURVE SMOOTH",
"440 509 OFFCURVE",
"429 526 OFFCURVE",
"417 543 CURVE",
"515 622 OFFCURVE",
"608 662 OFFCURVE",
"697 662 CURVE SMOOTH",
"744 662 OFFCURVE",
"767 647 OFFCURVE",
"765 617 CURVE SMOOTH"
);
},
{
closed = 1;
nodes = (
"278 524 OFFCURVE",
"219 464 OFFCURVE",
"173 394 CURVE",
"86 426 OFFCURVE",
"45 477 OFFCURVE",
"49 547 CURVE SMOOTH",
"51 578 OFFCURVE",
"64 602 OFFCURVE",
"89 619 CURVE SMOOTH",
"111 634 OFFCURVE",
"138 642 OFFCURVE",
"170 642 CURVE SMOOTH",
"233 642 OFFCURVE",
"294 619 OFFCURVE",
"351 574 CURVE"
);
}
);
width = 678;
}
);
note = C;
unicode = 0043;
},
{
glyphname = Ccedilla;
lastChange = "2021-05-11 19:30:45 +0000";
layers = (
{
hints = (
{
horizontal = 1;
place = "{-76, 22}";
type = Stem;
},
{
horizontal = 1;
place = "{318, -20}";
target = down;
type = TopGhost;
},
{
horizontal = 1;
place = "{346, 26}";
type = Stem;
},
{
horizontal = 1;
place = "{642, 18}";
type = Stem;
},
{
horizontal = 1;
place = "{682, -20}";
target = down;
type = TopGhost;
},
{
place = "{14, 36}";
type = Stem;
},
{
place = "{84, 80}";
type = Stem;
},
{
place = "{628, 26}";
type = Stem;
},
{
place = "{766, 42}";
type = Stem;
},
{
horizontal = 1;
place = "{-276, 18}";
type = Stem;
},
{
horizontal = 1;
place = "{-126, 18}";
type = Stem;
},
{
horizontal = 1;
place = "{-68, -20}";
target = down;
type = TopGhost;
},
{
place = "{362, 38}";
type = Stem;
}
);
layerId = "3191725B-F824-48C7-90A0-BAE99CBF9356";
paths = (
{
closed = 1;
nodes = (
"770 513 OFFCURVE",
"807 563 OFFCURVE",
"807 610 CURVE SMOOTH",
"807 658 OFFCURVE",
"762 682 OFFCURVE",
"671 682 CURVE SMOOTH",
"572 682 OFFCURVE",
"473 651 OFFCURVE",
"374 589 CURVE",
"320 636 OFFCURVE",
"256 660 OFFCURVE",
"182 660 CURVE SMOOTH",
"139 660 OFFCURVE",
"103 651 OFFCURVE",
"72 634 CURVE SMOOTH",
"35 613 OFFCURVE",
"15 582 OFFCURVE",
"13 543 CURVE SMOOTH",
"11 504 OFFCURVE",
"25 467 OFFCURVE",
"56 433 CURVE SMOOTH",
"83 404 OFFCURVE",
"116 382 OFFCURVE",
"157 368 CURVE",
"112 291 OFFCURVE",
"87 215 OFFCURVE",
"83 141 CURVE SMOOTH",
"80 75 OFFCURVE",
"94 23 OFFCURVE",
"127 -15 CURVE SMOOTH",
"161 -55 OFFCURVE",
"211 -75 OFFCURVE",
"277 -75 CURVE SMOOTH",
"336 -75 OFFCURVE",
"395 -61 OFFCURVE",
"454 -34 CURVE SMOOTH",
"513 -7 OFFCURVE",
"560 29 OFFCURVE",
"597 76 CURVE SMOOTH",
"632 120 OFFCURVE",
"650 164 OFFCURVE",
"652 207 CURVE SMOOTH",
"654 240 OFFCURVE",
"646 266 OFFCURVE",
"629 287 CURVE SMOOTH",
"612 307 OFFCURVE",
"588 317 OFFCURVE",
"556 317 CURVE SMOOTH",
"509 317 OFFCURVE",
"455 295 OFFCURVE",
"394 249 CURVE SMOOTH",
"336 205 OFFCURVE",
"296 160 OFFCURVE",
"275 113 CURVE",
"274 112 OFFCURVE",
"274 110 OFFCURVE",
"274 108 CURVE SMOOTH",
"274 101 OFFCURVE",
"276 98 OFFCURVE",
"281 98 CURVE SMOOTH",
"284 98 OFFCURVE",
"286 100 OFFCURVE",
"288 103 CURVE SMOOTH",
"314 144 OFFCURVE",
"355 186 OFFCURVE",
"412 228 CURVE SMOOTH",
"475 274 OFFCURVE",
"527 297 OFFCURVE",
"570 297 CURVE SMOOTH",
"610 297 OFFCURVE",
"629 277 OFFCURVE",
"627 236 CURVE SMOOTH",
"625 197 OFFCURVE",
"603 153 OFFCURVE",
"561 102 CURVE SMOOTH",
"474 -2 OFFCURVE",
"387 -54 OFFCURVE",
"298 -54 CURVE SMOOTH",
"249 -54 OFFCURVE",
"213 -37 OFFCURVE",
"189 -2 CURVE SMOOTH",
"169 28 OFFCURVE",
"159 69 OFFCURVE",
"162 120 CURVE SMOOTH",
"166 191 OFFCURVE",
"193 268 OFFCURVE",
"244 349 CURVE",
"263 346 OFFCURVE",
"284 345 OFFCURVE",
"305 345 CURVE SMOOTH",
"462 345 OFFCURVE",
"592 383 OFFCURVE",
"696 459 CURVE SMOOTH"
);
},
{
closed = 1;
nodes = (
"763 578 OFFCURVE",
"735 538 OFFCURVE",
"680 498 CURVE SMOOTH",
"596 437 OFFCURVE",
"506 397 OFFCURVE",
"410 379 CURVE SMOOTH",
"375 373 OFFCURVE",
"341 370 OFFCURVE",
"307 370 CURVE SMOOTH",
"292 370 OFFCURVE",
"276 371 OFFCURVE",
"260 373 CURVE",
"299 430 OFFCURVE",
"346 482 OFFCURVE",
"399 528 CURVE",
"414 510 OFFCURVE",
"424 496 OFFCURVE",
"431 487 CURVE SMOOTH",
"434 482 OFFCURVE",
"439 480 OFFCURVE",
"445 481 CURVE SMOOTH",
"450 482 OFFCURVE",
"452 485 OFFCURVE",
"449 490 CURVE SMOOTH",
"440 509 OFFCURVE",
"429 526 OFFCURVE",
"417 543 CURVE",
"515 622 OFFCURVE",
"608 662 OFFCURVE",
"697 662 CURVE SMOOTH",
"744 662 OFFCURVE",
"767 647 OFFCURVE",
"765 617 CURVE SMOOTH"
);
},
{
closed = 1;
nodes = (
"278 524 OFFCURVE",
"219 464 OFFCURVE",
"173 394 CURVE",
"86 426 OFFCURVE",
"45 477 OFFCURVE",
"49 547 CURVE SMOOTH",
"51 578 OFFCURVE",
"64 602 OFFCURVE",
"89 619 CURVE SMOOTH",
"111 634 OFFCURVE",
"138 642 OFFCURVE",
"170 642 CURVE SMOOTH",
"233 642 OFFCURVE",
"294 619 OFFCURVE",
"351 574 CURVE"
);
},
{
closed = 1;
nodes = (
"399 -158 OFFCURVE",
"385 -138 OFFCURVE",
"356 -124 CURVE SMOOTH",
"333 -113 OFFCURVE",
"308 -107 OFFCURVE",
"280 -107 CURVE SMOOTH",
"267 -107 OFFCURVE",
"254 -108 OFFCURVE",
"241 -110 CURVE",
"241 -109 OFFCURVE",
"256 -97 OFFCURVE",
"285 -75 CURVE",
"283 -70 OFFCURVE",
"280 -67 OFFCURVE",
"277 -67 CURVE SMOOTH",
"276 -67 OFFCURVE",
"263 -76 OFFCURVE",
"240 -94 CURVE SMOOTH",
"217 -111 OFFCURVE",
"203 -122 OFFCURVE",
"200 -125 CURVE SMOOTH",
"197 -128 OFFCURVE",
"196 -131 OFFCURVE",
"196 -134 CURVE SMOOTH",
"196 -144 OFFCURVE",
"202 -149 OFFCURVE",
"215 -149 CURVE SMOOTH",
"216 -149 OFFCURVE",
"224 -145 OFFCURVE",
"241 -137 CURVE SMOOTH",
"257 -129 OFFCURVE",
"272 -125 OFFCURVE",
"287 -125 CURVE SMOOTH",
"306 -125 OFFCURVE",
"323 -130 OFFCURVE",
"337 -139 CURVE SMOOTH",
"354 -150 OFFCURVE",
"362 -164 OFFCURVE",
"362 -182 CURVE SMOOTH",
"362 -195 OFFCURVE",
"358 -208 OFFCURVE",
"348 -223 CURVE SMOOTH",
"332 -247 OFFCURVE",
"300 -259 OFFCURVE",
"252 -259 CURVE SMOOTH",
"211 -259 OFFCURVE",
"182 -251 OFFCURVE",
"166 -234 CURVE SMOOTH",
"159 -227 OFFCURVE",
"154 -223 OFFCURVE",
"151 -223 CURVE SMOOTH",
"147 -223 OFFCURVE",
"145 -225 OFFCURVE",
"145 -230 CURVE SMOOTH",
"145 -245 OFFCURVE",
"163 -257 OFFCURVE",
"199 -266 CURVE SMOOTH",
"225 -272 OFFCURVE",
"249 -276 OFFCURVE",
"271 -276 CURVE SMOOTH",
"305 -276 OFFCURVE",
"330 -270 OFFCURVE",
"347 -259 CURVE SMOOTH",
"382 -236 OFFCURVE",
"399 -210 OFFCURVE",
"399 -183 CURVE SMOOTH"
);
}
);
width = 678;
}
);
note = Ccedilla;
unicode = 00C7;
},
{
glyphname = D;
lastChange = "2021-05-11 19:30:45 +0000";
layers = (
{
hints = (
{
horizontal = 1;
place = "{-50, 20}";
type = Stem;
},
{
horizontal = 1;
place = "{-14, 98}";
type = Stem;
},
{
horizontal = 1;
place = "{180, 12}";
type = Stem;
},
{
horizontal = 1;
place = "{302, 14}";
type = Stem;
},
{
horizontal = 1;
place = "{694, 20}";
type = Stem;
},
{
horizontal = 1;
place = "{738, 16}";
type = Stem;
},
{
place = "{10, 42}";
type = Stem;
},
{
place = "{260, 42}";
type = Stem;
},
{
place = "{730, 72}";
type = Stem;
}
);
layerId = "3191725B-F824-48C7-90A0-BAE99CBF9356";
paths = (
{
closed = 1;
nodes = (
"800 386 OFFCURVE",
"800 400 OFFCURVE",
"800 413 CURVE SMOOTH",
"800 482 OFFCURVE",
"782 541 OFFCURVE",
"745 590 CURVE SMOOTH",
"712 635 OFFCURVE",
"665 668 OFFCURVE",
"606 689 CURVE",
"640 722 OFFCURVE",
"676 738 OFFCURVE",
"713 738 CURVE SMOOTH",
"726 738 OFFCURVE",
"738 736 OFFCURVE",
"749 731 CURVE SMOOTH",
"752 730 OFFCURVE",
"754 731 OFFCURVE",
"756 735 CURVE SMOOTH",
"757 738 OFFCURVE",
"756 741 OFFCURVE",
"751 743 CURVE SMOOTH",
"734 750 OFFCURVE",
"717 754 OFFCURVE",
"698 754 CURVE SMOOTH",
"653 754 OFFCURVE",
"610 736 OFFCURVE",
"569 700 CURVE",
"535 709 OFFCURVE",
"499 713 OFFCURVE",
"462 713 CURVE SMOOTH",
"338 713 OFFCURVE",
"229 674 OFFCURVE",
"135 597 CURVE SMOOTH",
"51 528 OFFCURVE",
"9 461 OFFCURVE",
"9 396 CURVE SMOOTH",
"9 367 OFFCURVE",
"18 344 OFFCURVE",
"36 327 CURVE SMOOTH",
"53 310 OFFCURVE",
"76 301 OFFCURVE",
"104 301 CURVE SMOOTH",
"139 301 OFFCURVE",
"176 315 OFFCURVE",
"215 341 CURVE SMOOTH",
"264 375 OFFCURVE",
"299 421 OFFCURVE",
"319 481 CURVE SMOOTH",
"321 486 OFFCURVE",
"319 488 OFFCURVE",
"316 489 CURVE",
"313 489 OFFCURVE",
"310 486 OFFCURVE",
"308 481 CURVE SMOOTH",
"290 434 OFFCURVE",
"257 395 OFFCURVE",
"210 363 CURVE SMOOTH",
"163 331 OFFCURVE",
"126 315 OFFCURVE",
"97 315 CURVE SMOOTH",
"66 315 OFFCURVE",
"50 332 OFFCURVE",
"50 365 CURVE SMOOTH",
"50 394 OFFCURVE",
"62 427 OFFCURVE",
"86 465 CURVE SMOOTH",
"113 508 OFFCURVE",
"149 548 OFFCURVE",
"195 586 CURVE SMOOTH",
"282 658 OFFCURVE",
"371 694 OFFCURVE",
"464 694 CURVE SMOOTH",
"494 694 OFFCURVE",
"522 690 OFFCURVE",
"549 681 CURVE",
"521 650 OFFCURVE",
"480 579 OFFCURVE",
"427 469 CURVE SMOOTH",
"405 423 OFFCURVE",
"383 370 OFFCURVE",
"355 313 CURVE SMOOTH",
"293 189 OFFCURVE",
"244 110 OFFCURVE",
"215 73 CURVE SMOOTH",
"174 20 OFFCURVE",
"126 -13 OFFCURVE",
"71 -28 CURVE SMOOTH",
"64 -30 OFFCURVE",
"56 -31 OFFCURVE",
"48 -31 CURVE SMOOTH",
"17 -31 OFFCURVE",
"-2 -21 OFFCURVE",
"-9 -2 CURVE",
"0 -10 OFFCURVE",
"10 -14 OFFCURVE",
"22 -14 CURVE SMOOTH",
"35 -14 OFFCURVE",
"47 -9 OFFCURVE",
"58 1 CURVE SMOOTH",
"69 10 OFFCURVE",
"75 22 OFFCURVE",
"77 35 CURVE SMOOTH",
"79 48 OFFCURVE",
"75 60 OFFCURVE",
"67 70 CURVE SMOOTH",
"59 79 OFFCURVE",
"48 84 OFFCURVE",
"34 84 CURVE SMOOTH",
"15 84 OFFCURVE",
"-2 76 OFFCURVE",
"-16 61 CURVE SMOOTH",
"-29 46 OFFCURVE",
"-36 28 OFFCURVE",
"-35 8 CURVE SMOOTH",
"-33 -40 OFFCURVE",
"2 -62 OFFCURVE",
"69 -57 CURVE SMOOTH",
"133 -52 OFFCURVE",
"199 -18 OFFCURVE",
"267 47 CURVE",
"262 36 OFFCURVE",
"260 26 OFFCURVE",
"260 16 CURVE SMOOTH",
"260 -27 OFFCURVE",
"294 -49 OFFCURVE",
"361 -49 CURVE SMOOTH",
"370 -49 OFFCURVE",
"379 -48 OFFCURVE",
"389 -47 CURVE SMOOTH",
"498 -37 OFFCURVE",
"591 8 OFFCURVE",
"668 90 CURVE SMOOTH",
"743 169 OFFCURVE",
"787 263 OFFCURVE",
"798 371 CURVE SMOOTH"
);
},
{
closed = 1;
nodes = (
"712 256 OFFCURVE",
"678 171 OFFCURVE",
"622 102 CURVE SMOOTH",
"559 25 OFFCURVE",
"480 -19 OFFCURVE",
"385 -29 CURVE SMOOTH",
"330 -35 OFFCURVE",
"302 -20 OFFCURVE",
"302 14 CURVE SMOOTH",
"302 41 OFFCURVE",
"324 73 OFFCURVE",
"368 112 CURVE SMOOTH",
"394 135 OFFCURVE",
"430 153 OFFCURVE",
"475 166 CURVE SMOOTH",
"518 178 OFFCURVE",
"555 183 OFFCURVE",
"588 180 CURVE SMOOTH",
"596 179 OFFCURVE",
"600 181 OFFCURVE",
"600 186 CURVE SMOOTH",
"600 189 OFFCURVE",
"598 191 OFFCURVE",
"593 191 CURVE SMOOTH",
"552 194 OFFCURVE",
"510 190 OFFCURVE",
"467 181 CURVE SMOOTH",
"416 171 OFFCURVE",
"375 155 OFFCURVE",
"343 132 CURVE SMOOTH",
"341 131 LINE",
"362 160 OFFCURVE",
"380 186 OFFCURVE",
"393 212 CURVE SMOOTH",
"420 266 OFFCURVE",
"439 309 OFFCURVE",
"450 340 CURVE SMOOTH",
"467 387 OFFCURVE",
"482 435 OFFCURVE",
"499 482 CURVE SMOOTH",
"533 576 OFFCURVE",
"563 637 OFFCURVE",
"586 667 CURVE",
"681 621 OFFCURVE",
"729 536 OFFCURVE",
"729 413 CURVE SMOOTH",
"729 394 OFFCURVE",
"728 375 OFFCURVE",
"725 355 CURVE SMOOTH"
);
}
);
width = 765;
}
);
note = D;
unicode = 0044;
},
{
glyphname = E;
lastChange = "2021-05-11 19:30:45 +0000";
layers = (
{
hints = (
{
horizontal = 1;
place = "{-64, 14}";
type = Stem;
},
{
horizontal = 1;
place = "{220, 26}";
type = Stem;
},
{
horizontal = 1;
place = "{330, 50}";
type = Stem;
},
{
horizontal = 1;
place = "{658, 28}";
type = Stem;
},
{
horizontal = 1;
place = "{690, 14}";
type = Stem;
},
{
place = "{8, 54}";
type = Stem;
},
{
place = "{528, 52}";
type = Stem;
},
{
place = "{672, 24}";
type = Stem;
}
);
layerId = "3191725B-F824-48C7-90A0-BAE99CBF9356";
paths = (
{
closed = 1;
nodes = (
"668 526 OFFCURVE",
"695 564 OFFCURVE",
"695 603 CURVE SMOOTH",
"695 627 OFFCURVE",
"684 647 OFFCURVE",
"661 662 CURVE SMOOTH",
"639 677 OFFCURVE",
"610 685 OFFCURVE",
"573 685 CURVE SMOOTH",
"557 685 OFFCURVE",
"540 684 OFFCURVE",
"523 681 CURVE SMOOTH",
"439 667 OFFCURVE",
"375 637 OFFCURVE",
"330 592 CURVE SMOOTH",
"292 554 OFFCURVE",
"273 511 OFFCURVE",
"273 464 CURVE SMOOTH",
"273 451 OFFCURVE",
"274 439 OFFCURVE",
"277 427 CURVE",
"249 428 OFFCURVE",
"222 432 OFFCURVE",
"197 438 CURVE SMOOTH",
"153 448 OFFCURVE",
"119 467 OFFCURVE",
"94 495 CURVE SMOOTH",
"72 520 OFFCURVE",
"61 547 OFFCURVE",
"61 578 CURVE SMOOTH",
"61 611 OFFCURVE",
"73 638 OFFCURVE",
"98 659 CURVE SMOOTH",
"125 682 OFFCURVE",
"162 692 OFFCURVE",
"208 690 CURVE SMOOTH",
"252 688 OFFCURVE",
"296 676 OFFCURVE",
"340 655 CURVE SMOOTH",
"344 653 OFFCURVE",
"347 654 OFFCURVE",
"349 658 CURVE SMOOTH",
"350 662 OFFCURVE",
"349 665 OFFCURVE",
"346 667 CURVE",
"300 689 OFFCURVE",
"254 701 OFFCURVE",
"209 703 CURVE SMOOTH",
"147 706 OFFCURVE",
"98 694 OFFCURVE",
"60 668 CURVE SMOOTH",
"26 644 OFFCURVE",
"8 614 OFFCURVE",
"8 577 CURVE SMOOTH",
"8 544 OFFCURVE",
"22 515 OFFCURVE",
"50 488 CURVE SMOOTH",
"81 458 OFFCURVE",
"124 437 OFFCURVE",
"179 424 CURVE SMOOTH",
"210 417 OFFCURVE",
"244 412 OFFCURVE",
"282 411 CURVE",
"287 399 OFFCURVE",
"293 388 OFFCURVE",
"301 377 CURVE",
"211 368 OFFCURVE",
"139 337 OFFCURVE",
"85 285 CURVE SMOOTH",
"36 238 OFFCURVE",
"11 184 OFFCURVE",
"11 125 CURVE SMOOTH",
"11 72 OFFCURVE",
"31 28 OFFCURVE",
"72 -6 CURVE SMOOTH",
"117 -44 OFFCURVE",
"180 -63 OFFCURVE",
"261 -63 CURVE SMOOTH",
"345 -63 OFFCURVE",
"420 -36 OFFCURVE",
"487 17 CURVE SMOOTH",
"548 66 OFFCURVE",
"579 115 OFFCURVE",
"579 165 CURVE SMOOTH",
"579 218 OFFCURVE",
"540 244 OFFCURVE",
"463 244 CURVE SMOOTH",
"451 244 OFFCURVE",
"439 243 OFFCURVE",
"426 242 CURVE SMOOTH",
"372 237 OFFCURVE",
"318 213 OFFCURVE",
"263 172 CURVE SMOOTH",
"218 139 OFFCURVE",
"190 110 OFFCURVE",
"179 85 CURVE",
"178 81 OFFCURVE",
"179 78 OFFCURVE",
"183 76 CURVE SMOOTH",
"187 74 OFFCURVE",
"190 75 OFFCURVE",
"191 79 CURVE",
"200 99 OFFCURVE",
"230 127 OFFCURVE",
"279 161 CURVE SMOOTH",
"335 200 OFFCURVE",
"380 219 OFFCURVE",
"415 219 CURVE SMOOTH",
"490 219 OFFCURVE",
"527 195 OFFCURVE",
"527 147 CURVE SMOOTH",
"527 104 OFFCURVE",
"500 62 OFFCURVE",
"447 19 CURVE SMOOTH",
"390 -27 OFFCURVE",
"328 -50 OFFCURVE",
"261 -50 CURVE SMOOTH",
"212 -50 OFFCURVE",
"173 -34 OFFCURVE",
"146 -1 CURVE SMOOTH",
"121 28 OFFCURVE",
"109 66 OFFCURVE",
"109 112 CURVE SMOOTH",
"109 170 OFFCURVE",
"127 223 OFFCURVE",
"162 271 CURVE SMOOTH",
"201 323 OFFCURVE",
"251 354 OFFCURVE",
"313 364 CURVE",
"336 341 OFFCURVE",
"365 329 OFFCURVE",
"399 329 CURVE SMOOTH",
"425 329 OFFCURVE",
"438 337 OFFCURVE",
"438 352 CURVE SMOOTH",
"438 368 OFFCURVE",
"426 377 OFFCURVE",
"402 379 CURVE SMOOTH",
"379 380 OFFCURVE",
"356 381 OFFCURVE",
"334 380 CURVE",
"330 389 OFFCURVE",
"327 399 OFFCURVE",
"326 411 CURVE",
"450 415 OFFCURVE",
"546 441 OFFCURVE",
"614 488 CURVE SMOOTH"
);
},
{
closed = 1;
nodes = (
"517 460 OFFCURVE",
"430 433 OFFCURVE",
"326 428 CURVE",
"330 481 OFFCURVE",
"357 531 OFFCURVE",
"408 576 CURVE SMOOTH",
"470 631 OFFCURVE",
"534 658 OFFCURVE",
"599 658 CURVE SMOOTH",
"648 658 OFFCURVE",
"672 643 OFFCURVE",
"672 613 CURVE SMOOTH",
"672 584 OFFCURVE",
"644 549 OFFCURVE",
"587 509 CURVE SMOOTH"
);
}
);
width = 586;
}
);
note = E;
unicode = 0045;
},
{
glyphname = Eacute;
lastChange = "2021-05-11 19:30:45 +0000";
layers = (
{
hints = (
{
horizontal = 1;
place = "{-64, 14}";
type = Stem;
},
{
horizontal = 1;
place = "{220, 26}";
type = Stem;
},
{
horizontal = 1;
place = "{330, 50}";
type = Stem;
},
{
horizontal = 1;
place = "{658, 28}";
type = Stem;
},
{
horizontal = 1;
place = "{690, 14}";
type = Stem;
},
{
place = "{8, 54}";
type = Stem;
},
{
place = "{528, 52}";
type = Stem;
},
{
place = "{672, 24}";
type = Stem;
}
);
layerId = "3191725B-F824-48C7-90A0-BAE99CBF9356";
paths = (
{
closed = 1;
nodes = (
"668 526 OFFCURVE",
"695 564 OFFCURVE",
"695 603 CURVE SMOOTH",
"695 627 OFFCURVE",
"684 647 OFFCURVE",
"661 662 CURVE SMOOTH",
"639 677 OFFCURVE",
"610 685 OFFCURVE",
"573 685 CURVE SMOOTH",
"557 685 OFFCURVE",
"540 684 OFFCURVE",
"523 681 CURVE SMOOTH",
"439 667 OFFCURVE",
"375 637 OFFCURVE",
"330 592 CURVE SMOOTH",
"292 554 OFFCURVE",
"273 511 OFFCURVE",
"273 464 CURVE SMOOTH",
"273 451 OFFCURVE",
"274 439 OFFCURVE",
"277 427 CURVE",
"249 428 OFFCURVE",
"222 432 OFFCURVE",
"197 438 CURVE SMOOTH",
"153 448 OFFCURVE",
"119 467 OFFCURVE",
"94 495 CURVE SMOOTH",
"72 520 OFFCURVE",
"61 547 OFFCURVE",
"61 578 CURVE SMOOTH",
"61 611 OFFCURVE",
"73 638 OFFCURVE",
"98 659 CURVE SMOOTH",
"125 682 OFFCURVE",
"162 692 OFFCURVE",
"208 690 CURVE SMOOTH",
"252 688 OFFCURVE",
"296 676 OFFCURVE",
"340 655 CURVE SMOOTH",
"344 653 OFFCURVE",
"347 654 OFFCURVE",
"349 658 CURVE SMOOTH",
"350 662 OFFCURVE",
"349 665 OFFCURVE",
"346 667 CURVE",
"300 689 OFFCURVE",
"254 701 OFFCURVE",
"209 703 CURVE SMOOTH",
"147 706 OFFCURVE",
"98 694 OFFCURVE",
"60 668 CURVE SMOOTH",
"26 644 OFFCURVE",
"8 614 OFFCURVE",
"8 577 CURVE SMOOTH",
"8 544 OFFCURVE",
"22 515 OFFCURVE",
"50 488 CURVE SMOOTH",
"81 458 OFFCURVE",
"124 437 OFFCURVE",
"179 424 CURVE SMOOTH",
"210 417 OFFCURVE",
"244 412 OFFCURVE",
"282 411 CURVE",
"287 399 OFFCURVE",
"293 388 OFFCURVE",
"301 377 CURVE",
"211 368 OFFCURVE",
"139 337 OFFCURVE",
"85 285 CURVE SMOOTH",
"36 238 OFFCURVE",
"11 184 OFFCURVE",
"11 125 CURVE SMOOTH",
"11 72 OFFCURVE",
"31 28 OFFCURVE",
"72 -6 CURVE SMOOTH",
"117 -44 OFFCURVE",
"180 -63 OFFCURVE",
"261 -63 CURVE SMOOTH",
"345 -63 OFFCURVE",
"420 -36 OFFCURVE",
"487 17 CURVE SMOOTH",
"548 66 OFFCURVE",
"579 115 OFFCURVE",
"579 165 CURVE SMOOTH",
"579 218 OFFCURVE",
"540 244 OFFCURVE",
"463 244 CURVE SMOOTH",
"451 244 OFFCURVE",
"439 243 OFFCURVE",
"426 242 CURVE SMOOTH",
"372 237 OFFCURVE",
"318 213 OFFCURVE",
"263 172 CURVE SMOOTH",
"218 139 OFFCURVE",
"190 110 OFFCURVE",
"179 85 CURVE",
"178 81 OFFCURVE",
"179 78 OFFCURVE",
"183 76 CURVE SMOOTH",
"187 74 OFFCURVE",
"190 75 OFFCURVE",
"191 79 CURVE",
"200 99 OFFCURVE",
"230 127 OFFCURVE",
"279 161 CURVE SMOOTH",
"335 200 OFFCURVE",
"380 219 OFFCURVE",
"415 219 CURVE SMOOTH",
"490 219 OFFCURVE",
"527 195 OFFCURVE",
"527 147 CURVE SMOOTH",
"527 104 OFFCURVE",
"500 62 OFFCURVE",
"447 19 CURVE SMOOTH",
"390 -27 OFFCURVE",
"328 -50 OFFCURVE",
"261 -50 CURVE SMOOTH",
"212 -50 OFFCURVE",
"173 -34 OFFCURVE",
"146 -1 CURVE SMOOTH",
"121 28 OFFCURVE",
"109 66 OFFCURVE",
"109 112 CURVE SMOOTH",
"109 170 OFFCURVE",
"127 223 OFFCURVE",
"162 271 CURVE SMOOTH",
"201 323 OFFCURVE",
"251 354 OFFCURVE",
"313 364 CURVE",
"336 341 OFFCURVE",
"365 329 OFFCURVE",
"399 329 CURVE SMOOTH",
"425 329 OFFCURVE",
"438 337 OFFCURVE",
"438 352 CURVE SMOOTH",
"438 368 OFFCURVE",
"426 377 OFFCURVE",
"402 379 CURVE SMOOTH",
"379 380 OFFCURVE",
"356 381 OFFCURVE",
"334 380 CURVE",
"330 389 OFFCURVE",
"327 399 OFFCURVE",
"326 411 CURVE",
"450 415 OFFCURVE",
"546 441 OFFCURVE",
"614 488 CURVE SMOOTH"
);
},
{
closed = 1;
nodes = (
"517 460 OFFCURVE",
"430 433 OFFCURVE",
"326 428 CURVE",
"330 481 OFFCURVE",
"357 531 OFFCURVE",
"408 576 CURVE SMOOTH",
"470 631 OFFCURVE",
"534 658 OFFCURVE",
"599 658 CURVE SMOOTH",
"648 658 OFFCURVE",
"672 643 OFFCURVE",
"672 613 CURVE SMOOTH",
"672 584 OFFCURVE",
"644 549 OFFCURVE",
"587 509 CURVE SMOOTH"
);
},
{
closed = 1;
nodes = (
"760 842 OFFCURVE",
"757 851 OFFCURVE",
"745 857 CURVE SMOOTH",
"740 860 OFFCURVE",
"734 861 OFFCURVE",
"728 861 CURVE SMOOTH",
"715 861 OFFCURVE",
"702 856 OFFCURVE",
"687 845 CURVE SMOOTH",
"640 810 OFFCURVE",
"599 780 OFFCURVE",
"564 754 CURVE",
"561 748 OFFCURVE",
"562 744 OFFCURVE",
"567 741 CURVE SMOOTH",
"571 739 OFFCURVE",
"602 752 OFFCURVE",
"661 779 CURVE SMOOTH",
"719 806 OFFCURVE",
"750 823 OFFCURVE",
"754 830 CURVE SMOOTH"
);
}
);
width = 586;
}
);
note = Eacute;
unicode = 00C9;
},
{
glyphname = Ecircumflex;
lastChange = "2021-05-11 19:30:45 +0000";
layers = (
{
hints = (
{
horizontal = 1;
place = "{-64, 14}";
type = Stem;
},
{
horizontal = 1;
place = "{220, 26}";
type = Stem;
},
{
horizontal = 1;
place = "{330, 50}";
type = Stem;
},
{
horizontal = 1;
place = "{658, 28}";
type = Stem;
},
{
horizontal = 1;
place = "{690, 14}";
type = Stem;
},
{
place = "{8, 54}";
type = Stem;
},
{
place = "{528, 52}";
type = Stem;
},
{
place = "{672, 24}";
type = Stem;
},
{
horizontal = 1;
place = "{718, 20}";
type = Stem;
}
);
layerId = "3191725B-F824-48C7-90A0-BAE99CBF9356";
paths = (
{
closed = 1;
nodes = (
"668 526 OFFCURVE",
"695 564 OFFCURVE",
"695 603 CURVE SMOOTH",
"695 627 OFFCURVE",
"684 647 OFFCURVE",
"661 662 CURVE SMOOTH",
"639 677 OFFCURVE",
"610 685 OFFCURVE",
"573 685 CURVE SMOOTH",
"557 685 OFFCURVE",
"540 684 OFFCURVE",
"523 681 CURVE SMOOTH",
"439 667 OFFCURVE",
"375 637 OFFCURVE",
"330 592 CURVE SMOOTH",
"292 554 OFFCURVE",
"273 511 OFFCURVE",
"273 464 CURVE SMOOTH",
"273 451 OFFCURVE",
"274 439 OFFCURVE",
"277 427 CURVE",
"249 428 OFFCURVE",
"222 432 OFFCURVE",
"197 438 CURVE SMOOTH",
"153 448 OFFCURVE",
"119 467 OFFCURVE",
"94 495 CURVE SMOOTH",
"72 520 OFFCURVE",
"61 547 OFFCURVE",
"61 578 CURVE SMOOTH",
"61 611 OFFCURVE",
"73 638 OFFCURVE",
"98 659 CURVE SMOOTH",
"125 682 OFFCURVE",
"162 692 OFFCURVE",
"208 690 CURVE SMOOTH",
"252 688 OFFCURVE",
"296 676 OFFCURVE",
"340 655 CURVE SMOOTH",
"344 653 OFFCURVE",
"347 654 OFFCURVE",
"349 658 CURVE SMOOTH",
"350 662 OFFCURVE",
"349 665 OFFCURVE",
"346 667 CURVE",
"300 689 OFFCURVE",
"254 701 OFFCURVE",
"209 703 CURVE SMOOTH",
"147 706 OFFCURVE",
"98 694 OFFCURVE",
"60 668 CURVE SMOOTH",
"26 644 OFFCURVE",
"8 614 OFFCURVE",
"8 577 CURVE SMOOTH",
"8 544 OFFCURVE",
"22 515 OFFCURVE",
"50 488 CURVE SMOOTH",
"81 458 OFFCURVE",
"124 437 OFFCURVE",
"179 424 CURVE SMOOTH",
"210 417 OFFCURVE",
"244 412 OFFCURVE",
"282 411 CURVE",
"287 399 OFFCURVE",
"293 388 OFFCURVE",
"301 377 CURVE",
"211 368 OFFCURVE",
"139 337 OFFCURVE",
"85 285 CURVE SMOOTH",
"36 238 OFFCURVE",
"11 184 OFFCURVE",
"11 125 CURVE SMOOTH",
"11 72 OFFCURVE",
"31 28 OFFCURVE",
"72 -6 CURVE SMOOTH",
"117 -44 OFFCURVE",
"180 -63 OFFCURVE",
"261 -63 CURVE SMOOTH",
"345 -63 OFFCURVE",
"420 -36 OFFCURVE",
"487 17 CURVE SMOOTH",
"548 66 OFFCURVE",
"579 115 OFFCURVE",
"579 165 CURVE SMOOTH",
"579 218 OFFCURVE",
"540 244 OFFCURVE",
"463 244 CURVE SMOOTH",
"451 244 OFFCURVE",
"439 243 OFFCURVE",
"426 242 CURVE SMOOTH",
"372 237 OFFCURVE",
"318 213 OFFCURVE",
"263 172 CURVE SMOOTH",
"218 139 OFFCURVE",
"190 110 OFFCURVE",
"179 85 CURVE",
"178 81 OFFCURVE",
"179 78 OFFCURVE",
"183 76 CURVE SMOOTH",
"187 74 OFFCURVE",
"190 75 OFFCURVE",
"191 79 CURVE",
"200 99 OFFCURVE",
"230 127 OFFCURVE",
"279 161 CURVE SMOOTH",
"335 200 OFFCURVE",
"380 219 OFFCURVE",
"415 219 CURVE SMOOTH",
"490 219 OFFCURVE",
"527 195 OFFCURVE",
"527 147 CURVE SMOOTH",
"527 104 OFFCURVE",
"500 62 OFFCURVE",
"447 19 CURVE SMOOTH",
"390 -27 OFFCURVE",
"328 -50 OFFCURVE",
"261 -50 CURVE SMOOTH",
"212 -50 OFFCURVE",
"173 -34 OFFCURVE",
"146 -1 CURVE SMOOTH",
"121 28 OFFCURVE",
"109 66 OFFCURVE",
"109 112 CURVE SMOOTH",
"109 170 OFFCURVE",
"127 223 OFFCURVE",
"162 271 CURVE SMOOTH",
"201 323 OFFCURVE",
"251 354 OFFCURVE",
"313 364 CURVE",
"336 341 OFFCURVE",
"365 329 OFFCURVE",
"399 329 CURVE SMOOTH",
"425 329 OFFCURVE",
"438 337 OFFCURVE",
"438 352 CURVE SMOOTH",
"438 368 OFFCURVE",
"426 377 OFFCURVE",
"402 379 CURVE SMOOTH",
"379 380 OFFCURVE",
"356 381 OFFCURVE",
"334 380 CURVE",
"330 389 OFFCURVE",
"327 399 OFFCURVE",
"326 411 CURVE",
"450 415 OFFCURVE",
"546 441 OFFCURVE",
"614 488 CURVE SMOOTH"
);
},
{
closed = 1;
nodes = (
"517 460 OFFCURVE",
"430 433 OFFCURVE",
"326 428 CURVE",
"330 481 OFFCURVE",
"357 531 OFFCURVE",
"408 576 CURVE SMOOTH",
"470 631 OFFCURVE",
"534 658 OFFCURVE",
"599 658 CURVE SMOOTH",
"648 658 OFFCURVE",
"672 643 OFFCURVE",
"672 613 CURVE SMOOTH",
"672 584 OFFCURVE",
"644 549 OFFCURVE",
"587 509 CURVE SMOOTH"
);
},
{
closed = 1;
nodes = (
"665 854 LINE SMOOTH",
"664 858 OFFCURVE",
"648 858 OFFCURVE",
"618 854 CURVE",
"435 724 LINE SMOOTH",
"434 723 OFFCURVE",
"434 722 OFFCURVE",
"434 721 CURVE SMOOTH",
"434 718 OFFCURVE",
"438 718 OFFCURVE",
"446 718 CURVE SMOOTH",
"455 718 OFFCURVE",
"461 720 OFFCURVE",
"466 724 CURVE",
"628 811 LINE",
"684 724 LINE SMOOTH",
"686 721 OFFCURVE",
"689 719 OFFCURVE",
"694 718 CURVE SMOOTH",
"699 717 OFFCURVE",
"703 716 OFFCURVE",
"706 717 CURVE SMOOTH",
"709 718 OFFCURVE",
"710 721 OFFCURVE",
"709 724 CURVE SMOOTH"
);
}
);
width = 586;
}
);
note = Ecircumflex;
unicode = 00CA;
},
{
glyphname = Edieresis;
lastChange = "2021-05-11 19:30:45 +0000";
layers = (
{
hints = (
{
horizontal = 1;
place = "{-64, 14}";
type = Stem;
},
{
horizontal = 1;
place = "{220, 26}";
type = Stem;
},
{
horizontal = 1;
place = "{330, 50}";
type = Stem;
},
{
horizontal = 1;
place = "{658, 28}";
type = Stem;
},
{
horizontal = 1;
place = "{690, 14}";
type = Stem;
},
{
place = "{8, 54}";
type = Stem;
},
{
place = "{528, 52}";
type = Stem;
},
{
place = "{672, 24}";
type = Stem;
},
{
horizontal = 1;
place = "{742, 66}";
type = Stem;
},
{
place = "{494, 66}";
type = Stem;
},
{
place = "{624, 66}";
type = Stem;
}
);
layerId = "3191725B-F824-48C7-90A0-BAE99CBF9356";
paths = (
{
closed = 1;
nodes = (
"668 526 OFFCURVE",
"695 564 OFFCURVE",
"695 603 CURVE SMOOTH",
"695 627 OFFCURVE",
"684 647 OFFCURVE",
"661 662 CURVE SMOOTH",
"639 677 OFFCURVE",
"610 685 OFFCURVE",
"573 685 CURVE SMOOTH",
"557 685 OFFCURVE",
"540 684 OFFCURVE",
"523 681 CURVE SMOOTH",
"439 667 OFFCURVE",
"375 637 OFFCURVE",
"330 592 CURVE SMOOTH",
"292 554 OFFCURVE",
"273 511 OFFCURVE",
"273 464 CURVE SMOOTH",
"273 451 OFFCURVE",
"274 439 OFFCURVE",
"277 427 CURVE",
"249 428 OFFCURVE",
"222 432 OFFCURVE",
"197 438 CURVE SMOOTH",
"153 448 OFFCURVE",
"119 467 OFFCURVE",
"94 495 CURVE SMOOTH",
"72 520 OFFCURVE",
"61 547 OFFCURVE",
"61 578 CURVE SMOOTH",
"61 611 OFFCURVE",
"73 638 OFFCURVE",
"98 659 CURVE SMOOTH",
"125 682 OFFCURVE",
"162 692 OFFCURVE",
"208 690 CURVE SMOOTH",
"252 688 OFFCURVE",
"296 676 OFFCURVE",
"340 655 CURVE SMOOTH",
"344 653 OFFCURVE",
"347 654 OFFCURVE",
"349 658 CURVE SMOOTH",
"350 662 OFFCURVE",
"349 665 OFFCURVE",
"346 667 CURVE",
"300 689 OFFCURVE",
"254 701 OFFCURVE",
"209 703 CURVE SMOOTH",
"147 706 OFFCURVE",
"98 694 OFFCURVE",
"60 668 CURVE SMOOTH",
"26 644 OFFCURVE",
"8 614 OFFCURVE",
"8 577 CURVE SMOOTH",
"8 544 OFFCURVE",
"22 515 OFFCURVE",
"50 488 CURVE SMOOTH",
"81 458 OFFCURVE",
"124 437 OFFCURVE",
"179 424 CURVE SMOOTH",
"210 417 OFFCURVE",
"244 412 OFFCURVE",
"282 411 CURVE",
"287 399 OFFCURVE",
"293 388 OFFCURVE",
"301 377 CURVE",
"211 368 OFFCURVE",
"139 337 OFFCURVE",
"85 285 CURVE SMOOTH",
"36 238 OFFCURVE",
"11 184 OFFCURVE",
"11 125 CURVE SMOOTH",
"11 72 OFFCURVE",
"31 28 OFFCURVE",
"72 -6 CURVE SMOOTH",
"117 -44 OFFCURVE",
"180 -63 OFFCURVE",
"261 -63 CURVE SMOOTH",
"345 -63 OFFCURVE",
"420 -36 OFFCURVE",
"487 17 CURVE SMOOTH",
"548 66 OFFCURVE",
"579 115 OFFCURVE",
"579 165 CURVE SMOOTH",
"579 218 OFFCURVE",
"540 244 OFFCURVE",
"463 244 CURVE SMOOTH",
"451 244 OFFCURVE",
"439 243 OFFCURVE",
"426 242 CURVE SMOOTH",
"372 237 OFFCURVE",
"318 213 OFFCURVE",
"263 172 CURVE SMOOTH",
"218 139 OFFCURVE",
"190 110 OFFCURVE",
"179 85 CURVE",
"178 81 OFFCURVE",
"179 78 OFFCURVE",
"183 76 CURVE SMOOTH",
"187 74 OFFCURVE",
"190 75 OFFCURVE",
"191 79 CURVE",
"200 99 OFFCURVE",
"230 127 OFFCURVE",
"279 161 CURVE SMOOTH",
"335 200 OFFCURVE",
"380 219 OFFCURVE",
"415 219 CURVE SMOOTH",
"490 219 OFFCURVE",
"527 195 OFFCURVE",
"527 147 CURVE SMOOTH",
"527 104 OFFCURVE",
"500 62 OFFCURVE",
"447 19 CURVE SMOOTH",
"390 -27 OFFCURVE",
"328 -50 OFFCURVE",
"261 -50 CURVE SMOOTH",
"212 -50 OFFCURVE",
"173 -34 OFFCURVE",
"146 -1 CURVE SMOOTH",
"121 28 OFFCURVE",
"109 66 OFFCURVE",
"109 112 CURVE SMOOTH",
"109 170 OFFCURVE",
"127 223 OFFCURVE",
"162 271 CURVE SMOOTH",
"201 323 OFFCURVE",
"251 354 OFFCURVE",
"313 364 CURVE",
"336 341 OFFCURVE",
"365 329 OFFCURVE",
"399 329 CURVE SMOOTH",
"425 329 OFFCURVE",
"438 337 OFFCURVE",
"438 352 CURVE SMOOTH",
"438 368 OFFCURVE",
"426 377 OFFCURVE",
"402 379 CURVE SMOOTH",
"379 380 OFFCURVE",
"356 381 OFFCURVE",
"334 380 CURVE",
"330 389 OFFCURVE",
"327 399 OFFCURVE",
"326 411 CURVE",
"450 415 OFFCURVE",
"546 441 OFFCURVE",
"614 488 CURVE SMOOTH"
);
},
{
closed = 1;
nodes = (
"517 460 OFFCURVE",
"430 433 OFFCURVE",
"326 428 CURVE",
"330 481 OFFCURVE",
"357 531 OFFCURVE",
"408 576 CURVE SMOOTH",
"470 631 OFFCURVE",
"534 658 OFFCURVE",
"599 658 CURVE SMOOTH",
"648 658 OFFCURVE",
"672 643 OFFCURVE",
"672 613 CURVE SMOOTH",
"672 584 OFFCURVE",
"644 549 OFFCURVE",
"587 509 CURVE SMOOTH"
);
},
{
closed = 1;
nodes = (
"689 797 OFFCURVE",
"678 808 OFFCURVE",
"655 808 CURVE SMOOTH",
"634 808 OFFCURVE",
"623 797 OFFCURVE",
"623 775 CURVE SMOOTH",
"623 753 OFFCURVE",
"634 742 OFFCURVE",
"657 742 CURVE SMOOTH",
"678 742 OFFCURVE",
"689 753 OFFCURVE",
"689 775 CURVE SMOOTH"
);
},
{
closed = 1;
nodes = (
"560 797 OFFCURVE",
"549 808 OFFCURVE",
"526 808 CURVE SMOOTH",
"505 808 OFFCURVE",
"494 797 OFFCURVE",
"494 775 CURVE SMOOTH",
"494 753 OFFCURVE",
"505 742 OFFCURVE",
"528 742 CURVE SMOOTH",
"549 742 OFFCURVE",
"560 753 OFFCURVE",
"560 775 CURVE SMOOTH"
);
}
);
width = 586;
}
);
note = Edieresis;
unicode = 00CB;
},
{
glyphname = Egrave;
lastChange = "2021-05-11 19:30:45 +0000";
layers = (
{
hints = (
{
horizontal = 1;
place = "{-64, 14}";
type = Stem;
},
{
horizontal = 1;
place = "{220, 26}";
type = Stem;
},
{
horizontal = 1;
place = "{330, 50}";
type = Stem;
},
{
horizontal = 1;
place = "{658, 28}";
type = Stem;
},
{
horizontal = 1;
place = "{690, 14}";
type = Stem;
},
{
place = "{8, 54}";
type = Stem;
},
{
place = "{528, 52}";
type = Stem;
},
{
place = "{672, 24}";
type = Stem;
}
);
layerId = "3191725B-F824-48C7-90A0-BAE99CBF9356";
paths = (
{
closed = 1;
nodes = (
"668 526 OFFCURVE",
"695 564 OFFCURVE",
"695 603 CURVE SMOOTH",
"695 627 OFFCURVE",
"684 647 OFFCURVE",
"661 662 CURVE SMOOTH",
"639 677 OFFCURVE",
"610 685 OFFCURVE",
"573 685 CURVE SMOOTH",
"557 685 OFFCURVE",
"540 684 OFFCURVE",
"523 681 CURVE SMOOTH",
"439 667 OFFCURVE",
"375 637 OFFCURVE",
"330 592 CURVE SMOOTH",
"292 554 OFFCURVE",
"273 511 OFFCURVE",
"273 464 CURVE SMOOTH",
"273 451 OFFCURVE",
"274 439 OFFCURVE",
"277 427 CURVE",
"249 428 OFFCURVE",
"222 432 OFFCURVE",
"197 438 CURVE SMOOTH",
"153 448 OFFCURVE",
"119 467 OFFCURVE",
"94 495 CURVE SMOOTH",
"72 520 OFFCURVE",
"61 547 OFFCURVE",
"61 578 CURVE SMOOTH",
"61 611 OFFCURVE",
"73 638 OFFCURVE",
"98 659 CURVE SMOOTH",
"125 682 OFFCURVE",
"162 692 OFFCURVE",
"208 690 CURVE SMOOTH",
"252 688 OFFCURVE",
"296 676 OFFCURVE",
"340 655 CURVE SMOOTH",
"344 653 OFFCURVE",
"347 654 OFFCURVE",
"349 658 CURVE SMOOTH",
"350 662 OFFCURVE",
"349 665 OFFCURVE",
"346 667 CURVE",
"300 689 OFFCURVE",
"254 701 OFFCURVE",
"209 703 CURVE SMOOTH",
"147 706 OFFCURVE",
"98 694 OFFCURVE",
"60 668 CURVE SMOOTH",
"26 644 OFFCURVE",
"8 614 OFFCURVE",
"8 577 CURVE SMOOTH",
"8 544 OFFCURVE",
"22 515 OFFCURVE",
"50 488 CURVE SMOOTH",
"81 458 OFFCURVE",
"124 437 OFFCURVE",
"179 424 CURVE SMOOTH",
"210 417 OFFCURVE",
"244 412 OFFCURVE",
"282 411 CURVE",
"287 399 OFFCURVE",
"293 388 OFFCURVE",
"301 377 CURVE",
"211 368 OFFCURVE",
"139 337 OFFCURVE",
"85 285 CURVE SMOOTH",
"36 238 OFFCURVE",
"11 184 OFFCURVE",
"11 125 CURVE SMOOTH",
"11 72 OFFCURVE",
"31 28 OFFCURVE",
"72 -6 CURVE SMOOTH",
"117 -44 OFFCURVE",
"180 -63 OFFCURVE",
"261 -63 CURVE SMOOTH",
"345 -63 OFFCURVE",
"420 -36 OFFCURVE",
"487 17 CURVE SMOOTH",
"548 66 OFFCURVE",
"579 115 OFFCURVE",
"579 165 CURVE SMOOTH",
"579 218 OFFCURVE",
"540 244 OFFCURVE",
"463 244 CURVE SMOOTH",
"451 244 OFFCURVE",
"439 243 OFFCURVE",
"426 242 CURVE SMOOTH",
"372 237 OFFCURVE",
"318 213 OFFCURVE",
"263 172 CURVE SMOOTH",
"218 139 OFFCURVE",
"190 110 OFFCURVE",
"179 85 CURVE",
"178 81 OFFCURVE",
"179 78 OFFCURVE",
"183 76 CURVE SMOOTH",
"187 74 OFFCURVE",
"190 75 OFFCURVE",
"191 79 CURVE",
"200 99 OFFCURVE",
"230 127 OFFCURVE",
"279 161 CURVE SMOOTH",
"335 200 OFFCURVE",
"380 219 OFFCURVE",
"415 219 CURVE SMOOTH",
"490 219 OFFCURVE",
"527 195 OFFCURVE",
"527 147 CURVE SMOOTH",
"527 104 OFFCURVE",
"500 62 OFFCURVE",
"447 19 CURVE SMOOTH",
"390 -27 OFFCURVE",
"328 -50 OFFCURVE",
"261 -50 CURVE SMOOTH",
"212 -50 OFFCURVE",
"173 -34 OFFCURVE",
"146 -1 CURVE SMOOTH",
"121 28 OFFCURVE",
"109 66 OFFCURVE",
"109 112 CURVE SMOOTH",
"109 170 OFFCURVE",
"127 223 OFFCURVE",
"162 271 CURVE SMOOTH",
"201 323 OFFCURVE",
"251 354 OFFCURVE",
"313 364 CURVE",
"336 341 OFFCURVE",
"365 329 OFFCURVE",
"399 329 CURVE SMOOTH",
"425 329 OFFCURVE",
"438 337 OFFCURVE",
"438 352 CURVE SMOOTH",
"438 368 OFFCURVE",
"426 377 OFFCURVE",
"402 379 CURVE SMOOTH",
"379 380 OFFCURVE",
"356 381 OFFCURVE",
"334 380 CURVE",
"330 389 OFFCURVE",
"327 399 OFFCURVE",
"326 411 CURVE",
"450 415 OFFCURVE",
"546 441 OFFCURVE",
"614 488 CURVE SMOOTH"
);
},
{
closed = 1;
nodes = (
"517 460 OFFCURVE",
"430 433 OFFCURVE",
"326 428 CURVE",
"330 481 OFFCURVE",
"357 531 OFFCURVE",
"408 576 CURVE SMOOTH",
"470 631 OFFCURVE",
"534 658 OFFCURVE",
"599 658 CURVE SMOOTH",
"648 658 OFFCURVE",
"672 643 OFFCURVE",
"672 613 CURVE SMOOTH",
"672 584 OFFCURVE",
"644 549 OFFCURVE",
"587 509 CURVE SMOOTH"
);
},
{
closed = 1;
nodes = (
"640 722 OFFCURVE",
"615 744 OFFCURVE",
"564 784 CURVE SMOOTH",
"513 824 OFFCURVE",
"484 844 OFFCURVE",
"475 844 CURVE SMOOTH",
"462 844 OFFCURVE",
"456 837 OFFCURVE",
"456 823 CURVE SMOOTH",
"456 805 OFFCURVE",
"468 790 OFFCURVE",
"493 777 CURVE SMOOTH",
"517 765 OFFCURVE",
"541 753 OFFCURVE",
"565 740 CURVE SMOOTH",
"604 719 OFFCURVE",
"626 709 OFFCURVE",
"630 709 CURVE SMOOTH",
"637 709 OFFCURVE",
"640 712 OFFCURVE",
"640 718 CURVE SMOOTH"
);
}
);
width = 586;
}
);
note = Egrave;
unicode = 00C8;
},
{
glyphname = F;
lastChange = "2021-05-11 19:30:45 +0000";
layers = (
{
hints = (
{
horizontal = 1;
place = "{-44, 20}";
type = Stem;
},
{
horizontal = 1;
place = "{10, 98}";
type = Stem;
},
{
horizontal = 1;
place = "{304, 20}";
type = Stem;
},
{
horizontal = 1;
place = "{350, 18}";
type = Stem;
},
{
horizontal = 1;
place = "{574, 12}";
type = Stem;
},
{
horizontal = 1;
place = "{640, 54}";
type = Stem;
},
{
place = "{20, 46}";
type = Stem;
},
{
place = "{108, 30}";
type = Stem;
},
{
place = "{524, 14}";
type = Stem;
}
);
layerId = "3191725B-F824-48C7-90A0-BAE99CBF9356";
paths = (
{
closed = 1;
nodes = (
"896 675 OFFCURVE",
"897 678 OFFCURVE",
"897 681 CURVE SMOOTH",
"897 685 OFFCURVE",
"895 687 OFFCURVE",
"891 687 CURVE SMOOTH",
"886 687 OFFCURVE",
"883 684 OFFCURVE",
"881 677 CURVE SMOOTH",
"877 660 OFFCURVE",
"859 648 OFFCURVE",
"826 639 CURVE SMOOTH",
"799 632 OFFCURVE",
"772 628 OFFCURVE",
"745 630 CURVE SMOOTH",
"703 632 OFFCURVE",
"632 644 OFFCURVE",
"533 664 CURVE SMOOTH",
"442 683 OFFCURVE",
"371 692 OFFCURVE",
"321 692 CURVE SMOOTH",
"250 692 OFFCURVE",
"187 677 OFFCURVE",
"131 649 CURVE SMOOTH",
"96 631 OFFCURVE",
"68 608 OFFCURVE",
"49 578 CURVE SMOOTH",
"30 549 OFFCURVE",
"20 518 OFFCURVE",
"20 486 CURVE SMOOTH",
"20 449 OFFCURVE",
"32 418 OFFCURVE",
"56 394 CURVE SMOOTH",
"82 367 OFFCURVE",
"120 352 OFFCURVE",
"167 349 CURVE SMOOTH",
"236 345 OFFCURVE",
"298 364 OFFCURVE",
"355 405 CURVE SMOOTH",
"404 441 OFFCURVE",
"441 489 OFFCURVE",
"467 549 CURVE SMOOTH",
"469 554 OFFCURVE",
"468 557 OFFCURVE",
"461 557 CURVE SMOOTH",
"456 557 OFFCURVE",
"451 555 OFFCURVE",
"448 550 CURVE SMOOTH",
"419 497 OFFCURVE",
"381 456 OFFCURVE",
"335 424 CURVE SMOOTH",
"276 383 OFFCURVE",
"220 363 OFFCURVE",
"166 367 CURVE SMOOTH",
"99 372 OFFCURVE",
"66 400 OFFCURVE",
"66 451 CURVE SMOOTH",
"66 475 OFFCURVE",
"74 500 OFFCURVE",
"91 527 CURVE SMOOTH",
"108 553 OFFCURVE",
"130 574 OFFCURVE",
"156 592 CURVE SMOOTH",
"203 623 OFFCURVE",
"263 639 OFFCURVE",
"338 639 CURVE SMOOTH",
"381 639 OFFCURVE",
"443 633 OFFCURVE",
"522 620 CURVE SMOOTH",
"611 606 OFFCURVE",
"672 598 OFFCURVE",
"705 596 CURVE SMOOTH",
"742 594 OFFCURVE",
"777 597 OFFCURVE",
"809 607 CURVE SMOOTH",
"852 620 OFFCURVE",
"880 641 OFFCURVE",
"894 672 CURVE"
);
},
{
closed = 1;
nodes = (
"704 571 OFFCURVE",
"707 573 OFFCURVE",
"708 576 CURVE SMOOTH",
"709 579 OFFCURVE",
"706 581 OFFCURVE",
"701 582 CURVE SMOOTH",
"689 584 OFFCURVE",
"677 585 OFFCURVE",
"666 585 CURVE SMOOTH",
"584 585 OFFCURVE",
"508 525 OFFCURVE",
"445 403 CURVE SMOOTH",
"397 310 LINE",
"306 304 OFFCURVE",
"239 294 OFFCURVE",
"196 279 CURVE SMOOTH",
"137 259 OFFCURVE",
"108 228 OFFCURVE",
"108 186 CURVE SMOOTH",
"108 168 OFFCURVE",
"113 151 OFFCURVE",
"124 134 CURVE SMOOTH",
"135 118 OFFCURVE",
"147 106 OFFCURVE",
"162 98 CURVE",
"165 97 OFFCURVE",
"168 98 OFFCURVE",
"170 101 CURVE SMOOTH",
"172 105 OFFCURVE",
"171 108 OFFCURVE",
"168 110 CURVE SMOOTH",
"147 121 OFFCURVE",
"137 138 OFFCURVE",
"137 163 CURVE SMOOTH",
"137 202 OFFCURVE",
"169 233 OFFCURVE",
"233 255 CURVE SMOOTH",
"275 269 OFFCURVE",
"326 280 OFFCURVE",
"385 288 CURVE",
"350 221 OFFCURVE",
"316 164 OFFCURVE",
"284 116 CURVE SMOOTH",
"257 75 OFFCURVE",
"231 45 OFFCURVE",
"206 26 CURVE SMOOTH",
"179 5 OFFCURVE",
"148 -7 OFFCURVE",
"114 -11 CURVE SMOOTH",
"97 -13 OFFCURVE",
"81 -12 OFFCURVE",
"67 -6 CURVE SMOOTH",
"51 0 OFFCURVE",
"42 10 OFFCURVE",
"40 24 CURVE",
"49 15 OFFCURVE",
"60 10 OFFCURVE",
"72 10 CURVE SMOOTH",
"86 10 OFFCURVE",
"98 15 OFFCURVE",
"109 25 CURVE SMOOTH",
"119 34 OFFCURVE",
"125 46 OFFCURVE",
"126 59 CURVE SMOOTH",
"127 72 OFFCURVE",
"124 84 OFFCURVE",
"115 94 CURVE SMOOTH",
"106 103 OFFCURVE",
"95 108 OFFCURVE",
"82 108 CURVE SMOOTH",
"63 108 OFFCURVE",
"46 100 OFFCURVE",
"33 85 CURVE SMOOTH",
"20 70 OFFCURVE",
"13 52 OFFCURVE",
"15 32 CURVE SMOOTH",
"17 10 OFFCURVE",
"27 -7 OFFCURVE",
"46 -20 CURVE SMOOTH",
"69 -36 OFFCURVE",
"97 -44 OFFCURVE",
"131 -44 CURVE SMOOTH",
"180 -44 OFFCURVE",
"225 -30 OFFCURVE",
"266 -1 CURVE SMOOTH",
"343 54 OFFCURVE",
"410 153 OFFCURVE",
"468 297 CURVE",
"507 300 OFFCURVE",
"530 302 OFFCURVE",
"536 303 CURVE",
"527 280 OFFCURVE",
"522 252 OFFCURVE",
"523 221 CURVE",
"524 217 OFFCURVE",
"526 215 OFFCURVE",
"530 214 CURVE SMOOTH",
"534 214 OFFCURVE",
"536 216 OFFCURVE",
"536 220 CURVE SMOOTH",
"537 250 OFFCURVE",
"543 278 OFFCURVE",
"556 305 CURVE",
"570 307 OFFCURVE",
"581 309 OFFCURVE",
"590 311 CURVE SMOOTH",
"636 325 OFFCURVE",
"659 344 OFFCURVE",
"659 368 CURVE SMOOTH",
"659 383 OFFCURVE",
"651 390 OFFCURVE",
"634 390 CURVE SMOOTH",
"625 390 OFFCURVE",
"616 387 OFFCURVE",
"607 382 CURVE SMOOTH",
"575 365 OFFCURVE",
"553 345 OFFCURVE",
"542 322 CURVE",
"525 320 OFFCURVE",
"503 318 OFFCURVE",
"476 316 CURVE",
"493 360 OFFCURVE",
"506 393 OFFCURVE",
"515 414 CURVE SMOOTH",
"558 521 OFFCURVE",
"613 574 OFFCURVE",
"680 574 CURVE SMOOTH",
"687 574 OFFCURVE",
"694 573 OFFCURVE",
"701 572 CURVE SMOOTH"
);
}
);
width = 571;
}
);
note = F;
unicode = 0046;
},
{
glyphname = G;
lastChange = "2021-05-11 19:30:45 +0000";
layers = (
{
hints = (
{
horizontal = 1;
place = "{-324, 38}";
type = Stem;
},
{
horizontal = 1;
place = "{-268, 98}";
type = Stem;
},
{
horizontal = 1;
place = "{-6, 30}";
type = Stem;
},
{
horizontal = 1;
place = "{394, 22}";
type = Stem;
},
{
horizontal = 1;
place = "{668, 21}";
target = up;
type = BottomGhost;
},
{
place = "{12, 44}";
type = Stem;
},
{
place = "{62, 76}";
type = Stem;
},
{
place = "{720, 38}";
type = Stem;
}
);
layerId = "3191725B-F824-48C7-90A0-BAE99CBF9356";
paths = (
{
closed = 1;
nodes = (
"721 550 OFFCURVE",
"757 597 OFFCURVE",
"757 641 CURVE SMOOTH",
"757 684 OFFCURVE",
"716 705 OFFCURVE",
"634 705 CURVE SMOOTH",
"543 705 OFFCURVE",
"449 677 OFFCURVE",
"352 621 CURVE",
"301 666 OFFCURVE",
"242 688 OFFCURVE",
"173 688 CURVE SMOOTH",
"134 688 OFFCURVE",
"100 680 OFFCURVE",
"70 662 CURVE SMOOTH",
"34 641 OFFCURVE",
"15 612 OFFCURVE",
"12 575 CURVE SMOOTH",
"9 542 OFFCURVE",
"21 510 OFFCURVE",
"48 480 CURVE SMOOTH",
"71 455 OFFCURVE",
"100 435 OFFCURVE",
"135 420 CURVE",
"86 343 OFFCURVE",
"61 265 OFFCURVE",
"61 186 CURVE SMOOTH",
"61 129 OFFCURVE",
"76 84 OFFCURVE",
"105 51 CURVE SMOOTH",
"138 14 OFFCURVE",
"189 -5 OFFCURVE",
"256 -5 CURVE SMOOTH",
"339 -5 OFFCURVE",
"423 56 OFFCURVE",
"506 177 CURVE",
"455 59 OFFCURVE",
"398 -46 OFFCURVE",
"335 -138 CURVE SMOOTH",
"267 -237 OFFCURVE",
"198 -286 OFFCURVE",
"128 -286 CURVE SMOOTH",
"93 -286 OFFCURVE",
"74 -275 OFFCURVE",
"71 -253 CURVE",
"80 -263 OFFCURVE",
"91 -268 OFFCURVE",
"105 -268 CURVE SMOOTH",
"118 -268 OFFCURVE",
"130 -263 OFFCURVE",
"141 -253 CURVE SMOOTH",
"152 -244 OFFCURVE",
"158 -232 OFFCURVE",
"159 -219 CURVE SMOOTH",
"160 -206 OFFCURVE",
"157 -194 OFFCURVE",
"148 -184 CURVE SMOOTH",
"139 -175 OFFCURVE",
"128 -170 OFFCURVE",
"115 -170 CURVE SMOOTH",
"76 -170 OFFCURVE",
"56 -193 OFFCURVE",
"55 -240 CURVE SMOOTH",
"54 -268 OFFCURVE",
"66 -290 OFFCURVE",
"90 -305 CURVE SMOOTH",
"110 -318 OFFCURVE",
"133 -324 OFFCURVE",
"160 -324 CURVE SMOOTH",
"209 -324 OFFCURVE",
"259 -304 OFFCURVE",
"312 -264 CURVE SMOOTH",
"376 -216 OFFCURVE",
"427 -149 OFFCURVE",
"458 -57 CURVE SMOOTH",
"485 24 OFFCURVE",
"507 107 OFFCURVE",
"532 189 CURVE SMOOTH",
"539 210 OFFCURVE",
"544 220 OFFCURVE",
"547 221 CURVE",
"561 234 OFFCURVE",
"572 245 OFFCURVE",
"579 254 CURVE SMOOTH",
"606 287 OFFCURVE",
"619 315 OFFCURVE",
"619 339 CURVE SMOOTH",
"619 361 OFFCURVE",
"610 372 OFFCURVE",
"591 372 CURVE SMOOTH",
"572 372 OFFCURVE",
"556 359 OFFCURVE",
"543 334 CURVE SMOOTH",
"535 317 OFFCURVE",
"529 299 OFFCURVE",
"527 278 CURVE",
"526 276 OFFCURVE",
"525 262 OFFCURVE",
"523 235 CURVE",
"519 228 LINE",
"477 169 OFFCURVE",
"440 124 OFFCURVE",
"408 94 CURVE SMOOTH",
"357 47 OFFCURVE",
"306 24 OFFCURVE",
"256 24 CURVE SMOOTH",
"221 24 OFFCURVE",
"193 36 OFFCURVE",
"170 59 CURVE SMOOTH",
"147 82 OFFCURVE",
"136 115 OFFCURVE",
"136 158 CURVE SMOOTH",
"136 229 OFFCURVE",
"164 309 OFFCURVE",
"221 398 CURVE",
"241 395 OFFCURVE",
"262 394 OFFCURVE",
"285 394 CURVE SMOOTH",
"430 394 OFFCURVE",
"551 429 OFFCURVE",
"650 499 CURVE SMOOTH"
);
},
{
closed = 1;
nodes = (
"698 686 OFFCURVE",
"719 674 OFFCURVE",
"719 649 CURVE SMOOTH",
"719 632 OFFCURVE",
"710 612 OFFCURVE",
"691 588 CURVE SMOOTH",
"674 567 OFFCURVE",
"656 549 OFFCURVE",
"636 535 CURVE SMOOTH",
"557 478 OFFCURVE",
"472 442 OFFCURVE",
"383 425 CURVE SMOOTH",
"351 419 OFFCURVE",
"319 416 OFFCURVE",
"288 416 CURVE SMOOTH",
"271 416 OFFCURVE",
"254 417 OFFCURVE",
"236 420 CURVE",
"275 477 OFFCURVE",
"320 527 OFFCURVE",
"371 570 CURVE",
"387 550 OFFCURVE",
"398 535 OFFCURVE",
"405 524 CURVE SMOOTH",
"408 520 OFFCURVE",
"413 518 OFFCURVE",
"418 519 CURVE SMOOTH",
"423 520 OFFCURVE",
"425 522 OFFCURVE",
"423 527 CURVE SMOOTH",
"414 547 OFFCURVE",
"402 566 OFFCURVE",
"388 583 CURVE",
"477 652 OFFCURVE",
"566 686 OFFCURVE",
"657 686 CURVE SMOOTH"
);
},
{
closed = 1;
nodes = (
"257 562 OFFCURVE",
"197 507 OFFCURVE",
"151 444 CURVE",
"82 474 OFFCURVE",
"50 519 OFFCURVE",
"55 580 CURVE SMOOTH",
"58 609 OFFCURVE",
"71 631 OFFCURVE",
"94 646 CURVE SMOOTH",
"115 660 OFFCURVE",
"140 667 OFFCURVE",
"170 667 CURVE SMOOTH",
"226 667 OFFCURVE",
"279 647 OFFCURVE",
"330 608 CURVE"
);
}
);
width = 603;
}
);
note = G;
unicode = 0047;
},
{
glyphname = H;
lastChange = "2021-05-11 19:30:45 +0000";
layers = (
{
hints = (
{
horizontal = 1;
place = "{-58, 26}";
type = Stem;
},
{
horizontal = 1;
place = "{-14, 96}";
type = Stem;
},
{
horizontal = 1;
place = "{360, 52}";
type = Stem;
},
{
horizontal = 1;
place = "{452, 24}";
type = Stem;
},
{
horizontal = 1;
place = "{682, 20}";
type = Stem;
},
{
place = "{2, 106}";
type = Stem;
},
{
place = "{142, 62}";
type = Stem;
},
{
place = "{282, 40}";
type = Stem;
}
);
layerId = "3191725B-F824-48C7-90A0-BAE99CBF9356";
paths = (
{
closed = 1;
nodes = (
"1045 720 OFFCURVE",
"1047 723 OFFCURVE",
"1047 727 CURVE SMOOTH",
"1047 732 OFFCURVE",
"1043 733 OFFCURVE",
"1035 732 CURVE SMOOTH",
"974 724 OFFCURVE",
"910 675 OFFCURVE",
"844 582 CURVE SMOOTH",
"799 518 OFFCURVE",
"759 446 OFFCURVE",
"726 366 CURVE SMOOTH",
"688 274 OFFCURVE",
"669 195 OFFCURVE",
"668 128 CURVE",
"643 177 OFFCURVE",
"615 224 OFFCURVE",
"582 269 CURVE SMOOTH",
"561 298 OFFCURVE",
"538 323 OFFCURVE",
"513 344 CURVE",
"530 383 OFFCURVE",
"551 437 OFFCURVE",
"576 505 CURVE SMOOTH",
"596 560 OFFCURVE",
"613 599 OFFCURVE",
"628 620 CURVE SMOOTH",
"648 649 OFFCURVE",
"674 670 OFFCURVE",
"707 682 CURVE",
"731 666 OFFCURVE",
"750 658 OFFCURVE",
"764 657 CURVE SMOOTH",
"780 656 OFFCURVE",
"793 659 OFFCURVE",
"803 665 CURVE SMOOTH",
"812 670 OFFCURVE",
"817 677 OFFCURVE",
"817 685 CURVE SMOOTH",
"817 702 OFFCURVE",
"800 710 OFFCURVE",
"766 710 CURVE SMOOTH",
"749 710 OFFCURVE",
"728 707 OFFCURVE",
"705 701 CURVE",
"652 710 OFFCURVE",
"597 714 OFFCURVE",
"538 714 CURVE SMOOTH",
"356 714 OFFCURVE",
"234 679 OFFCURVE",
"173 608 CURVE SMOOTH",
"152 584 OFFCURVE",
"142 560 OFFCURVE",
"142 536 CURVE SMOOTH",
"142 509 OFFCURVE",
"155 487 OFFCURVE",
"180 472 CURVE SMOOTH",
"201 459 OFFCURVE",
"227 452 OFFCURVE",
"256 452 CURVE SMOOTH",
"293 452 OFFCURVE",
"331 461 OFFCURVE",
"372 480 CURVE SMOOTH",
"412 499 OFFCURVE",
"443 521 OFFCURVE",
"464 548 CURVE SMOOTH",
"465 549 OFFCURVE",
"465 551 OFFCURVE",
"465 552 CURVE SMOOTH",
"465 555 OFFCURVE",
"464 557 OFFCURVE",
"461 558 CURVE SMOOTH",
"458 559 OFFCURVE",
"455 559 OFFCURVE",
"452 556 CURVE SMOOTH",
"397 503 OFFCURVE",
"337 476 OFFCURVE",
"272 476 CURVE SMOOTH",
"262 476 OFFCURVE",
"253 477 OFFCURVE",
"244 479 CURVE SMOOTH",
"217 484 OFFCURVE",
"203 498 OFFCURVE",
"203 522 CURVE SMOOTH",
"203 541 OFFCURVE",
"212 563 OFFCURVE",
"231 587 CURVE SMOOTH",
"250 610 OFFCURVE",
"276 632 OFFCURVE",
"310 652 CURVE SMOOTH",
"361 682 OFFCURVE",
"448 697 OFFCURVE",
"570 697 CURVE SMOOTH",
"611 697 OFFCURVE",
"648 695 OFFCURVE",
"681 690 CURVE",
"642 676 OFFCURVE",
"607 651 OFFCURVE",
"576 614 CURVE SMOOTH",
"551 585 OFFCURVE",
"525 544 OFFCURVE",
"497 489 CURVE SMOOTH",
"446 390 LINE",
"417 403 OFFCURVE",
"391 410 OFFCURVE",
"366 410 CURVE SMOOTH",
"341 410 OFFCURVE",
"320 403 OFFCURVE",
"305 388 CURVE SMOOTH",
"290 374 OFFCURVE",
"282 354 OFFCURVE",
"282 328 CURVE SMOOTH",
"282 289 OFFCURVE",
"300 242 OFFCURVE",
"337 189 CURVE",
"330 178 OFFCURVE",
"324 167 OFFCURVE",
"317 156 CURVE SMOOTH",
"254 53 OFFCURVE",
"183 -8 OFFCURVE",
"106 -28 CURVE SMOOTH",
"99 -30 OFFCURVE",
"92 -31 OFFCURVE",
"84 -31 CURVE SMOOTH",
"48 -31 OFFCURVE",
"29 -19 OFFCURVE",
"26 5 CURVE",
"33 -8 OFFCURVE",
"43 -14 OFFCURVE",
"57 -14 CURVE SMOOTH",
"87 -15 OFFCURVE",
"103 -1 OFFCURVE",
"106 30 CURVE SMOOTH",
"107 43 OFFCURVE",
"104 55 OFFCURVE",
"95 65 CURVE SMOOTH",
"87 75 OFFCURVE",
"76 81 OFFCURVE",
"63 81 CURVE SMOOTH",
"46 81 OFFCURVE",
"31 73 OFFCURVE",
"19 58 CURVE SMOOTH",
"7 43 OFFCURVE",
"1 27 OFFCURVE",
"1 8 CURVE SMOOTH",
"2 -40 OFFCURVE",
"37 -62 OFFCURVE",
"104 -57 CURVE SMOOTH",
"174 -52 OFFCURVE",
"239 -21 OFFCURVE",
"299 34 CURVE SMOOTH",
"332 64 OFFCURVE",
"361 95 OFFCURVE",
"387 128 CURVE",
"425 91 OFFCURVE",
"467 62 OFFCURVE",
"513 42 CURVE SMOOTH",
"516 41 OFFCURVE",
"518 41 OFFCURVE",
"521 44 CURVE SMOOTH",
"523 47 OFFCURVE",
"522 50 OFFCURVE",
"519 51 CURVE",
"475 75 OFFCURVE",
"436 106 OFFCURVE",
"401 145 CURVE",
"436 192 OFFCURVE",
"467 246 OFFCURVE",
"496 307 CURVE",
"517 290 OFFCURVE",
"537 271 OFFCURVE",
"557 248 CURVE SMOOTH",
"583 219 OFFCURVE",
"609 182 OFFCURVE",
"635 139 CURVE SMOOTH",
"657 102 OFFCURVE",
"670 76 OFFCURVE",
"676 59 CURVE SMOOTH",
"694 4 OFFCURVE",
"728 -21 OFFCURVE",
"777 -15 CURVE SMOOTH",
"810 -11 OFFCURVE",
"843 17 OFFCURVE",
"876 70 CURVE SMOOTH",
"884 83 OFFCURVE",
"906 126 OFFCURVE",
"943 201 CURVE SMOOTH",
"946 207 OFFCURVE",
"948 212 OFFCURVE",
"948 217 CURVE SMOOTH",
"948 222 OFFCURVE",
"946 225 OFFCURVE",
"943 224 CURVE SMOOTH",
"940 223 OFFCURVE",
"936 219 OFFCURVE",
"933 212 CURVE SMOOTH",
"898 140 OFFCURVE",
"868 88 OFFCURVE",
"843 56 CURVE SMOOTH",
"814 19 OFFCURVE",
"790 2 OFFCURVE",
"770 7 CURVE SMOOTH",
"747 12 OFFCURVE",
"736 40 OFFCURVE",
"736 91 CURVE SMOOTH",
"736 154 OFFCURVE",
"752 234 OFFCURVE",
"784 333 CURVE SMOOTH",
"816 434 OFFCURVE",
"855 521 OFFCURVE",
"899 592 CURVE SMOOTH",
"949 673 OFFCURVE",
"996 715 OFFCURVE",
"1041 720 CURVE SMOOTH"
);
},
{
closed = 1;
nodes = (
"398 298 OFFCURVE",
"374 253 OFFCURVE",
"351 214 CURVE",
"332 248 OFFCURVE",
"322 277 OFFCURVE",
"322 302 CURVE SMOOTH",
"322 340 OFFCURVE",
"341 359 OFFCURVE",
"378 359 CURVE SMOOTH",
"392 359 OFFCURVE",
"408 356 OFFCURVE",
"425 349 CURVE"
);
}
);
width = 854;
}
);
note = H;
unicode = 0048;
},
{
glyphname = I;
lastChange = "2021-05-11 19:30:45 +0000";
layers = (
{
hints = (
{
horizontal = 1;
place = "{-94, 26}";
type = Stem;
},
{
horizontal = 1;
place = "{-52, 96}";
type = Stem;
},
{
place = "{-18, 106}";
type = Stem;
},
{
place = "{106, 62}";
type = Stem;
}
);
layerId = "3191725B-F824-48C7-90A0-BAE99CBF9356";
paths = (
{
closed = 1;
nodes = (
"698 728 OFFCURVE",
"675 719 OFFCURVE",
"651 705 CURVE",
"529 672 OFFCURVE",
"423 636 OFFCURVE",
"333 595 CURVE SMOOTH",
"260 562 OFFCURVE",
"204 521 OFFCURVE",
"162 472 CURVE SMOOTH",
"124 428 OFFCURVE",
"105 386 OFFCURVE",
"105 346 CURVE SMOOTH",
"105 320 OFFCURVE",
"114 299 OFFCURVE",
"131 283 CURVE SMOOTH",
"148 268 OFFCURVE",
"173 260 OFFCURVE",
"206 260 CURVE SMOOTH",
"215 260 OFFCURVE",
"223 261 OFFCURVE",
"232 262 CURVE SMOOTH",
"263 266 OFFCURVE",
"293 273 OFFCURVE",
"321 285 CURVE SMOOTH",
"326 287 OFFCURVE",
"329 292 OFFCURVE",
"328 297 CURVE SMOOTH",
"327 303 OFFCURVE",
"325 304 OFFCURVE",
"320 302 CURVE SMOOTH",
"287 285 OFFCURVE",
"258 278 OFFCURVE",
"231 281 CURVE SMOOTH",
"188 286 OFFCURVE",
"167 306 OFFCURVE",
"167 342 CURVE SMOOTH",
"167 365 OFFCURVE",
"176 391 OFFCURVE",
"192 421 CURVE SMOOTH",
"206 447 OFFCURVE",
"221 468 OFFCURVE",
"238 485 CURVE SMOOTH",
"287 534 OFFCURVE",
"345 574 OFFCURVE",
"414 606 CURVE SMOOTH",
"465 630 OFFCURVE",
"532 654 OFFCURVE",
"615 677 CURVE",
"577 642 OFFCURVE",
"534 574 OFFCURVE",
"486 472 CURVE SMOOTH",
"422 337 OFFCURVE",
"359 219 OFFCURVE",
"298 119 CURVE SMOOTH",
"235 16 OFFCURVE",
"164 -45 OFFCURVE",
"87 -65 CURVE SMOOTH",
"80 -67 OFFCURVE",
"73 -68 OFFCURVE",
"66 -68 CURVE SMOOTH",
"29 -68 OFFCURVE",
"10 -56 OFFCURVE",
"7 -32 CURVE",
"14 -45 OFFCURVE",
"24 -52 OFFCURVE",
"38 -52 CURVE SMOOTH",
"68 -53 OFFCURVE",
"84 -38 OFFCURVE",
"87 -7 CURVE SMOOTH",
"88 6 OFFCURVE",
"85 18 OFFCURVE",
"76 28 CURVE SMOOTH",
"68 38 OFFCURVE",
"57 43 OFFCURVE",
"44 43 CURVE SMOOTH",
"27 43 OFFCURVE",
"12 36 OFFCURVE",
"0 21 CURVE SMOOTH",
"-12 6 OFFCURVE",
"-18 -10 OFFCURVE",
"-18 -29 CURVE SMOOTH",
"-17 -77 OFFCURVE",
"18 -99 OFFCURVE",
"85 -94 CURVE SMOOTH",
"204 -85 OFFCURVE",
"306 -15 OFFCURVE",
"391 117 CURVE SMOOTH",
"445 202 OFFCURVE",
"495 322 OFFCURVE",
"542 478 CURVE SMOOTH",
"575 589 OFFCURVE",
"610 658 OFFCURVE",
"647 685 CURVE",
"652 685 OFFCURVE",
"655 685 OFFCURVE",
"658 685 CURVE",
"677 678 OFFCURVE",
"696 674 OFFCURVE",
"713 674 CURVE SMOOTH",
"733 674 OFFCURVE",
"750 678 OFFCURVE",
"763 687 CURVE SMOOTH",
"776 696 OFFCURVE",
"782 705 OFFCURVE",
"782 715 CURVE SMOOTH",
"782 729 OFFCURVE",
"770 736 OFFCURVE",
"747 736 CURVE SMOOTH",
"738 736 OFFCURVE",
"729 735 OFFCURVE",
"719 733 CURVE SMOOTH"
);
}
);
width = 495;
}
);
note = I;
unicode = 0049;
},
{
glyphname = Iacute;
lastChange = "2021-05-11 19:30:45 +0000";
layers = (
{
hints = (
{
horizontal = 1;
place = "{-94, 26}";
type = Stem;
},
{
horizontal = 1;
place = "{-52, 96}";
type = Stem;
},
{
place = "{-18, 106}";
type = Stem;
},
{
place = "{106, 62}";
type = Stem;
}
);
layerId = "3191725B-F824-48C7-90A0-BAE99CBF9356";
paths = (
{
closed = 1;
nodes = (
"698 728 OFFCURVE",
"675 719 OFFCURVE",
"651 705 CURVE",
"529 672 OFFCURVE",
"423 636 OFFCURVE",
"333 595 CURVE SMOOTH",
"260 562 OFFCURVE",
"204 521 OFFCURVE",
"162 472 CURVE SMOOTH",
"124 428 OFFCURVE",
"105 386 OFFCURVE",
"105 346 CURVE SMOOTH",
"105 320 OFFCURVE",
"114 299 OFFCURVE",
"131 283 CURVE SMOOTH",
"148 268 OFFCURVE",
"173 260 OFFCURVE",
"206 260 CURVE SMOOTH",
"215 260 OFFCURVE",
"223 261 OFFCURVE",
"232 262 CURVE SMOOTH",
"263 266 OFFCURVE",
"293 273 OFFCURVE",
"321 285 CURVE SMOOTH",
"326 287 OFFCURVE",
"329 292 OFFCURVE",
"328 297 CURVE SMOOTH",
"327 303 OFFCURVE",
"325 304 OFFCURVE",
"320 302 CURVE SMOOTH",
"287 285 OFFCURVE",
"258 278 OFFCURVE",
"231 281 CURVE SMOOTH",
"188 286 OFFCURVE",
"167 306 OFFCURVE",
"167 342 CURVE SMOOTH",
"167 365 OFFCURVE",
"176 391 OFFCURVE",
"192 421 CURVE SMOOTH",
"206 447 OFFCURVE",
"221 468 OFFCURVE",
"238 485 CURVE SMOOTH",
"287 534 OFFCURVE",
"345 574 OFFCURVE",
"414 606 CURVE SMOOTH",
"465 630 OFFCURVE",
"532 654 OFFCURVE",
"615 677 CURVE",
"577 642 OFFCURVE",
"534 574 OFFCURVE",
"486 472 CURVE SMOOTH",
"422 337 OFFCURVE",
"359 219 OFFCURVE",
"298 119 CURVE SMOOTH",
"235 16 OFFCURVE",
"164 -45 OFFCURVE",
"87 -65 CURVE SMOOTH",
"80 -67 OFFCURVE",
"73 -68 OFFCURVE",
"66 -68 CURVE SMOOTH",
"29 -68 OFFCURVE",
"10 -56 OFFCURVE",
"7 -32 CURVE",
"14 -45 OFFCURVE",
"24 -52 OFFCURVE",
"38 -52 CURVE SMOOTH",
"68 -53 OFFCURVE",
"84 -38 OFFCURVE",
"87 -7 CURVE SMOOTH",
"88 6 OFFCURVE",
"85 18 OFFCURVE",
"76 28 CURVE SMOOTH",
"68 38 OFFCURVE",
"57 43 OFFCURVE",
"44 43 CURVE SMOOTH",
"27 43 OFFCURVE",
"12 36 OFFCURVE",
"0 21 CURVE SMOOTH",
"-12 6 OFFCURVE",
"-18 -10 OFFCURVE",
"-18 -29 CURVE SMOOTH",
"-17 -77 OFFCURVE",
"18 -99 OFFCURVE",
"85 -94 CURVE SMOOTH",
"204 -85 OFFCURVE",
"306 -15 OFFCURVE",
"391 117 CURVE SMOOTH",
"445 202 OFFCURVE",
"495 322 OFFCURVE",
"542 478 CURVE SMOOTH",
"575 589 OFFCURVE",
"610 658 OFFCURVE",
"647 685 CURVE",
"652 685 OFFCURVE",
"655 685 OFFCURVE",
"658 685 CURVE",
"677 678 OFFCURVE",
"696 674 OFFCURVE",
"713 674 CURVE SMOOTH",
"733 674 OFFCURVE",
"750 678 OFFCURVE",
"763 687 CURVE SMOOTH",
"776 696 OFFCURVE",
"782 705 OFFCURVE",
"782 715 CURVE SMOOTH",
"782 729 OFFCURVE",
"770 736 OFFCURVE",
"747 736 CURVE SMOOTH",
"738 736 OFFCURVE",
"729 735 OFFCURVE",
"719 733 CURVE SMOOTH"
);
},
{
closed = 1;
nodes = (
"844 855 OFFCURVE",
"841 864 OFFCURVE",
"829 870 CURVE SMOOTH",
"824 873 OFFCURVE",
"818 874 OFFCURVE",
"812 874 CURVE SMOOTH",
"799 874 OFFCURVE",
"786 869 OFFCURVE",
"771 858 CURVE SMOOTH",
"724 823 OFFCURVE",
"683 793 OFFCURVE",
"648 767 CURVE",
"645 761 OFFCURVE",
"646 757 OFFCURVE",
"651 754 CURVE SMOOTH",
"655 752 OFFCURVE",
"686 765 OFFCURVE",
"745 792 CURVE SMOOTH",
"803 819 OFFCURVE",
"834 836 OFFCURVE",
"838 843 CURVE SMOOTH"
);
}
);
width = 589;
}
);
note = Iacute;
unicode = 00CD;
},
{
glyphname = Icircumflex;
lastChange = "2021-05-11 19:30:45 +0000";
layers = (
{
hints = (
{
horizontal = 1;
place = "{-94, 26}";
type = Stem;
},
{
horizontal = 1;
place = "{-52, 96}";
type = Stem;
},
{
place = "{-18, 106}";
type = Stem;
},
{
place = "{106, 62}";
type = Stem;
},
{
horizontal = 1;
place = "{734, 20}";
type = Stem;
}
);
layerId = "3191725B-F824-48C7-90A0-BAE99CBF9356";
paths = (
{
closed = 1;
nodes = (
"698 728 OFFCURVE",
"675 719 OFFCURVE",
"651 705 CURVE",
"529 672 OFFCURVE",
"423 636 OFFCURVE",
"333 595 CURVE SMOOTH",
"260 562 OFFCURVE",
"204 521 OFFCURVE",
"162 472 CURVE SMOOTH",
"124 428 OFFCURVE",
"105 386 OFFCURVE",
"105 346 CURVE SMOOTH",
"105 320 OFFCURVE",
"114 299 OFFCURVE",
"131 283 CURVE SMOOTH",
"148 268 OFFCURVE",
"173 260 OFFCURVE",
"206 260 CURVE SMOOTH",
"215 260 OFFCURVE",
"223 261 OFFCURVE",
"232 262 CURVE SMOOTH",
"263 266 OFFCURVE",
"293 273 OFFCURVE",
"321 285 CURVE SMOOTH",
"326 287 OFFCURVE",
"329 292 OFFCURVE",
"328 297 CURVE SMOOTH",
"327 303 OFFCURVE",
"325 304 OFFCURVE",
"320 302 CURVE SMOOTH",
"287 285 OFFCURVE",
"258 278 OFFCURVE",
"231 281 CURVE SMOOTH",
"188 286 OFFCURVE",
"167 306 OFFCURVE",
"167 342 CURVE SMOOTH",
"167 365 OFFCURVE",
"176 391 OFFCURVE",
"192 421 CURVE SMOOTH",
"206 447 OFFCURVE",
"221 468 OFFCURVE",
"238 485 CURVE SMOOTH",
"287 534 OFFCURVE",
"345 574 OFFCURVE",
"414 606 CURVE SMOOTH",
"465 630 OFFCURVE",
"532 654 OFFCURVE",
"615 677 CURVE",
"577 642 OFFCURVE",
"534 574 OFFCURVE",
"486 472 CURVE SMOOTH",
"422 337 OFFCURVE",
"359 219 OFFCURVE",
"298 119 CURVE SMOOTH",
"235 16 OFFCURVE",
"164 -45 OFFCURVE",
"87 -65 CURVE SMOOTH",
"80 -67 OFFCURVE",
"73 -68 OFFCURVE",
"66 -68 CURVE SMOOTH",
"29 -68 OFFCURVE",
"10 -56 OFFCURVE",
"7 -32 CURVE",
"14 -45 OFFCURVE",
"24 -52 OFFCURVE",
"38 -52 CURVE SMOOTH",
"68 -53 OFFCURVE",
"84 -38 OFFCURVE",
"87 -7 CURVE SMOOTH",
"88 6 OFFCURVE",
"85 18 OFFCURVE",
"76 28 CURVE SMOOTH",
"68 38 OFFCURVE",
"57 43 OFFCURVE",
"44 43 CURVE SMOOTH",
"27 43 OFFCURVE",
"12 36 OFFCURVE",
"0 21 CURVE SMOOTH",
"-12 6 OFFCURVE",
"-18 -10 OFFCURVE",
"-18 -29 CURVE SMOOTH",
"-17 -77 OFFCURVE",
"18 -99 OFFCURVE",
"85 -94 CURVE SMOOTH",
"204 -85 OFFCURVE",
"306 -15 OFFCURVE",
"391 117 CURVE SMOOTH",
"445 202 OFFCURVE",
"495 322 OFFCURVE",
"542 478 CURVE SMOOTH",
"575 589 OFFCURVE",
"610 658 OFFCURVE",
"647 685 CURVE",
"652 685 OFFCURVE",
"655 685 OFFCURVE",
"658 685 CURVE",
"677 678 OFFCURVE",
"696 674 OFFCURVE",
"713 674 CURVE SMOOTH",
"733 674 OFFCURVE",
"750 678 OFFCURVE",
"763 687 CURVE SMOOTH",
"776 696 OFFCURVE",
"782 705 OFFCURVE",
"782 715 CURVE SMOOTH",
"782 729 OFFCURVE",
"770 736 OFFCURVE",
"747 736 CURVE SMOOTH",
"738 736 OFFCURVE",
"729 735 OFFCURVE",
"719 733 CURVE SMOOTH"
);
},
{
closed = 1;
nodes = (
"792 871 LINE SMOOTH",
"791 875 OFFCURVE",
"775 875 OFFCURVE",
"745 871 CURVE",
"562 741 LINE SMOOTH",
"561 740 OFFCURVE",
"561 739 OFFCURVE",
"561 738 CURVE SMOOTH",
"561 735 OFFCURVE",
"565 735 OFFCURVE",
"573 735 CURVE SMOOTH",
"582 735 OFFCURVE",
"588 737 OFFCURVE",
"593 741 CURVE",
"755 828 LINE",
"811 741 LINE SMOOTH",
"813 738 OFFCURVE",
"816 736 OFFCURVE",
"821 735 CURVE SMOOTH",
"826 734 OFFCURVE",
"830 733 OFFCURVE",
"833 734 CURVE SMOOTH",
"836 735 OFFCURVE",
"837 738 OFFCURVE",
"836 741 CURVE SMOOTH"
);
}
);
width = 589;
}
);
note = Icircumflex;
unicode = 00CE;
},
{
glyphname = Idieresis;
lastChange = "2021-05-11 19:30:45 +0000";
layers = (
{
hints = (
{
horizontal = 1;
place = "{-94, 26}";
type = Stem;
},
{
horizontal = 1;
place = "{-52, 96}";
type = Stem;
},
{
place = "{-18, 106}";
type = Stem;
},
{
place = "{106, 62}";
type = Stem;
},
{
horizontal = 1;
place = "{780, 66}";
type = Stem;
},
{
place = "{620, 66}";
type = Stem;
},
{
place = "{748, 66}";
type = Stem;
}
);
layerId = "3191725B-F824-48C7-90A0-BAE99CBF9356";
paths = (
{
closed = 1;
nodes = (
"698 728 OFFCURVE",
"675 719 OFFCURVE",
"651 705 CURVE",
"529 672 OFFCURVE",
"423 636 OFFCURVE",
"333 595 CURVE SMOOTH",
"260 562 OFFCURVE",
"204 521 OFFCURVE",
"162 472 CURVE SMOOTH",
"124 428 OFFCURVE",
"105 386 OFFCURVE",
"105 346 CURVE SMOOTH",
"105 320 OFFCURVE",
"114 299 OFFCURVE",
"131 283 CURVE SMOOTH",
"148 268 OFFCURVE",
"173 260 OFFCURVE",
"206 260 CURVE SMOOTH",
"215 260 OFFCURVE",
"223 261 OFFCURVE",
"232 262 CURVE SMOOTH",
"263 266 OFFCURVE",
"293 273 OFFCURVE",
"321 285 CURVE SMOOTH",
"326 287 OFFCURVE",
"329 292 OFFCURVE",
"328 297 CURVE SMOOTH",
"327 303 OFFCURVE",
"325 304 OFFCURVE",
"320 302 CURVE SMOOTH",
"287 285 OFFCURVE",
"258 278 OFFCURVE",
"231 281 CURVE SMOOTH",
"188 286 OFFCURVE",
"167 306 OFFCURVE",
"167 342 CURVE SMOOTH",
"167 365 OFFCURVE",
"176 391 OFFCURVE",
"192 421 CURVE SMOOTH",
"206 447 OFFCURVE",
"221 468 OFFCURVE",
"238 485 CURVE SMOOTH",
"287 534 OFFCURVE",
"345 574 OFFCURVE",
"414 606 CURVE SMOOTH",
"465 630 OFFCURVE",
"532 654 OFFCURVE",
"615 677 CURVE",
"577 642 OFFCURVE",
"534 574 OFFCURVE",
"486 472 CURVE SMOOTH",
"422 337 OFFCURVE",
"359 219 OFFCURVE",
"298 119 CURVE SMOOTH",
"235 16 OFFCURVE",
"164 -45 OFFCURVE",
"87 -65 CURVE SMOOTH",
"80 -67 OFFCURVE",
"73 -68 OFFCURVE",
"66 -68 CURVE SMOOTH",
"29 -68 OFFCURVE",
"10 -56 OFFCURVE",
"7 -32 CURVE",
"14 -45 OFFCURVE",
"24 -52 OFFCURVE",
"38 -52 CURVE SMOOTH",
"68 -53 OFFCURVE",
"84 -38 OFFCURVE",
"87 -7 CURVE SMOOTH",
"88 6 OFFCURVE",
"85 18 OFFCURVE",
"76 28 CURVE SMOOTH",
"68 38 OFFCURVE",
"57 43 OFFCURVE",
"44 43 CURVE SMOOTH",
"27 43 OFFCURVE",
"12 36 OFFCURVE",
"0 21 CURVE SMOOTH",
"-12 6 OFFCURVE",
"-18 -10 OFFCURVE",
"-18 -29 CURVE SMOOTH",
"-17 -77 OFFCURVE",
"18 -99 OFFCURVE",
"85 -94 CURVE SMOOTH",
"204 -85 OFFCURVE",
"306 -15 OFFCURVE",
"391 117 CURVE SMOOTH",
"445 202 OFFCURVE",
"495 322 OFFCURVE",
"542 478 CURVE SMOOTH",
"575 589 OFFCURVE",
"610 658 OFFCURVE",
"647 685 CURVE",
"652 685 OFFCURVE",
"655 685 OFFCURVE",
"658 685 CURVE",
"677 678 OFFCURVE",
"696 674 OFFCURVE",
"713 674 CURVE SMOOTH",
"733 674 OFFCURVE",
"750 678 OFFCURVE",
"763 687 CURVE SMOOTH",
"776 696 OFFCURVE",
"782 705 OFFCURVE",
"782 715 CURVE SMOOTH",
"782 729 OFFCURVE",
"770 736 OFFCURVE",
"747 736 CURVE SMOOTH",
"738 736 OFFCURVE",
"729 735 OFFCURVE",
"719 733 CURVE SMOOTH"
);
},
{
closed = 1;
nodes = (
"814 834 OFFCURVE",
"803 845 OFFCURVE",
"780 845 CURVE SMOOTH",
"759 845 OFFCURVE",
"748 834 OFFCURVE",
"748 812 CURVE SMOOTH",
"748 790 OFFCURVE",
"759 779 OFFCURVE",
"782 779 CURVE SMOOTH",
"803 779 OFFCURVE",
"814 790 OFFCURVE",
"814 812 CURVE SMOOTH"
);
},
{
closed = 1;
nodes = (
"685 834 OFFCURVE",
"674 845 OFFCURVE",
"651 845 CURVE SMOOTH",
"630 845 OFFCURVE",
"619 834 OFFCURVE",
"619 812 CURVE SMOOTH",
"619 790 OFFCURVE",
"630 779 OFFCURVE",
"653 779 CURVE SMOOTH",
"674 779 OFFCURVE",
"685 790 OFFCURVE",
"685 812 CURVE SMOOTH"
);
}
);
width = 589;
}
);
note = Idieresis;
unicode = 00CF;
},
{
glyphname = Igrave;
lastChange = "2021-05-11 19:30:45 +0000";
layers = (
{
hints = (
{
horizontal = 1;
place = "{-94, 26}";
type = Stem;
},
{
horizontal = 1;
place = "{-52, 96}";
type = Stem;
},
{
place = "{-18, 106}";
type = Stem;
},
{
place = "{106, 62}";
type = Stem;
}
);
layerId = "3191725B-F824-48C7-90A0-BAE99CBF9356";
paths = (
{
closed = 1;
nodes = (
"698 728 OFFCURVE",
"675 719 OFFCURVE",
"651 705 CURVE",
"529 672 OFFCURVE",
"423 636 OFFCURVE",
"333 595 CURVE SMOOTH",
"260 562 OFFCURVE",
"204 521 OFFCURVE",
"162 472 CURVE SMOOTH",
"124 428 OFFCURVE",
"105 386 OFFCURVE",
"105 346 CURVE SMOOTH",
"105 320 OFFCURVE",
"114 299 OFFCURVE",
"131 283 CURVE SMOOTH",
"148 268 OFFCURVE",
"173 260 OFFCURVE",
"206 260 CURVE SMOOTH",
"215 260 OFFCURVE",
"223 261 OFFCURVE",
"232 262 CURVE SMOOTH",
"263 266 OFFCURVE",
"293 273 OFFCURVE",
"321 285 CURVE SMOOTH",
"326 287 OFFCURVE",
"329 292 OFFCURVE",
"328 297 CURVE SMOOTH",
"327 303 OFFCURVE",
"325 304 OFFCURVE",
"320 302 CURVE SMOOTH",
"287 285 OFFCURVE",
"258 278 OFFCURVE",
"231 281 CURVE SMOOTH",
"188 286 OFFCURVE",
"167 306 OFFCURVE",
"167 342 CURVE SMOOTH",
"167 365 OFFCURVE",
"176 391 OFFCURVE",
"192 421 CURVE SMOOTH",
"206 447 OFFCURVE",
"221 468 OFFCURVE",
"238 485 CURVE SMOOTH",
"287 534 OFFCURVE",
"345 574 OFFCURVE",
"414 606 CURVE SMOOTH",
"465 630 OFFCURVE",
"532 654 OFFCURVE",
"615 677 CURVE",
"577 642 OFFCURVE",
"534 574 OFFCURVE",
"486 472 CURVE SMOOTH",
"422 337 OFFCURVE",
"359 219 OFFCURVE",
"298 119 CURVE SMOOTH",
"235 16 OFFCURVE",
"164 -45 OFFCURVE",
"87 -65 CURVE SMOOTH",
"80 -67 OFFCURVE",
"73 -68 OFFCURVE",
"66 -68 CURVE SMOOTH",
"29 -68 OFFCURVE",
"10 -56 OFFCURVE",
"7 -32 CURVE",
"14 -45 OFFCURVE",
"24 -52 OFFCURVE",
"38 -52 CURVE SMOOTH",
"68 -53 OFFCURVE",
"84 -38 OFFCURVE",
"87 -7 CURVE SMOOTH",
"88 6 OFFCURVE",
"85 18 OFFCURVE",
"76 28 CURVE SMOOTH",
"68 38 OFFCURVE",
"57 43 OFFCURVE",
"44 43 CURVE SMOOTH",
"27 43 OFFCURVE",
"12 36 OFFCURVE",
"0 21 CURVE SMOOTH",
"-12 6 OFFCURVE",
"-18 -10 OFFCURVE",
"-18 -29 CURVE SMOOTH",
"-17 -77 OFFCURVE",
"18 -99 OFFCURVE",
"85 -94 CURVE SMOOTH",
"204 -85 OFFCURVE",
"306 -15 OFFCURVE",
"391 117 CURVE SMOOTH",
"445 202 OFFCURVE",
"495 322 OFFCURVE",
"542 478 CURVE SMOOTH",
"575 589 OFFCURVE",
"610 658 OFFCURVE",
"647 685 CURVE",
"652 685 OFFCURVE",
"655 685 OFFCURVE",
"658 685 CURVE",
"677 678 OFFCURVE",
"696 674 OFFCURVE",
"713 674 CURVE SMOOTH",
"733 674 OFFCURVE",
"750 678 OFFCURVE",
"763 687 CURVE SMOOTH",
"776 696 OFFCURVE",
"782 705 OFFCURVE",
"782 715 CURVE SMOOTH",
"782 729 OFFCURVE",
"770 736 OFFCURVE",
"747 736 CURVE SMOOTH",
"738 736 OFFCURVE",
"729 735 OFFCURVE",
"719 733 CURVE SMOOTH"
);
},
{
closed = 1;
nodes = (
"787 763 OFFCURVE",
"762 785 OFFCURVE",
"711 825 CURVE SMOOTH",
"660 865 OFFCURVE",
"631 885 OFFCURVE",
"622 885 CURVE SMOOTH",
"609 885 OFFCURVE",
"603 878 OFFCURVE",
"603 864 CURVE SMOOTH",
"603 846 OFFCURVE",
"615 831 OFFCURVE",
"640 818 CURVE SMOOTH",
"664 806 OFFCURVE",
"688 794 OFFCURVE",
"712 781 CURVE SMOOTH",
"751 760 OFFCURVE",
"773 750 OFFCURVE",
"777 750 CURVE SMOOTH",
"784 750 OFFCURVE",
"787 753 OFFCURVE",
"787 759 CURVE SMOOTH"
);
}
);
width = 589;
}
);
note = Igrave;
unicode = 00CC;
},
{
glyphname = J;
lastChange = "2021-05-11 19:30:45 +0000";
layers = (
{
hints = (
{
horizontal = 1;
place = "{-204, 24}";
type = Stem;
},
{
horizontal = 1;
place = "{452, 24}";
type = Stem;
},
{
horizontal = 1;
place = "{698, 18}";
type = Stem;
},
{
place = "{-122, 30}";
type = Stem;
},
{
place = "{142, 60}";
type = Stem;
}
);
layerId = "3191725B-F824-48C7-90A0-BAE99CBF9356";
paths = (
{
closed = 1;
nodes = (
"779 657 OFFCURVE",
"792 660 OFFCURVE",
"801 666 CURVE SMOOTH",
"810 672 OFFCURVE",
"815 679 OFFCURVE",
"815 687 CURVE SMOOTH",
"815 704 OFFCURVE",
"799 713 OFFCURVE",
"766 713 CURVE SMOOTH",
"749 713 OFFCURVE",
"728 709 OFFCURVE",
"704 702 CURVE",
"652 711 OFFCURVE",
"597 715 OFFCURVE",
"539 715 CURVE SMOOTH",
"357 715 OFFCURVE",
"235 679 OFFCURVE",
"173 608 CURVE SMOOTH",
"152 584 OFFCURVE",
"142 560 OFFCURVE",
"142 536 CURVE SMOOTH",
"142 509 OFFCURVE",
"155 487 OFFCURVE",
"180 472 CURVE SMOOTH",
"201 459 OFFCURVE",
"227 452 OFFCURVE",
"256 452 CURVE SMOOTH",
"293 452 OFFCURVE",
"331 461 OFFCURVE",
"372 480 CURVE SMOOTH",
"412 499 OFFCURVE",
"443 521 OFFCURVE",
"464 548 CURVE SMOOTH",
"466 551 OFFCURVE",
"467 553 OFFCURVE",
"466 556 CURVE SMOOTH",
"465 559 OFFCURVE",
"464 560 OFFCURVE",
"461 560 CURVE SMOOTH",
"460 560 OFFCURVE",
"458 559 OFFCURVE",
"457 558 CURVE SMOOTH",
"434 535 OFFCURVE",
"405 516 OFFCURVE",
"372 501 CURVE SMOOTH",
"337 484 OFFCURVE",
"303 476 OFFCURVE",
"271 476 CURVE SMOOTH",
"262 476 OFFCURVE",
"253 477 OFFCURVE",
"244 479 CURVE SMOOTH",
"216 484 OFFCURVE",
"202 498 OFFCURVE",
"202 522 CURVE SMOOTH",
"202 541 OFFCURVE",
"212 563 OFFCURVE",
"231 587 CURVE SMOOTH",
"249 610 OFFCURVE",
"276 632 OFFCURVE",
"310 652 CURVE SMOOTH",
"361 682 OFFCURVE",
"448 697 OFFCURVE",
"570 697 CURVE SMOOTH",
"611 697 OFFCURVE",
"648 695 OFFCURVE",
"681 690 CURVE",
"642 676 OFFCURVE",
"607 651 OFFCURVE",
"576 614 CURVE SMOOTH",
"551 585 OFFCURVE",
"525 543 OFFCURVE",
"497 489 CURVE SMOOTH",
"483 461 OFFCURVE",
"453 400 OFFCURVE",
"410 305 CURVE SMOOTH",
"372 221 OFFCURVE",
"340 155 OFFCURVE",
"313 108 CURVE",
"216 93 OFFCURVE",
"133 72 OFFCURVE",
"64 46 CURVE SMOOTH",
"-45 4 OFFCURVE",
"-106 -48 OFFCURVE",
"-119 -112 CURVE SMOOTH",
"-121 -121 OFFCURVE",
"-122 -129 OFFCURVE",
"-122 -136 CURVE SMOOTH",
"-122 -181 OFFCURVE",
"-89 -204 OFFCURVE",
"-24 -204 CURVE SMOOTH",
"11 -204 OFFCURVE",
"49 -198 OFFCURVE",
"89 -186 CURVE SMOOTH",
"212 -150 OFFCURVE",
"317 -55 OFFCURVE",
"406 101 CURVE",
"451 106 OFFCURVE",
"492 108 OFFCURVE",
"531 107 CURVE SMOOTH",
"541 107 OFFCURVE",
"546 109 OFFCURVE",
"546 115 CURVE SMOOTH",
"546 118 OFFCURVE",
"542 120 OFFCURVE",
"534 121 CURVE SMOOTH",
"507 124 OFFCURVE",
"468 124 OFFCURVE",
"417 120 CURVE",
"448 176 OFFCURVE",
"478 243 OFFCURVE",
"509 321 CURVE SMOOTH",
"514 333 OFFCURVE",
"536 394 OFFCURVE",
"576 505 CURVE SMOOTH",
"597 562 OFFCURVE",
"614 600 OFFCURVE",
"628 621 CURVE SMOOTH",
"647 650 OFFCURVE",
"673 671 OFFCURVE",
"706 683 CURVE",
"730 667 OFFCURVE",
"749 659 OFFCURVE",
"763 658 CURVE SMOOTH"
);
},
{
closed = 1;
nodes = (
"231 -31 OFFCURVE",
"157 -110 OFFCURVE",
"75 -152 CURVE SMOOTH",
"38 -171 OFFCURVE",
"4 -180 OFFCURVE",
"-25 -180 CURVE SMOOTH",
"-70 -180 OFFCURVE",
"-93 -163 OFFCURVE",
"-93 -129 CURVE SMOOTH",
"-93 -88 OFFCURVE",
"-60 -49 OFFCURVE",
"6 -10 CURVE SMOOTH",
"77 31 OFFCURVE",
"175 63 OFFCURVE",
"300 86 CURVE"
);
}
);
width = 549;
}
);
note = J;
unicode = 004A;
},
{
glyphname = K;
lastChange = "2021-05-11 19:30:45 +0000";
layers = (
{
hints = (
{
horizontal = 1;
place = "{-142, 58}";
type = Stem;
},
{
horizontal = 1;
place = "{-58, 26}";
type = Stem;
},
{
horizontal = 1;
place = "{156, 20}";
type = Stem;
},
{
horizontal = 1;
place = "{402, 38}";
type = Stem;
},
{
horizontal = 1;
place = "{452, 24}";
type = Stem;
},
{
horizontal = 1;
place = "{698, 16}";
type = Stem;
},
{
place = "{2, 106}";
type = Stem;
},
{
place = "{142, 60}";
type = Stem;
},
{
place = "{284, 46}";
type = Stem;
},
{
place = "{896, 24}";
type = Stem;
},
{
place = "{1072, 80}";
type = Stem;
}
);
layerId = "3191725B-F824-48C7-90A0-BAE99CBF9356";
paths = (
{
closed = 1;
nodes = (
"1114 600 OFFCURVE",
"1127 605 OFFCURVE",
"1137 618 CURVE SMOOTH",
"1146 629 OFFCURVE",
"1150 644 OFFCURVE",
"1150 661 CURVE SMOOTH",
"1150 686 OFFCURVE",
"1140 704 OFFCURVE",
"1120 717 CURVE SMOOTH",
"1101 730 OFFCURVE",
"1076 736 OFFCURVE",
"1047 736 CURVE SMOOTH",
"1008 736 OFFCURVE",
"974 727 OFFCURVE",
"945 708 CURVE SMOOTH",
"896 677 OFFCURVE",
"847 624 OFFCURVE",
"801 549 CURVE SMOOTH",
"761 484 OFFCURVE",
"725 418 OFFCURVE",
"686 354 CURVE SMOOTH",
"642 281 OFFCURVE",
"598 232 OFFCURVE",
"556 205 CURVE",
"535 246 OFFCURVE",
"517 283 OFFCURVE",
"502 318 CURVE",
"522 363 OFFCURVE",
"547 425 OFFCURVE",
"576 505 CURVE SMOOTH",
"613 607 OFFCURVE",
"657 667 OFFCURVE",
"707 685 CURVE",
"727 672 OFFCURVE",
"743 666 OFFCURVE",
"755 665 CURVE SMOOTH",
"784 664 OFFCURVE",
"798 671 OFFCURVE",
"798 688 CURVE SMOOTH",
"798 702 OFFCURVE",
"784 709 OFFCURVE",
"756 709 CURVE SMOOTH",
"742 709 OFFCURVE",
"725 706 OFFCURVE",
"705 701 CURVE",
"698 702 OFFCURVE",
"696 703 OFFCURVE",
"697 703 CURVE SMOOTH",
"660 710 OFFCURVE",
"614 713 OFFCURVE",
"559 713 CURVE SMOOTH",
"478 713 OFFCURVE",
"405 705 OFFCURVE",
"340 690 CURVE SMOOTH",
"261 672 OFFCURVE",
"205 645 OFFCURVE",
"173 608 CURVE SMOOTH",
"152 584 OFFCURVE",
"142 560 OFFCURVE",
"142 536 CURVE SMOOTH",
"142 509 OFFCURVE",
"155 487 OFFCURVE",
"180 472 CURVE SMOOTH",
"201 459 OFFCURVE",
"227 452 OFFCURVE",
"256 452 CURVE SMOOTH",
"293 452 OFFCURVE",
"331 461 OFFCURVE",
"372 480 CURVE SMOOTH",
"412 499 OFFCURVE",
"443 521 OFFCURVE",
"464 548 CURVE SMOOTH",
"465 549 OFFCURVE",
"465 551 OFFCURVE",
"465 552 CURVE SMOOTH",
"465 555 OFFCURVE",
"464 557 OFFCURVE",
"461 558 CURVE SMOOTH",
"458 559 OFFCURVE",
"455 559 OFFCURVE",
"452 556 CURVE SMOOTH",
"397 503 OFFCURVE",
"337 476 OFFCURVE",
"272 476 CURVE SMOOTH",
"262 476 OFFCURVE",
"253 477 OFFCURVE",
"244 479 CURVE SMOOTH",
"216 484 OFFCURVE",
"202 498 OFFCURVE",
"202 522 CURVE SMOOTH",
"202 541 OFFCURVE",
"212 563 OFFCURVE",
"231 587 CURVE SMOOTH",
"249 610 OFFCURVE",
"276 632 OFFCURVE",
"310 652 CURVE SMOOTH",
"361 682 OFFCURVE",
"448 697 OFFCURVE",
"571 697 CURVE SMOOTH",
"612 697 OFFCURVE",
"648 695 OFFCURVE",
"681 690 CURVE",
"642 676 OFFCURVE",
"607 651 OFFCURVE",
"576 614 CURVE SMOOTH",
"551 585 OFFCURVE",
"525 544 OFFCURVE",
"497 489 CURVE SMOOTH",
"456 410 LINE",
"437 429 OFFCURVE",
"414 439 OFFCURVE",
"388 439 CURVE SMOOTH",
"356 439 OFFCURVE",
"330 427 OFFCURVE",
"311 402 CURVE SMOOTH",
"292 377 OFFCURVE",
"283 349 OFFCURVE",
"283 316 CURVE SMOOTH",
"283 265 OFFCURVE",
"301 223 OFFCURVE",
"338 192 CURVE",
"331 180 OFFCURVE",
"324 168 OFFCURVE",
"317 156 CURVE SMOOTH",
"254 53 OFFCURVE",
"183 -8 OFFCURVE",
"106 -28 CURVE SMOOTH",
"99 -30 OFFCURVE",
"92 -31 OFFCURVE",
"84 -31 CURVE SMOOTH",
"48 -31 OFFCURVE",
"29 -19 OFFCURVE",
"26 5 CURVE",
"33 -8 OFFCURVE",
"43 -14 OFFCURVE",
"57 -14 CURVE SMOOTH",
"87 -15 OFFCURVE",
"103 -1 OFFCURVE",
"106 30 CURVE SMOOTH",
"107 43 OFFCURVE",
"104 55 OFFCURVE",
"95 65 CURVE SMOOTH",
"87 75 OFFCURVE",
"76 81 OFFCURVE",
"63 81 CURVE SMOOTH",
"46 81 OFFCURVE",
"31 73 OFFCURVE",
"19 58 CURVE SMOOTH",
"7 43 OFFCURVE",
"1 27 OFFCURVE",
"1 8 CURVE SMOOTH",
"2 -40 OFFCURVE",
"37 -62 OFFCURVE",
"104 -57 CURVE SMOOTH",
"174 -52 OFFCURVE",
"239 -21 OFFCURVE",
"299 34 CURVE SMOOTH",
"342 73 OFFCURVE",
"379 115 OFFCURVE",
"411 159 CURVE",
"421 157 OFFCURVE",
"432 156 OFFCURVE",
"443 156 CURVE SMOOTH",
"473 156 OFFCURVE",
"503 161 OFFCURVE",
"532 173 CURVE",
"611 -37 OFFCURVE",
"695 -142 OFFCURVE",
"783 -142 CURVE SMOOTH",
"822 -142 OFFCURVE",
"855 -126 OFFCURVE",
"881 -94 CURVE SMOOTH",
"906 -64 OFFCURVE",
"919 -30 OFFCURVE",
"919 11 CURVE SMOOTH",
"919 49 OFFCURVE",
"909 87 OFFCURVE",
"890 124 CURVE SMOOTH",
"887 130 OFFCURVE",
"884 133 OFFCURVE",
"882 133 CURVE SMOOTH",
"877 133 OFFCURVE",
"877 128 OFFCURVE",
"881 118 CURVE SMOOTH",
"892 91 OFFCURVE",
"897 59 OFFCURVE",
"896 22 CURVE SMOOTH",
"895 -5 OFFCURVE",
"889 -29 OFFCURVE",
"878 -49 CURVE SMOOTH",
"865 -73 OFFCURVE",
"845 -85 OFFCURVE",
"820 -85 CURVE SMOOTH",
"783 -85 OFFCURVE",
"740 -56 OFFCURVE",
"690 3 CURVE SMOOTH",
"649 51 OFFCURVE",
"607 113 OFFCURVE",
"565 189 CURVE",
"607 213 OFFCURVE",
"649 252 OFFCURVE",
"693 305 CURVE SMOOTH",
"720 338 OFFCURVE",
"756 388 OFFCURVE",
"801 455 CURVE SMOOTH",
"845 522 OFFCURVE",
"877 567 OFFCURVE",
"897 591 CURVE SMOOTH",
"960 666 OFFCURVE",
"1020 703 OFFCURVE",
"1079 701 CURVE SMOOTH",
"1092 701 OFFCURVE",
"1106 696 OFFCURVE",
"1119 686 CURVE SMOOTH",
"1132 677 OFFCURVE",
"1138 665 OFFCURVE",
"1137 652 CURVE",
"1133 667 OFFCURVE",
"1123 674 OFFCURVE",
"1106 674 CURVE SMOOTH",
"1083 674 OFFCURVE",
"1071 662 OFFCURVE",
"1071 637 CURVE SMOOTH",
"1071 617 OFFCURVE",
"1080 606 OFFCURVE",
"1097 603 CURVE SMOOTH"
);
},
{
closed = 1;
nodes = (
"503 180 OFFCURVE",
"478 175 OFFCURVE",
"452 175 CURVE SMOOTH",
"442 175 OFFCURVE",
"433 176 OFFCURVE",
"424 177 CURVE",
"447 212 OFFCURVE",
"469 251 OFFCURVE",
"490 294 CURVE",
"505 251 OFFCURVE",
"517 216 OFFCURVE",
"526 190 CURVE"
);
},
{
closed = 1;
nodes = (
"409 318 OFFCURVE",
"379 262 OFFCURVE",
"354 219 CURVE",
"337 242 OFFCURVE",
"329 269 OFFCURVE",
"329 300 CURVE SMOOTH",
"329 325 OFFCURVE",
"335 348 OFFCURVE",
"347 368 CURVE SMOOTH",
"361 391 OFFCURVE",
"380 402 OFFCURVE",
"404 402 CURVE SMOOTH",
"418 402 OFFCURVE",
"431 397 OFFCURVE",
"444 386 CURVE"
);
}
);
width = 919;
}
);
note = K;
unicode = 004B;
},
{
glyphname = L;
lastChange = "2021-05-11 19:30:45 +0000";
layers = (
{
hints = (
{
horizontal = 1;
place = "{-106, 56}";
type = Stem;
},
{
horizontal = 1;
place = "{-48, 20}";
type = Stem;
},
{
horizontal = 1;
place = "{60, 24}";
type = Stem;
},
{
horizontal = 1;
place = "{160, 18}";
type = Stem;
},
{
horizontal = 1;
place = "{576, 94}";
type = Stem;
},
{
horizontal = 1;
place = "{686, 26}";
type = Stem;
},
{
place = "{-8, 26}";
type = Stem;
},
{
place = "{720, 30}";
type = Stem;
}
);
layerId = "3191725B-F824-48C7-90A0-BAE99CBF9356";
paths = (
{
closed = 1;
nodes = (
"792 690 OFFCURVE",
"765 711 OFFCURVE",
"711 711 CURVE SMOOTH",
"674 711 OFFCURVE",
"632 702 OFFCURVE",
"586 683 CURVE SMOOTH",
"540 664 OFFCURVE",
"504 642 OFFCURVE",
"476 617 CURVE SMOOTH",
"413 559 OFFCURVE",
"357 481 OFFCURVE",
"314 379 CURVE SMOOTH",
"278 293 OFFCURVE",
"245 206 OFFCURVE",
"209 120 CURVE SMOOTH",
"201 102 OFFCURVE",
"193 86 OFFCURVE",
"185 71 CURVE",
"182 72 LINE SMOOTH",
"158 80 OFFCURVE",
"134 84 OFFCURVE",
"109 84 CURVE SMOOTH",
"85 84 OFFCURVE",
"64 80 OFFCURVE",
"47 72 CURVE SMOOTH",
"13 56 OFFCURVE",
"-5 34 OFFCURVE",
"-7 6 CURVE SMOOTH",
"-8 -10 OFFCURVE",
"-3 -23 OFFCURVE",
"9 -33 CURVE SMOOTH",
"20 -42 OFFCURVE",
"34 -47 OFFCURVE",
"49 -47 CURVE SMOOTH",
"97 -47 OFFCURVE",
"145 -20 OFFCURVE",
"193 33 CURVE",
"253 4 OFFCURVE",
"313 -26 OFFCURVE",
"373 -55 CURVE SMOOTH",
"443 -89 OFFCURVE",
"506 -105 OFFCURVE",
"559 -105 CURVE SMOOTH",
"582 -105 OFFCURVE",
"604 -103 OFFCURVE",
"627 -97 CURVE SMOOTH",
"664 -88 OFFCURVE",
"693 -68 OFFCURVE",
"716 -40 CURVE SMOOTH",
"738 -13 OFFCURVE",
"749 16 OFFCURVE",
"749 49 CURVE SMOOTH",
"749 108 OFFCURVE",
"717 147 OFFCURVE",
"654 167 CURVE SMOOTH",
"633 174 OFFCURVE",
"611 177 OFFCURVE",
"587 177 CURVE SMOOTH",
"554 177 OFFCURVE",
"523 171 OFFCURVE",
"495 159 CURVE SMOOTH",
"449 140 OFFCURVE",
"411 108 OFFCURVE",
"380 63 CURVE SMOOTH",
"379 62 OFFCURVE",
"379 61 OFFCURVE",
"379 60 CURVE SMOOTH",
"379 57 OFFCURVE",
"381 55 OFFCURVE",
"385 54 CURVE SMOOTH",
"389 53 OFFCURVE",
"392 55 OFFCURVE",
"395 58 CURVE SMOOTH",
"428 95 OFFCURVE",
"465 123 OFFCURVE",
"507 140 CURVE SMOOTH",
"539 153 OFFCURVE",
"571 160 OFFCURVE",
"602 160 CURVE SMOOTH",
"621 160 OFFCURVE",
"637 157 OFFCURVE",
"652 152 CURVE SMOOTH",
"697 137 OFFCURVE",
"720 113 OFFCURVE",
"720 78 CURVE SMOOTH",
"720 56 OFFCURVE",
"711 34 OFFCURVE",
"692 12 CURVE SMOOTH",
"673 -10 OFFCURVE",
"650 -26 OFFCURVE",
"622 -36 CURVE SMOOTH",
"599 -44 OFFCURVE",
"575 -49 OFFCURVE",
"548 -49 CURVE SMOOTH",
"505 -49 OFFCURVE",
"450 -36 OFFCURVE",
"384 -10 CURVE SMOOTH",
"327 13 OFFCURVE",
"271 37 OFFCURVE",
"215 60 CURVE",
"238 89 OFFCURVE",
"260 123 OFFCURVE",
"282 163 CURVE SMOOTH",
"375 333 OFFCURVE",
"438 444 OFFCURVE",
"471 495 CURVE SMOOTH",
"537 598 OFFCURVE",
"609 660 OFFCURVE",
"687 682 CURVE SMOOTH",
"695 684 OFFCURVE",
"703 685 OFFCURVE",
"712 685 CURVE SMOOTH",
"747 685 OFFCURVE",
"766 674 OFFCURVE",
"768 651 CURVE",
"761 664 OFFCURVE",
"751 670 OFFCURVE",
"736 670 CURVE SMOOTH",
"706 670 OFFCURVE",
"690 655 OFFCURVE",
"686 624 CURVE SMOOTH",
"684 611 OFFCURVE",
"687 600 OFFCURVE",
"696 590 CURVE SMOOTH",
"705 581 OFFCURVE",
"716 576 OFFCURVE",
"729 576 CURVE SMOOTH",
"746 576 OFFCURVE",
"761 584 OFFCURVE",
"774 599 CURVE SMOOTH",
"786 614 OFFCURVE",
"792 631 OFFCURVE",
"792 649 CURVE SMOOTH"
);
},
{
closed = 1;
nodes = (
"132 -3 OFFCURVE",
"95 -27 OFFCURVE",
"54 -27 CURVE SMOOTH",
"43 -27 OFFCURVE",
"34 -24 OFFCURVE",
"27 -17 CURVE SMOOTH",
"20 -11 OFFCURVE",
"17 -3 OFFCURVE",
"18 6 CURVE SMOOTH",
"21 41 OFFCURVE",
"47 59 OFFCURVE",
"98 60 CURVE SMOOTH",
"119 59 OFFCURVE",
"142 53 OFFCURVE",
"167 44 CURVE"
);
}
);
width = 762;
}
);
note = L;
unicode = 004C;
},
{
glyphname = M;
lastChange = "2021-05-11 19:30:45 +0000";
layers = (
{
hints = (
{
horizontal = 1;
place = "{-96, 28}";
type = Stem;
},
{
horizontal = 1;
place = "{-50, 98}";
type = Stem;
},
{
horizontal = 1;
place = "{594, 94}";
type = Stem;
},
{
horizontal = 1;
place = "{702, 26}";
type = Stem;
},
{
place = "{-112, 108}";
type = Stem;
},
{
place = "{80, 38}";
type = Stem;
},
{
place = "{714, 86}";
type = Stem;
},
{
place = "{1058, 106}";
type = Stem;
}
);
layerId = "3191725B-F824-48C7-90A0-BAE99CBF9356";
paths = (
{
closed = 1;
nodes = (
"1159 707 OFFCURVE",
"1130 728 OFFCURVE",
"1075 728 CURVE SMOOTH",
"1069 728 OFFCURVE",
"1062 728 OFFCURVE",
"1055 727 CURVE SMOOTH",
"1034 725 OFFCURVE",
"1023 723 OFFCURVE",
"1024 722 CURVE",
"1007 719 OFFCURVE",
"993 717 OFFCURVE",
"982 713 CURVE SMOOTH",
"909 689 OFFCURVE",
"834 638 OFFCURVE",
"760 562 CURVE SMOOTH",
"696 497 OFFCURVE",
"638 419 OFFCURVE",
"584 328 CURVE",
"576 453 OFFCURVE",
"547 558 OFFCURVE",
"497 643 CURVE SMOOTH",
"439 740 OFFCURVE",
"364 788 OFFCURVE",
"271 787 CURVE SMOOTH",
"218 786 OFFCURVE",
"173 769 OFFCURVE",
"137 734 CURVE SMOOTH",
"99 698 OFFCURVE",
"80 651 OFFCURVE",
"80 596 CURVE SMOOTH",
"80 564 OFFCURVE",
"86 531 OFFCURVE",
"100 497 CURVE SMOOTH",
"127 430 OFFCURVE",
"175 378 OFFCURVE",
"244 341 CURVE SMOOTH",
"247 339 OFFCURVE",
"250 340 OFFCURVE",
"253 343 CURVE",
"255 347 OFFCURVE",
"254 350 OFFCURVE",
"250 352 CURVE SMOOTH",
"198 381 OFFCURVE",
"158 429 OFFCURVE",
"130 497 CURVE SMOOTH",
"122 518 OFFCURVE",
"118 539 OFFCURVE",
"118 560 CURVE SMOOTH",
"118 603 OFFCURVE",
"134 639 OFFCURVE",
"165 669 CURVE SMOOTH",
"196 699 OFFCURVE",
"234 714 OFFCURVE",
"277 714 CURVE SMOOTH",
"343 714 OFFCURVE",
"398 679 OFFCURVE",
"445 611 CURVE SMOOTH",
"501 529 OFFCURVE",
"533 408 OFFCURVE",
"540 248 CURVE",
"487 137 OFFCURVE",
"460 57 OFFCURVE",
"460 7 CURVE SMOOTH",
"460 -19 OFFCURVE",
"468 -32 OFFCURVE",
"484 -32 CURVE SMOOTH",
"496 -32 OFFCURVE",
"505 -28 OFFCURVE",
"511 -21 CURVE SMOOTH",
"562 43 OFFCURVE",
"586 143 OFFCURVE",
"585 279 CURVE",
"646 380 OFFCURVE",
"713 468 OFFCURVE",
"786 543 CURVE SMOOTH",
"871 630 OFFCURVE",
"951 685 OFFCURVE",
"1025 706 CURVE",
"986 681 OFFCURVE",
"946 640 OFFCURVE",
"905 582 CURVE SMOOTH",
"856 513 OFFCURVE",
"814 441 OFFCURVE",
"779 366 CURVE SMOOTH",
"736 272 OFFCURVE",
"714 193 OFFCURVE",
"714 129 CURVE SMOOTH",
"714 76 OFFCURVE",
"729 36 OFFCURVE",
"758 10 CURVE SMOOTH",
"781 -10 OFFCURVE",
"807 -18 OFFCURVE",
"837 -15 CURVE SMOOTH",
"870 -11 OFFCURVE",
"903 18 OFFCURVE",
"936 70 CURVE SMOOTH",
"944 82 OFFCURVE",
"967 126 OFFCURVE",
"1004 201 CURVE SMOOTH",
"1007 207 OFFCURVE",
"1008 212 OFFCURVE",
"1008 217 CURVE SMOOTH",
"1008 222 OFFCURVE",
"1006 225 OFFCURVE",
"1003 224 CURVE SMOOTH",
"1000 223 OFFCURVE",
"996 219 OFFCURVE",
"993 212 CURVE SMOOTH",
"958 140 OFFCURVE",
"928 88 OFFCURVE",
"903 56 CURVE SMOOTH",
"874 19 OFFCURVE",
"850 3 OFFCURVE",
"831 7 CURVE SMOOTH",
"810 12 OFFCURVE",
"799 39 OFFCURVE",
"799 90 CURVE SMOOTH",
"799 155 OFFCURVE",
"814 236 OFFCURVE",
"844 335 CURVE SMOOTH",
"875 437 OFFCURVE",
"911 522 OFFCURVE",
"953 591 CURVE SMOOTH",
"1001 669 OFFCURVE",
"1046 706 OFFCURVE",
"1088 702 CURVE SMOOTH",
"1117 699 OFFCURVE",
"1134 688 OFFCURVE",
"1137 669 CURVE",
"1130 681 OFFCURVE",
"1119 687 OFFCURVE",
"1104 687 CURVE SMOOTH",
"1074 687 OFFCURVE",
"1058 672 OFFCURVE",
"1057 642 CURVE SMOOTH",
"1056 629 OFFCURVE",
"1061 617 OFFCURVE",
"1070 608 CURVE SMOOTH",
"1078 599 OFFCURVE",
"1090 594 OFFCURVE",
"1104 594 CURVE SMOOTH",
"1121 594 OFFCURVE",
"1136 602 OFFCURVE",
"1147 617 CURVE SMOOTH",
"1158 632 OFFCURVE",
"1163 648 OFFCURVE",
"1162 666 CURVE SMOOTH"
);
},
{
closed = 1;
nodes = (
"428 576 OFFCURVE",
"428 580 OFFCURVE",
"427 585 CURVE SMOOTH",
"426 590 OFFCURVE",
"424 592 OFFCURVE",
"421 592 CURVE SMOOTH",
"418 592 OFFCURVE",
"414 586 OFFCURVE",
"410 574 CURVE SMOOTH",
"353 402 OFFCURVE",
"284 257 OFFCURVE",
"205 140 CURVE SMOOTH",
"126 23 OFFCURVE",
"51 -45 OFFCURVE",
"-20 -65 CURVE SMOOTH",
"-27 -67 OFFCURVE",
"-33 -68 OFFCURVE",
"-40 -68 CURVE SMOOTH",
"-54 -68 OFFCURVE",
"-67 -64 OFFCURVE",
"-78 -57 CURVE SMOOTH",
"-89 -50 OFFCURVE",
"-95 -41 OFFCURVE",
"-96 -30 CURVE",
"-87 -43 OFFCURVE",
"-75 -49 OFFCURVE",
"-59 -49 CURVE SMOOTH",
"-46 -49 OFFCURVE",
"-34 -44 OFFCURVE",
"-23 -34 CURVE SMOOTH",
"-12 -25 OFFCURVE",
"-6 -13 OFFCURVE",
"-5 0 CURVE SMOOTH",
"-4 13 OFFCURVE",
"-7 25 OFFCURVE",
"-16 35 CURVE SMOOTH",
"-25 44 OFFCURVE",
"-36 49 OFFCURVE",
"-49 49 CURVE SMOOTH",
"-68 49 OFFCURVE",
"-83 42 OFFCURVE",
"-94 29 CURVE SMOOTH",
"-105 16 OFFCURVE",
"-112 -1 OFFCURVE",
"-112 -20 CURVE SMOOTH",
"-112 -41 OFFCURVE",
"-105 -58 OFFCURVE",
"-92 -71 CURVE SMOOTH",
"-77 -87 OFFCURVE",
"-55 -95 OFFCURVE",
"-27 -95 CURVE SMOOTH",
"-11 -95 OFFCURVE",
"6 -93 OFFCURVE",
"25 -88 CURVE SMOOTH",
"139 -58 OFFCURVE",
"237 49 OFFCURVE",
"317 230 CURVE SMOOTH",
"352 309 OFFCURVE",
"388 423 OFFCURVE",
"427 572 CURVE SMOOTH"
);
}
);
width = 918;
}
);
note = M;
unicode = 004D;
},
{
glyphname = N;
lastChange = "2021-05-11 19:30:45 +0000";
layers = (
{
hints = (
{
horizontal = 1;
place = "{-96, 28}";
type = Stem;
},
{
horizontal = 1;
place = "{-52, 96}";
type = Stem;
},
{
horizontal = 1;
place = "{466, 20}";
type = Stem;
},
{
horizontal = 1;
place = "{642, 86}";
type = Stem;
},
{
horizontal = 1;
place = "{740, 14}";
type = Stem;
},
{
place = "{-52, 104}";
type = Stem;
},
{
place = "{80, 68}";
type = Stem;
},
{
place = "{560, 40}";
type = Stem;
},
{
place = "{1032, 96}";
type = Stem;
}
);
layerId = "3191725B-F824-48C7-90A0-BAE99CBF9356";
paths = (
{
closed = 1;
nodes = (
"699 -28 OFFCURVE",
"712 -42 OFFCURVE",
"731 -42 CURVE SMOOTH",
"742 -42 OFFCURVE",
"750 -38 OFFCURVE",
"757 -29 CURVE SMOOTH",
"764 -20 OFFCURVE",
"767 -11 OFFCURVE",
"767 0 CURVE SMOOTH",
"767 17 OFFCURVE",
"761 35 OFFCURVE",
"747 54 CURVE SMOOTH",
"746 55 OFFCURVE",
"735 67 OFFCURVE",
"714 92 CURVE",
"711 181 OFFCURVE",
"742 298 OFFCURVE",
"807 441 CURVE SMOOTH",
"873 588 OFFCURVE",
"939 683 OFFCURVE",
"1006 724 CURVE SMOOTH",
"1023 735 OFFCURVE",
"1041 739 OFFCURVE",
"1059 739 CURVE SMOOTH",
"1086 739 OFFCURVE",
"1101 730 OFFCURVE",
"1104 710 CURVE",
"1097 721 OFFCURVE",
"1087 726 OFFCURVE",
"1074 726 CURVE SMOOTH",
"1047 726 OFFCURVE",
"1032 712 OFFCURVE",
"1031 685 CURVE SMOOTH",
"1030 673 OFFCURVE",
"1034 663 OFFCURVE",
"1043 654 CURVE SMOOTH",
"1051 645 OFFCURVE",
"1061 641 OFFCURVE",
"1074 641 CURVE SMOOTH",
"1089 641 OFFCURVE",
"1102 648 OFFCURVE",
"1113 662 CURVE SMOOTH",
"1123 675 OFFCURVE",
"1127 690 OFFCURVE",
"1126 707 CURVE SMOOTH",
"1124 737 OFFCURVE",
"1099 752 OFFCURVE",
"1051 752 CURVE SMOOTH",
"942 752 OFFCURVE",
"854 678 OFFCURVE",
"785 527 CURVE SMOOTH",
"730 405 OFFCURVE",
"701 279 OFFCURVE",
"699 150 CURVE SMOOTH",
"699 127 OFFCURVE",
"699 116 OFFCURVE",
"698 116 CURVE SMOOTH",
"696 116 OFFCURVE",
"691 126 OFFCURVE",
"684 146 CURVE SMOOTH",
"626 311 OFFCURVE",
"598 451 OFFCURVE",
"598 568 CURVE SMOOTH",
"598 646 OFFCURVE",
"614 694 OFFCURVE",
"646 713 CURVE",
"667 701 OFFCURVE",
"684 694 OFFCURVE",
"697 693 CURVE SMOOTH",
"712 692 OFFCURVE",
"725 695 OFFCURVE",
"734 700 CURVE SMOOTH",
"743 705 OFFCURVE",
"747 712 OFFCURVE",
"747 719 CURVE SMOOTH",
"747 736 OFFCURVE",
"731 744 OFFCURVE",
"699 744 CURVE SMOOTH",
"688 744 OFFCURVE",
"676 743 OFFCURVE",
"662 740 CURVE",
"655 743 OFFCURVE",
"646 741 OFFCURVE",
"636 736 CURVE",
"627 737 OFFCURVE",
"621 738 OFFCURVE",
"618 738 CURVE SMOOTH",
"582 742 OFFCURVE",
"543 747 OFFCURVE",
"501 747 CURVE SMOOTH",
"422 747 OFFCURVE",
"351 737 OFFCURVE",
"286 719 CURVE SMOOTH",
"209 697 OFFCURVE",
"153 666 OFFCURVE",
"117 624 CURVE SMOOTH",
"93 596 OFFCURVE",
"80 570 OFFCURVE",
"80 546 CURVE SMOOTH",
"80 521 OFFCURVE",
"92 502 OFFCURVE",
"117 487 CURVE SMOOTH",
"142 472 OFFCURVE",
"173 465 OFFCURVE",
"210 465 CURVE SMOOTH",
"253 465 OFFCURVE",
"294 475 OFFCURVE",
"333 494 CURVE SMOOTH",
"372 513 OFFCURVE",
"402 535 OFFCURVE",
"423 562 CURVE SMOOTH",
"424 563 OFFCURVE",
"424 564 OFFCURVE",
"424 565 CURVE SMOOTH",
"424 570 OFFCURVE",
"421 572 OFFCURVE",
"416 572 CURVE SMOOTH",
"414 572 OFFCURVE",
"412 571 OFFCURVE",
"410 570 CURVE",
"384 544 OFFCURVE",
"353 523 OFFCURVE",
"317 507 CURVE SMOOTH",
"282 492 OFFCURVE",
"250 484 OFFCURVE",
"221 484 CURVE SMOOTH",
"172 484 OFFCURVE",
"148 502 OFFCURVE",
"148 538 CURVE SMOOTH",
"148 582 OFFCURVE",
"186 626 OFFCURVE",
"261 670 CURVE SMOOTH",
"291 687 OFFCURVE",
"331 702 OFFCURVE",
"380 713 CURVE SMOOTH",
"429 723 OFFCURVE",
"478 729 OFFCURVE",
"526 729 CURVE SMOOTH",
"552 729 OFFCURVE",
"576 728 OFFCURVE",
"597 724 CURVE SMOOTH",
"604 723 OFFCURVE",
"610 722 OFFCURVE",
"615 721 CURVE",
"558 672 OFFCURVE",
"509 614 OFFCURVE",
"468 548 CURVE SMOOTH",
"442 505 OFFCURVE",
"410 442 OFFCURVE",
"372 358 CURVE SMOOTH",
"331 266 OFFCURVE",
"299 198 OFFCURVE",
"275 156 CURVE SMOOTH",
"203 28 OFFCURVE",
"130 -44 OFFCURVE",
"55 -64 CURVE SMOOTH",
"48 -66 OFFCURVE",
"41 -67 OFFCURVE",
"34 -67 CURVE SMOOTH",
"-3 -67 OFFCURVE",
"-23 -55 OFFCURVE",
"-27 -31 CURVE",
"-20 -44 OFFCURVE",
"-9 -51 OFFCURVE",
"6 -51 CURVE SMOOTH",
"35 -52 OFFCURVE",
"51 -37 OFFCURVE",
"52 -6 CURVE SMOOTH",
"53 7 OFFCURVE",
"48 19 OFFCURVE",
"39 29 CURVE SMOOTH",
"30 38 OFFCURVE",
"19 43 OFFCURVE",
"6 44 CURVE SMOOTH",
"-11 45 OFFCURVE",
"-26 37 OFFCURVE",
"-37 22 CURVE SMOOTH",
"-48 7 OFFCURVE",
"-53 -9 OFFCURVE",
"-52 -28 CURVE SMOOTH",
"-49 -73 OFFCURVE",
"-21 -95 OFFCURVE",
"31 -95 CURVE SMOOTH",
"39 -95 OFFCURVE",
"47 -94 OFFCURVE",
"55 -93 CURVE SMOOTH",
"173 -74 OFFCURVE",
"266 -7 OFFCURVE",
"333 108 CURVE SMOOTH",
"366 164 OFFCURVE",
"407 273 OFFCURVE",
"457 434 CURVE SMOOTH",
"496 561 OFFCURVE",
"537 639 OFFCURVE",
"578 666 CURVE",
"565 636 OFFCURVE",
"559 598 OFFCURVE",
"559 552 CURVE SMOOTH",
"559 477 OFFCURVE",
"575 389 OFFCURVE",
"607 287 CURVE SMOOTH",
"634 200 OFFCURVE",
"663 132 OFFCURVE",
"694 82 CURVE",
"687 47 OFFCURVE",
"687 20 OFFCURVE",
"692 0 CURVE SMOOTH"
);
}
);
width = 861;
}
);
note = N;
unicode = 004E;
},
{
glyphname = Eng;
lastChange = "2021-05-11 19:30:45 +0000";
layers = (
{
hints = (
{
horizontal = 1;
place = "{-96, 28}";
type = Stem;
},
{
horizontal = 1;
place = "{-52, 96}";
type = Stem;
},
{
horizontal = 1;
place = "{466, 20}";
type = Stem;
},
{
horizontal = 1;
place = "{642, 86}";
type = Stem;
},
{
horizontal = 1;
place = "{740, 14}";
type = Stem;
},
{
place = "{-52, 104}";
type = Stem;
},
{
place = "{80, 68}";
type = Stem;
},
{
place = "{560, 40}";
type = Stem;
},
{
place = "{1032, 96}";
type = Stem;
},
{
horizontal = 1;
place = "{-262, 28}";
type = Stem;
},
{
horizontal = 1;
place = "{396, 82}";
type = Stem;
},
{
place = "{635, 18}";
type = Stem;
}
);
layerId = "3191725B-F824-48C7-90A0-BAE99CBF9356";
paths = (
{
closed = 1;
nodes = (
"1124 737 OFFCURVE",
"1099 752 OFFCURVE",
"1051 752 CURVE SMOOTH",
"942 752 OFFCURVE",
"854 678 OFFCURVE",
"785 527 CURVE SMOOTH",
"720 382 OFFCURVE",
"687 226 OFFCURVE",
"676 168 CURVE",
"624 323 OFFCURVE",
"598 456 OFFCURVE",
"598 568 CURVE SMOOTH",
"598 646 OFFCURVE",
"614 694 OFFCURVE",
"646 713 CURVE",
"667 701 OFFCURVE",
"684 694 OFFCURVE",
"697 693 CURVE SMOOTH",
"712 692 OFFCURVE",
"725 695 OFFCURVE",
"734 700 CURVE SMOOTH",
"743 705 OFFCURVE",
"747 712 OFFCURVE",
"747 719 CURVE SMOOTH",
"747 736 OFFCURVE",
"731 744 OFFCURVE",
"699 744 CURVE SMOOTH",
"688 744 OFFCURVE",
"676 743 OFFCURVE",
"662 740 CURVE",
"655 743 OFFCURVE",
"646 741 OFFCURVE",
"636 736 CURVE",
"627 737 OFFCURVE",
"621 738 OFFCURVE",
"618 738 CURVE SMOOTH",
"582 742 OFFCURVE",
"543 747 OFFCURVE",
"501 747 CURVE SMOOTH",
"422 747 OFFCURVE",
"351 737 OFFCURVE",
"286 719 CURVE SMOOTH",
"209 697 OFFCURVE",
"153 666 OFFCURVE",
"117 624 CURVE SMOOTH",
"93 596 OFFCURVE",
"80 570 OFFCURVE",
"80 546 CURVE SMOOTH",
"80 521 OFFCURVE",
"92 502 OFFCURVE",
"117 487 CURVE SMOOTH",
"142 472 OFFCURVE",
"173 465 OFFCURVE",
"210 465 CURVE SMOOTH",
"253 465 OFFCURVE",
"294 475 OFFCURVE",
"333 494 CURVE SMOOTH",
"372 513 OFFCURVE",
"402 535 OFFCURVE",
"423 562 CURVE SMOOTH",
"424 563 OFFCURVE",
"424 564 OFFCURVE",
"424 565 CURVE SMOOTH",
"424 570 OFFCURVE",
"421 572 OFFCURVE",
"416 572 CURVE SMOOTH",
"414 572 OFFCURVE",
"412 571 OFFCURVE",
"410 570 CURVE",
"384 544 OFFCURVE",
"353 523 OFFCURVE",
"317 507 CURVE SMOOTH",
"282 492 OFFCURVE",
"250 484 OFFCURVE",
"221 484 CURVE SMOOTH",
"172 484 OFFCURVE",
"148 502 OFFCURVE",
"148 538 CURVE SMOOTH",
"148 582 OFFCURVE",
"186 626 OFFCURVE",
"261 670 CURVE SMOOTH",
"291 687 OFFCURVE",
"331 702 OFFCURVE",
"380 713 CURVE SMOOTH",
"429 723 OFFCURVE",
"478 729 OFFCURVE",
"526 729 CURVE SMOOTH",
"552 729 OFFCURVE",
"576 728 OFFCURVE",
"597 724 CURVE SMOOTH",
"615 721 LINE",
"558 672 OFFCURVE",
"509 614 OFFCURVE",
"468 548 CURVE SMOOTH",
"442 505 OFFCURVE",
"410 442 OFFCURVE",
"372 358 CURVE SMOOTH",
"331 266 OFFCURVE",
"299 198 OFFCURVE",
"275 156 CURVE SMOOTH",
"203 28 OFFCURVE",
"130 -44 OFFCURVE",
"55 -64 CURVE SMOOTH",
"48 -66 OFFCURVE",
"41 -67 OFFCURVE",
"34 -67 CURVE SMOOTH",
"-3 -67 OFFCURVE",
"-23 -55 OFFCURVE",
"-27 -31 CURVE",
"-20 -44 OFFCURVE",
"-9 -51 OFFCURVE",
"6 -51 CURVE SMOOTH",
"35 -52 OFFCURVE",
"51 -37 OFFCURVE",
"52 -6 CURVE SMOOTH",
"53 7 OFFCURVE",
"48 19 OFFCURVE",
"39 29 CURVE SMOOTH",
"30 38 OFFCURVE",
"19 43 OFFCURVE",
"6 44 CURVE SMOOTH",
"-11 45 OFFCURVE",
"-26 37 OFFCURVE",
"-37 22 CURVE SMOOTH",
"-48 7 OFFCURVE",
"-53 -9 OFFCURVE",
"-52 -28 CURVE SMOOTH",
"-49 -73 OFFCURVE",
"-21 -95 OFFCURVE",
"31 -95 CURVE SMOOTH",
"39 -95 OFFCURVE",
"47 -94 OFFCURVE",
"55 -93 CURVE SMOOTH",
"173 -74 OFFCURVE",
"266 -7 OFFCURVE",
"333 108 CURVE SMOOTH",
"366 164 OFFCURVE",
"407 273 OFFCURVE",
"457 434 CURVE SMOOTH",
"496 561 OFFCURVE",
"537 639 OFFCURVE",
"578 666 CURVE",
"565 636 OFFCURVE",
"559 598 OFFCURVE",
"559 552 CURVE SMOOTH",
"559 477 OFFCURVE",
"575 389 OFFCURVE",
"607 287 CURVE SMOOTH",
"629 215 OFFCURVE",
"642 167 OFFCURVE",
"664 125 CURVE",
"663 123 OFFCURVE",
"663 123 OFFCURVE",
"664 124 CURVE",
"616 -18 OFFCURVE",
"609 -14 OFFCURVE",
"581 -85 CURVE SMOOTH",
"558 -142 OFFCURVE",
"542 -180 OFFCURVE",
"531 -200 CURVE SMOOTH",
"503 -251 OFFCURVE",
"475 -276 OFFCURVE",
"448 -276 CURVE SMOOTH",
"413 -276 OFFCURVE",
"395 -255 OFFCURVE",
"395 -213 CURVE SMOOTH",
"395 -206 OFFCURVE",
"396 -198 OFFCURVE",
"397 -191 CURVE",
"380 -192 LINE",
"377 -201 OFFCURVE",
"376 -213 OFFCURVE",
"378 -230 CURVE SMOOTH",
"380 -247 OFFCURVE",
"383 -260 OFFCURVE",
"389 -269 CURVE SMOOTH",
"405 -293 OFFCURVE",
"427 -304 OFFCURVE",
"457 -304 CURVE SMOOTH",
"511 -304 OFFCURVE",
"547 -264 OFFCURVE",
"587 -199 CURVE SMOOTH",
"685 -37 OFFCURVE",
"695 182 OFFCURVE",
"807 441 CURVE SMOOTH",
"869 585 OFFCURVE",
"939 683 OFFCURVE",
"1006 724 CURVE SMOOTH",
"1023 735 OFFCURVE",
"1041 739 OFFCURVE",
"1059 739 CURVE SMOOTH",
"1086 739 OFFCURVE",
"1101 730 OFFCURVE",
"1104 710 CURVE",
"1097 721 OFFCURVE",
"1087 726 OFFCURVE",
"1074 726 CURVE SMOOTH",
"1047 726 OFFCURVE",
"1032 712 OFFCURVE",
"1031 685 CURVE SMOOTH",
"1030 673 OFFCURVE",
"1034 663 OFFCURVE",
"1043 654 CURVE SMOOTH",
"1051 645 OFFCURVE",
"1061 641 OFFCURVE",
"1074 641 CURVE SMOOTH",
"1089 641 OFFCURVE",
"1102 648 OFFCURVE",
"1113 662 CURVE SMOOTH",
"1123 675 OFFCURVE",
"1127 690 OFFCURVE",
"1126 707 CURVE SMOOTH"
);
}
);
width = 1015;
}
);
unicode = 014A;
},
{
glyphname = Ntilde;
lastChange = "2021-05-11 19:30:45 +0000";
layers = (
{
hints = (
{
horizontal = 1;
place = "{-96, 28}";
type = Stem;
},
{
horizontal = 1;
place = "{-52, 96}";
type = Stem;
},
{
horizontal = 1;
place = "{466, 20}";
type = Stem;
},
{
horizontal = 1;
place = "{642, 86}";
type = Stem;
},
{
horizontal = 1;
place = "{740, 14}";
type = Stem;
},
{
place = "{-52, 104}";
type = Stem;
},
{
place = "{80, 68}";
type = Stem;
},
{
place = "{560, 40}";
type = Stem;
},
{
place = "{1032, 96}";
type = Stem;
},
{
horizontal = 1;
place = "{852, 44}";
type = Stem;
}
);
layerId = "3191725B-F824-48C7-90A0-BAE99CBF9356";
paths = (
{
closed = 1;
nodes = (
"699 -28 OFFCURVE",
"712 -42 OFFCURVE",
"731 -42 CURVE SMOOTH",
"742 -42 OFFCURVE",
"750 -38 OFFCURVE",
"757 -29 CURVE SMOOTH",
"764 -20 OFFCURVE",
"767 -11 OFFCURVE",
"767 0 CURVE SMOOTH",
"767 17 OFFCURVE",
"761 35 OFFCURVE",
"747 54 CURVE SMOOTH",
"746 55 OFFCURVE",
"735 67 OFFCURVE",
"714 92 CURVE",
"711 181 OFFCURVE",
"742 298 OFFCURVE",
"807 441 CURVE SMOOTH",
"873 588 OFFCURVE",
"939 683 OFFCURVE",
"1006 724 CURVE SMOOTH",
"1023 735 OFFCURVE",
"1041 739 OFFCURVE",
"1059 739 CURVE SMOOTH",
"1086 739 OFFCURVE",
"1101 730 OFFCURVE",
"1104 710 CURVE",
"1097 721 OFFCURVE",
"1087 726 OFFCURVE",
"1074 726 CURVE SMOOTH",
"1047 726 OFFCURVE",
"1032 712 OFFCURVE",
"1031 685 CURVE SMOOTH",
"1030 673 OFFCURVE",
"1034 663 OFFCURVE",
"1043 654 CURVE SMOOTH",
"1051 645 OFFCURVE",
"1061 641 OFFCURVE",
"1074 641 CURVE SMOOTH",
"1089 641 OFFCURVE",
"1102 648 OFFCURVE",
"1113 662 CURVE SMOOTH",
"1123 675 OFFCURVE",
"1127 690 OFFCURVE",
"1126 707 CURVE SMOOTH",
"1124 737 OFFCURVE",
"1099 752 OFFCURVE",
"1051 752 CURVE SMOOTH",
"942 752 OFFCURVE",
"854 678 OFFCURVE",
"785 527 CURVE SMOOTH",
"730 405 OFFCURVE",
"701 279 OFFCURVE",
"699 150 CURVE SMOOTH",
"699 127 OFFCURVE",
"699 116 OFFCURVE",
"698 116 CURVE SMOOTH",
"696 116 OFFCURVE",
"691 126 OFFCURVE",
"684 146 CURVE SMOOTH",
"626 311 OFFCURVE",
"598 451 OFFCURVE",
"598 568 CURVE SMOOTH",
"598 646 OFFCURVE",
"614 694 OFFCURVE",
"646 713 CURVE",
"667 701 OFFCURVE",
"684 694 OFFCURVE",
"697 693 CURVE SMOOTH",
"712 692 OFFCURVE",
"725 695 OFFCURVE",
"734 700 CURVE SMOOTH",
"743 705 OFFCURVE",
"747 712 OFFCURVE",
"747 719 CURVE SMOOTH",
"747 736 OFFCURVE",
"731 744 OFFCURVE",
"699 744 CURVE SMOOTH",
"688 744 OFFCURVE",
"676 743 OFFCURVE",
"662 740 CURVE",
"655 743 OFFCURVE",
"646 741 OFFCURVE",
"636 736 CURVE",
"627 737 OFFCURVE",
"621 738 OFFCURVE",
"618 738 CURVE SMOOTH",
"582 742 OFFCURVE",
"543 747 OFFCURVE",
"501 747 CURVE SMOOTH",
"422 747 OFFCURVE",
"351 737 OFFCURVE",
"286 719 CURVE SMOOTH",
"209 697 OFFCURVE",
"153 666 OFFCURVE",
"117 624 CURVE SMOOTH",
"93 596 OFFCURVE",
"80 570 OFFCURVE",
"80 546 CURVE SMOOTH",
"80 521 OFFCURVE",
"92 502 OFFCURVE",
"117 487 CURVE SMOOTH",
"142 472 OFFCURVE",
"173 465 OFFCURVE",
"210 465 CURVE SMOOTH",
"253 465 OFFCURVE",
"294 475 OFFCURVE",
"333 494 CURVE SMOOTH",
"372 513 OFFCURVE",
"402 535 OFFCURVE",
"423 562 CURVE SMOOTH",
"424 563 OFFCURVE",
"424 564 OFFCURVE",
"424 565 CURVE SMOOTH",
"424 570 OFFCURVE",
"421 572 OFFCURVE",
"416 572 CURVE SMOOTH",
"414 572 OFFCURVE",
"412 571 OFFCURVE",
"410 570 CURVE",
"384 544 OFFCURVE",
"353 523 OFFCURVE",
"317 507 CURVE SMOOTH",
"282 492 OFFCURVE",
"250 484 OFFCURVE",
"221 484 CURVE SMOOTH",
"172 484 OFFCURVE",
"148 502 OFFCURVE",
"148 538 CURVE SMOOTH",
"148 582 OFFCURVE",
"186 626 OFFCURVE",
"261 670 CURVE SMOOTH",
"291 687 OFFCURVE",
"331 702 OFFCURVE",
"380 713 CURVE SMOOTH",
"429 723 OFFCURVE",
"478 729 OFFCURVE",
"526 729 CURVE SMOOTH",
"552 729 OFFCURVE",
"576 728 OFFCURVE",
"597 724 CURVE SMOOTH",
"604 723 OFFCURVE",
"610 722 OFFCURVE",
"615 721 CURVE",
"558 672 OFFCURVE",
"509 614 OFFCURVE",
"468 548 CURVE SMOOTH",
"442 505 OFFCURVE",
"410 442 OFFCURVE",
"372 358 CURVE SMOOTH",
"331 266 OFFCURVE",
"299 198 OFFCURVE",
"275 156 CURVE SMOOTH",
"203 28 OFFCURVE",
"130 -44 OFFCURVE",
"55 -64 CURVE SMOOTH",
"48 -66 OFFCURVE",
"41 -67 OFFCURVE",
"34 -67 CURVE SMOOTH",
"-3 -67 OFFCURVE",
"-23 -55 OFFCURVE",
"-27 -31 CURVE",
"-20 -44 OFFCURVE",
"-9 -51 OFFCURVE",
"6 -51 CURVE SMOOTH",
"35 -52 OFFCURVE",
"51 -37 OFFCURVE",
"52 -6 CURVE SMOOTH",
"53 7 OFFCURVE",
"48 19 OFFCURVE",
"39 29 CURVE SMOOTH",
"30 38 OFFCURVE",
"19 43 OFFCURVE",
"6 44 CURVE SMOOTH",
"-11 45 OFFCURVE",
"-26 37 OFFCURVE",
"-37 22 CURVE SMOOTH",
"-48 7 OFFCURVE",
"-53 -9 OFFCURVE",
"-52 -28 CURVE SMOOTH",
"-49 -73 OFFCURVE",
"-21 -95 OFFCURVE",
"31 -95 CURVE SMOOTH",
"39 -95 OFFCURVE",
"47 -94 OFFCURVE",
"55 -93 CURVE SMOOTH",
"173 -74 OFFCURVE",
"266 -7 OFFCURVE",
"333 108 CURVE SMOOTH",
"366 164 OFFCURVE",
"407 273 OFFCURVE",
"457 434 CURVE SMOOTH",
"496 561 OFFCURVE",
"537 639 OFFCURVE",
"578 666 CURVE",
"565 636 OFFCURVE",
"559 598 OFFCURVE",
"559 552 CURVE SMOOTH",
"559 477 OFFCURVE",
"575 389 OFFCURVE",
"607 287 CURVE SMOOTH",
"634 200 OFFCURVE",
"663 132 OFFCURVE",
"694 82 CURVE",
"687 47 OFFCURVE",
"687 20 OFFCURVE",
"692 0 CURVE SMOOTH"
);
},
{
closed = 1;
nodes = (
"1005 894 OFFCURVE",
"1002 895 OFFCURVE",
"995 896 CURVE SMOOTH",
"988 897 OFFCURVE",
"984 897 OFFCURVE",
"983 894 CURVE SMOOTH",
"971 869 OFFCURVE",
"953 857 OFFCURVE",
"928 859 CURVE SMOOTH",
"915 860 OFFCURVE",
"895 866 OFFCURVE",
"868 877 CURVE SMOOTH",
"842 888 OFFCURVE",
"822 894 OFFCURVE",
"807 895 CURVE SMOOTH",
"772 898 OFFCURVE",
"739 873 OFFCURVE",
"709 820 CURVE",
"708 817 OFFCURVE",
"711 816 OFFCURVE",
"719 815 CURVE SMOOTH",
"727 814 OFFCURVE",
"731 815 OFFCURVE",
"732 818 CURVE",
"745 842 OFFCURVE",
"763 853 OFFCURVE",
"784 851 CURVE SMOOTH",
"797 850 OFFCURVE",
"817 844 OFFCURVE",
"844 832 CURVE SMOOTH",
"871 820 OFFCURVE",
"891 813 OFFCURVE",
"905 812 CURVE SMOOTH",
"943 809 OFFCURVE",
"976 835 OFFCURVE",
"1004 892 CURVE SMOOTH"
);
}
);
width = 762;
}
);
note = Ntilde;
unicode = 00D1;
},
{
glyphname = O;
lastChange = "2021-05-11 19:30:45 +0000";
layers = (
{
hints = (
{
horizontal = 1;
place = "{-64, 20}";
type = Stem;
},
{
horizontal = 1;
place = "{582, 24}";
type = Stem;
},
{
horizontal = 1;
place = "{652, 20}";
type = Stem;
},
{
horizontal = 1;
place = "{672, 21}";
target = up;
type = BottomGhost;
},
{
place = "{14, 36}";
type = Stem;
},
{
place = "{106, 80}";
type = Stem;
},
{
place = "{748, 56}";
type = Stem;
}
);
layerId = "3191725B-F824-48C7-90A0-BAE99CBF9356";
paths = (
{
closed = 1;
nodes = (
"795 572 OFFCURVE",
"804 596 OFFCURVE",
"804 617 CURVE SMOOTH",
"804 668 OFFCURVE",
"757 693 OFFCURVE",
"664 693 CURVE SMOOTH",
"565 693 OFFCURVE",
"467 662 OFFCURVE",
"372 599 CURVE",
"315 647 OFFCURVE",
"250 671 OFFCURVE",
"176 671 CURVE SMOOTH",
"133 671 OFFCURVE",
"97 662 OFFCURVE",
"67 644 CURVE SMOOTH",
"31 623 OFFCURVE",
"13 592 OFFCURVE",
"13 553 CURVE SMOOTH",
"13 514 OFFCURVE",
"29 477 OFFCURVE",
"62 443 CURVE SMOOTH",
"90 414 OFFCURVE",
"126 393 OFFCURVE",
"167 378 CURVE",
"126 301 OFFCURVE",
"105 226 OFFCURVE",
"105 152 CURVE SMOOTH",
"105 85 OFFCURVE",
"123 33 OFFCURVE",
"159 -6 CURVE SMOOTH",
"194 -45 OFFCURVE",
"245 -64 OFFCURVE",
"311 -64 CURVE SMOOTH",
"406 -64 OFFCURVE",
"495 -32 OFFCURVE",
"576 32 CURVE SMOOTH",
"647 88 OFFCURVE",
"707 164 OFFCURVE",
"754 258 CURVE SMOOTH",
"786 323 OFFCURVE",
"802 384 OFFCURVE",
"802 442 CURVE SMOOTH",
"802 483 OFFCURVE",
"794 518 OFFCURVE",
"777 546 CURVE"
);
},
{
closed = 1;
nodes = (
"761 612 OFFCURVE",
"756 596 OFFCURVE",
"747 579 CURVE",
"725 596 OFFCURVE",
"698 605 OFFCURVE",
"666 605 CURVE SMOOTH",
"639 605 OFFCURVE",
"608 598 OFFCURVE",
"575 585 CURVE SMOOTH",
"568 582 OFFCURVE",
"564 578 OFFCURVE",
"564 572 CURVE SMOOTH",
"564 568 OFFCURVE",
"566 566 OFFCURVE",
"571 566 CURVE SMOOTH",
"573 566 OFFCURVE",
"575 566 OFFCURVE",
"577 567 CURVE SMOOTH",
"596 576 OFFCURVE",
"615 581 OFFCURVE",
"633 581 CURVE SMOOTH",
"666 581 OFFCURVE",
"693 566 OFFCURVE",
"714 537 CURVE",
"704 527 OFFCURVE",
"694 517 OFFCURVE",
"682 508 CURVE SMOOTH",
"602 446 OFFCURVE",
"514 408 OFFCURVE",
"419 390 CURVE SMOOTH",
"373 382 OFFCURVE",
"324 380 OFFCURVE",
"271 385 CURVE",
"307 442 OFFCURVE",
"350 494 OFFCURVE",
"400 539 CURVE",
"415 520 OFFCURVE",
"427 506 OFFCURVE",
"434 497 CURVE SMOOTH",
"437 492 OFFCURVE",
"442 490 OFFCURVE",
"448 491 CURVE SMOOTH",
"454 492 OFFCURVE",
"455 495 OFFCURVE",
"452 500 CURVE SMOOTH",
"442 519 OFFCURVE",
"430 537 OFFCURVE",
"417 553 CURVE",
"511 632 OFFCURVE",
"602 672 OFFCURVE",
"691 672 CURVE SMOOTH",
"738 672 OFFCURVE",
"761 657 OFFCURVE",
"761 627 CURVE SMOOTH"
);
},
{
closed = 1;
nodes = (
"280 534 OFFCURVE",
"224 474 OFFCURVE",
"181 404 CURVE",
"93 433 OFFCURVE",
"49 484 OFFCURVE",
"49 557 CURVE SMOOTH",
"49 588 OFFCURVE",
"61 612 OFFCURVE",
"85 629 CURVE SMOOTH",
"106 644 OFFCURVE",
"132 652 OFFCURVE",
"165 652 CURVE SMOOTH",
"228 652 OFFCURVE",
"289 629 OFFCURVE",
"350 584 CURVE"
);
},
{
closed = 1;
nodes = (
"743 475 OFFCURVE",
"747 449 OFFCURVE",
"747 420 CURVE SMOOTH",
"747 365 OFFCURVE",
"733 310 OFFCURVE",
"705 254 CURVE SMOOTH",
"665 174 OFFCURVE",
"613 108 OFFCURVE",
"552 53 CURVE SMOOTH",
"479 -12 OFFCURVE",
"406 -44 OFFCURVE",
"331 -44 CURVE SMOOTH",
"281 -44 OFFCURVE",
"243 -27 OFFCURVE",
"218 8 CURVE SMOOTH",
"196 38 OFFCURVE",
"185 79 OFFCURVE",
"185 131 CURVE SMOOTH",
"185 202 OFFCURVE",
"208 278 OFFCURVE",
"255 359 CURVE",
"276 356 OFFCURVE",
"298 355 OFFCURVE",
"321 355 CURVE SMOOTH",
"395 355 OFFCURVE",
"468 367 OFFCURVE",
"541 390 CURVE SMOOTH",
"621 416 OFFCURVE",
"685 452 OFFCURVE",
"734 498 CURVE"
);
}
);
width = 737;
}
);
note = O;
unicode = 004F;
},
{
glyphname = Oacute;
lastChange = "2021-05-11 19:30:45 +0000";
layers = (
{
hints = (
{
horizontal = 1;
place = "{-64, 20}";
type = Stem;
},
{
horizontal = 1;
place = "{582, 24}";
type = Stem;
},
{
horizontal = 1;
place = "{652, 20}";
type = Stem;
},
{
horizontal = 1;
place = "{672, 21}";
target = up;
type = BottomGhost;
},
{
place = "{14, 36}";
type = Stem;
},
{
place = "{106, 80}";
type = Stem;
},
{
place = "{748, 56}";
type = Stem;
}
);
layerId = "3191725B-F824-48C7-90A0-BAE99CBF9356";
paths = (
{
closed = 1;
nodes = (
"795 572 OFFCURVE",
"804 596 OFFCURVE",
"804 617 CURVE SMOOTH",
"804 668 OFFCURVE",
"757 693 OFFCURVE",
"664 693 CURVE SMOOTH",
"565 693 OFFCURVE",
"467 662 OFFCURVE",
"372 599 CURVE",
"315 647 OFFCURVE",
"250 671 OFFCURVE",
"176 671 CURVE SMOOTH",
"133 671 OFFCURVE",
"97 662 OFFCURVE",
"67 644 CURVE SMOOTH",
"31 623 OFFCURVE",
"13 592 OFFCURVE",
"13 553 CURVE SMOOTH",
"13 514 OFFCURVE",
"29 477 OFFCURVE",
"62 443 CURVE SMOOTH",
"90 414 OFFCURVE",
"126 393 OFFCURVE",
"167 378 CURVE",
"126 301 OFFCURVE",
"105 226 OFFCURVE",
"105 152 CURVE SMOOTH",
"105 85 OFFCURVE",
"123 33 OFFCURVE",
"159 -6 CURVE SMOOTH",
"194 -45 OFFCURVE",
"245 -64 OFFCURVE",
"311 -64 CURVE SMOOTH",
"406 -64 OFFCURVE",
"495 -32 OFFCURVE",
"576 32 CURVE SMOOTH",
"647 88 OFFCURVE",
"707 164 OFFCURVE",
"754 258 CURVE SMOOTH",
"786 323 OFFCURVE",
"802 384 OFFCURVE",
"802 442 CURVE SMOOTH",
"802 483 OFFCURVE",
"794 518 OFFCURVE",
"777 546 CURVE"
);
},
{
closed = 1;
nodes = (
"761 612 OFFCURVE",
"756 596 OFFCURVE",
"747 579 CURVE",
"725 596 OFFCURVE",
"698 605 OFFCURVE",
"666 605 CURVE SMOOTH",
"639 605 OFFCURVE",
"608 598 OFFCURVE",
"575 585 CURVE SMOOTH",
"568 582 OFFCURVE",
"564 578 OFFCURVE",
"564 572 CURVE SMOOTH",
"564 568 OFFCURVE",
"566 566 OFFCURVE",
"571 566 CURVE SMOOTH",
"573 566 OFFCURVE",
"575 566 OFFCURVE",
"577 567 CURVE SMOOTH",
"596 576 OFFCURVE",
"615 581 OFFCURVE",
"633 581 CURVE SMOOTH",
"666 581 OFFCURVE",
"693 566 OFFCURVE",
"714 537 CURVE",
"704 527 OFFCURVE",
"694 517 OFFCURVE",
"682 508 CURVE SMOOTH",
"602 446 OFFCURVE",
"514 408 OFFCURVE",
"419 390 CURVE SMOOTH",
"373 382 OFFCURVE",
"324 380 OFFCURVE",
"271 385 CURVE",
"307 442 OFFCURVE",
"350 494 OFFCURVE",
"400 539 CURVE",
"415 520 OFFCURVE",
"427 506 OFFCURVE",
"434 497 CURVE SMOOTH",
"437 492 OFFCURVE",
"442 490 OFFCURVE",
"448 491 CURVE SMOOTH",
"454 492 OFFCURVE",
"455 495 OFFCURVE",
"452 500 CURVE SMOOTH",
"442 519 OFFCURVE",
"430 537 OFFCURVE",
"417 553 CURVE",
"511 632 OFFCURVE",
"602 672 OFFCURVE",
"691 672 CURVE SMOOTH",
"738 672 OFFCURVE",
"761 657 OFFCURVE",
"761 627 CURVE SMOOTH"
);
},
{
closed = 1;
nodes = (
"280 534 OFFCURVE",
"224 474 OFFCURVE",
"181 404 CURVE",
"93 433 OFFCURVE",
"49 484 OFFCURVE",
"49 557 CURVE SMOOTH",
"49 588 OFFCURVE",
"61 612 OFFCURVE",
"85 629 CURVE SMOOTH",
"106 644 OFFCURVE",
"132 652 OFFCURVE",
"165 652 CURVE SMOOTH",
"228 652 OFFCURVE",
"289 629 OFFCURVE",
"350 584 CURVE"
);
},
{
closed = 1;
nodes = (
"743 475 OFFCURVE",
"747 449 OFFCURVE",
"747 420 CURVE SMOOTH",
"747 365 OFFCURVE",
"733 310 OFFCURVE",
"705 254 CURVE SMOOTH",
"665 174 OFFCURVE",
"613 108 OFFCURVE",
"552 53 CURVE SMOOTH",
"479 -12 OFFCURVE",
"406 -44 OFFCURVE",
"331 -44 CURVE SMOOTH",
"281 -44 OFFCURVE",
"243 -27 OFFCURVE",
"218 8 CURVE SMOOTH",
"196 38 OFFCURVE",
"185 79 OFFCURVE",
"185 131 CURVE SMOOTH",
"185 202 OFFCURVE",
"208 278 OFFCURVE",
"255 359 CURVE",
"276 356 OFFCURVE",
"298 355 OFFCURVE",
"321 355 CURVE SMOOTH",
"395 355 OFFCURVE",
"468 367 OFFCURVE",
"541 390 CURVE SMOOTH",
"621 416 OFFCURVE",
"685 452 OFFCURVE",
"734 498 CURVE"
);
},
{
closed = 1;
nodes = (
"874 837 OFFCURVE",
"871 846 OFFCURVE",
"859 852 CURVE SMOOTH",
"854 855 OFFCURVE",
"848 856 OFFCURVE",
"842 856 CURVE SMOOTH",
"829 856 OFFCURVE",
"816 851 OFFCURVE",
"801 840 CURVE SMOOTH",
"754 805 OFFCURVE",
"713 775 OFFCURVE",
"678 749 CURVE",
"675 743 OFFCURVE",
"676 739 OFFCURVE",
"681 736 CURVE SMOOTH",
"685 734 OFFCURVE",
"716 747 OFFCURVE",
"775 774 CURVE SMOOTH",
"833 801 OFFCURVE",
"864 818 OFFCURVE",
"868 825 CURVE SMOOTH"
);
}
);
width = 699;
}
);
note = Oacute;
unicode = 00D3;
},
{
glyphname = Ocircumflex;
lastChange = "2021-05-11 19:30:45 +0000";
layers = (
{
hints = (
{
horizontal = 1;
place = "{-64, 20}";
type = Stem;
},
{
horizontal = 1;
place = "{582, 24}";
type = Stem;
},
{
horizontal = 1;
place = "{652, 20}";
type = Stem;
},
{
horizontal = 1;
place = "{672, 21}";
target = up;
type = BottomGhost;
},
{
place = "{14, 36}";
type = Stem;
},
{
place = "{106, 80}";
type = Stem;
},
{
place = "{748, 56}";
type = Stem;
},
{
horizontal = 1;
place = "{720, 20}";
type = Stem;
}
);
layerId = "3191725B-F824-48C7-90A0-BAE99CBF9356";
paths = (
{
closed = 1;
nodes = (
"795 572 OFFCURVE",
"804 596 OFFCURVE",
"804 617 CURVE SMOOTH",
"804 668 OFFCURVE",
"757 693 OFFCURVE",
"664 693 CURVE SMOOTH",
"565 693 OFFCURVE",
"467 662 OFFCURVE",
"372 599 CURVE",
"315 647 OFFCURVE",
"250 671 OFFCURVE",
"176 671 CURVE SMOOTH",
"133 671 OFFCURVE",
"97 662 OFFCURVE",
"67 644 CURVE SMOOTH",
"31 623 OFFCURVE",
"13 592 OFFCURVE",
"13 553 CURVE SMOOTH",
"13 514 OFFCURVE",
"29 477 OFFCURVE",
"62 443 CURVE SMOOTH",
"90 414 OFFCURVE",
"126 393 OFFCURVE",
"167 378 CURVE",
"126 301 OFFCURVE",
"105 226 OFFCURVE",
"105 152 CURVE SMOOTH",
"105 85 OFFCURVE",
"123 33 OFFCURVE",
"159 -6 CURVE SMOOTH",
"194 -45 OFFCURVE",
"245 -64 OFFCURVE",
"311 -64 CURVE SMOOTH",
"406 -64 OFFCURVE",
"495 -32 OFFCURVE",
"576 32 CURVE SMOOTH",
"647 88 OFFCURVE",
"707 164 OFFCURVE",
"754 258 CURVE SMOOTH",
"786 323 OFFCURVE",
"802 384 OFFCURVE",
"802 442 CURVE SMOOTH",
"802 483 OFFCURVE",
"794 518 OFFCURVE",
"777 546 CURVE"
);
},
{
closed = 1;
nodes = (
"761 612 OFFCURVE",
"756 596 OFFCURVE",
"747 579 CURVE",
"725 596 OFFCURVE",
"698 605 OFFCURVE",
"666 605 CURVE SMOOTH",
"639 605 OFFCURVE",
"608 598 OFFCURVE",
"575 585 CURVE SMOOTH",
"568 582 OFFCURVE",
"564 578 OFFCURVE",
"564 572 CURVE SMOOTH",
"564 568 OFFCURVE",
"566 566 OFFCURVE",
"571 566 CURVE SMOOTH",
"573 566 OFFCURVE",
"575 566 OFFCURVE",
"577 567 CURVE SMOOTH",
"596 576 OFFCURVE",
"615 581 OFFCURVE",
"633 581 CURVE SMOOTH",
"666 581 OFFCURVE",
"693 566 OFFCURVE",
"714 537 CURVE",
"704 527 OFFCURVE",
"694 517 OFFCURVE",
"682 508 CURVE SMOOTH",
"602 446 OFFCURVE",
"514 408 OFFCURVE",
"419 390 CURVE SMOOTH",
"373 382 OFFCURVE",
"324 380 OFFCURVE",
"271 385 CURVE",
"307 442 OFFCURVE",
"350 494 OFFCURVE",
"400 539 CURVE",
"415 520 OFFCURVE",
"427 506 OFFCURVE",
"434 497 CURVE SMOOTH",
"437 492 OFFCURVE",
"442 490 OFFCURVE",
"448 491 CURVE SMOOTH",
"454 492 OFFCURVE",
"455 495 OFFCURVE",
"452 500 CURVE SMOOTH",
"442 519 OFFCURVE",
"430 537 OFFCURVE",
"417 553 CURVE",
"511 632 OFFCURVE",
"602 672 OFFCURVE",
"691 672 CURVE SMOOTH",
"738 672 OFFCURVE",
"761 657 OFFCURVE",
"761 627 CURVE SMOOTH"
);
},
{
closed = 1;
nodes = (
"280 534 OFFCURVE",
"224 474 OFFCURVE",
"181 404 CURVE",
"93 433 OFFCURVE",
"49 484 OFFCURVE",
"49 557 CURVE SMOOTH",
"49 588 OFFCURVE",
"61 612 OFFCURVE",
"85 629 CURVE SMOOTH",
"106 644 OFFCURVE",
"132 652 OFFCURVE",
"165 652 CURVE SMOOTH",
"228 652 OFFCURVE",
"289 629 OFFCURVE",
"350 584 CURVE"
);
},
{
closed = 1;
nodes = (
"743 475 OFFCURVE",
"747 449 OFFCURVE",
"747 420 CURVE SMOOTH",
"747 365 OFFCURVE",
"733 310 OFFCURVE",
"705 254 CURVE SMOOTH",
"665 174 OFFCURVE",
"613 108 OFFCURVE",
"552 53 CURVE SMOOTH",
"479 -12 OFFCURVE",
"406 -44 OFFCURVE",
"331 -44 CURVE SMOOTH",
"281 -44 OFFCURVE",
"243 -27 OFFCURVE",
"218 8 CURVE SMOOTH",
"196 38 OFFCURVE",
"185 79 OFFCURVE",
"185 131 CURVE SMOOTH",
"185 202 OFFCURVE",
"208 278 OFFCURVE",
"255 359 CURVE",
"276 356 OFFCURVE",
"298 355 OFFCURVE",
"321 355 CURVE SMOOTH",
"395 355 OFFCURVE",
"468 367 OFFCURVE",
"541 390 CURVE SMOOTH",
"621 416 OFFCURVE",
"685 452 OFFCURVE",
"734 498 CURVE"
);
},
{
closed = 1;
nodes = (
"763 857 LINE SMOOTH",
"762 861 OFFCURVE",
"746 861 OFFCURVE",
"716 857 CURVE",
"533 727 LINE SMOOTH",
"532 726 OFFCURVE",
"532 725 OFFCURVE",
"532 724 CURVE SMOOTH",
"532 721 OFFCURVE",
"536 721 OFFCURVE",
"544 721 CURVE SMOOTH",
"553 721 OFFCURVE",
"559 723 OFFCURVE",
"564 727 CURVE",
"726 814 LINE",
"782 727 LINE SMOOTH",
"784 724 OFFCURVE",
"787 722 OFFCURVE",
"792 721 CURVE SMOOTH",
"797 720 OFFCURVE",
"801 719 OFFCURVE",
"804 720 CURVE SMOOTH",
"807 721 OFFCURVE",
"808 724 OFFCURVE",
"807 727 CURVE SMOOTH"
);
}
);
width = 699;
}
);
note = Ocircumflex;
unicode = 00D4;
},
{
glyphname = Odieresis;
lastChange = "2021-05-11 19:30:45 +0000";
layers = (
{
hints = (
{
horizontal = 1;
place = "{-64, 20}";
type = Stem;
},
{
horizontal = 1;
place = "{582, 24}";
type = Stem;
},
{
horizontal = 1;
place = "{652, 20}";
type = Stem;
},
{
horizontal = 1;
place = "{672, 21}";
target = up;
type = BottomGhost;
},
{
place = "{14, 36}";
type = Stem;
},
{
place = "{106, 80}";
type = Stem;
},
{
place = "{748, 56}";
type = Stem;
},
{
horizontal = 1;
place = "{750, 66}";
type = Stem;
},
{
place = "{608, 66}";
type = Stem;
},
{
place = "{738, 66}";
type = Stem;
}
);
layerId = "3191725B-F824-48C7-90A0-BAE99CBF9356";
paths = (
{
closed = 1;
nodes = (
"795 572 OFFCURVE",
"804 596 OFFCURVE",
"804 617 CURVE SMOOTH",
"804 668 OFFCURVE",
"757 693 OFFCURVE",
"664 693 CURVE SMOOTH",
"565 693 OFFCURVE",
"467 662 OFFCURVE",
"372 599 CURVE",
"315 647 OFFCURVE",
"250 671 OFFCURVE",
"176 671 CURVE SMOOTH",
"133 671 OFFCURVE",
"97 662 OFFCURVE",
"67 644 CURVE SMOOTH",
"31 623 OFFCURVE",
"13 592 OFFCURVE",
"13 553 CURVE SMOOTH",
"13 514 OFFCURVE",
"29 477 OFFCURVE",
"62 443 CURVE SMOOTH",
"90 414 OFFCURVE",
"126 393 OFFCURVE",
"167 378 CURVE",
"126 301 OFFCURVE",
"105 226 OFFCURVE",
"105 152 CURVE SMOOTH",
"105 85 OFFCURVE",
"123 33 OFFCURVE",
"159 -6 CURVE SMOOTH",
"194 -45 OFFCURVE",
"245 -64 OFFCURVE",
"311 -64 CURVE SMOOTH",
"406 -64 OFFCURVE",
"495 -32 OFFCURVE",
"576 32 CURVE SMOOTH",
"647 88 OFFCURVE",
"707 164 OFFCURVE",
"754 258 CURVE SMOOTH",
"786 323 OFFCURVE",
"802 384 OFFCURVE",
"802 442 CURVE SMOOTH",
"802 483 OFFCURVE",
"794 518 OFFCURVE",
"777 546 CURVE"
);
},
{
closed = 1;
nodes = (
"761 612 OFFCURVE",
"756 596 OFFCURVE",
"747 579 CURVE",
"725 596 OFFCURVE",
"698 605 OFFCURVE",
"666 605 CURVE SMOOTH",
"639 605 OFFCURVE",
"608 598 OFFCURVE",
"575 585 CURVE SMOOTH",
"568 582 OFFCURVE",
"564 578 OFFCURVE",
"564 572 CURVE SMOOTH",
"564 568 OFFCURVE",
"566 566 OFFCURVE",
"571 566 CURVE SMOOTH",
"573 566 OFFCURVE",
"575 566 OFFCURVE",
"577 567 CURVE SMOOTH",
"596 576 OFFCURVE",
"615 581 OFFCURVE",
"633 581 CURVE SMOOTH",
"666 581 OFFCURVE",
"693 566 OFFCURVE",
"714 537 CURVE",
"704 527 OFFCURVE",
"694 517 OFFCURVE",
"682 508 CURVE SMOOTH",
"602 446 OFFCURVE",
"514 408 OFFCURVE",
"419 390 CURVE SMOOTH",
"373 382 OFFCURVE",
"324 380 OFFCURVE",
"271 385 CURVE",
"307 442 OFFCURVE",
"350 494 OFFCURVE",
"400 539 CURVE",
"415 520 OFFCURVE",
"427 506 OFFCURVE",
"434 497 CURVE SMOOTH",
"437 492 OFFCURVE",
"442 490 OFFCURVE",
"448 491 CURVE SMOOTH",
"454 492 OFFCURVE",
"455 495 OFFCURVE",
"452 500 CURVE SMOOTH",
"442 519 OFFCURVE",
"430 537 OFFCURVE",
"417 553 CURVE",
"511 632 OFFCURVE",
"602 672 OFFCURVE",
"691 672 CURVE SMOOTH",
"738 672 OFFCURVE",
"761 657 OFFCURVE",
"761 627 CURVE SMOOTH"
);
},
{
closed = 1;
nodes = (
"280 534 OFFCURVE",
"224 474 OFFCURVE",
"181 404 CURVE",
"93 433 OFFCURVE",
"49 484 OFFCURVE",
"49 557 CURVE SMOOTH",
"49 588 OFFCURVE",
"61 612 OFFCURVE",
"85 629 CURVE SMOOTH",
"106 644 OFFCURVE",
"132 652 OFFCURVE",
"165 652 CURVE SMOOTH",
"228 652 OFFCURVE",
"289 629 OFFCURVE",
"350 584 CURVE"
);
},
{
closed = 1;
nodes = (
"743 475 OFFCURVE",
"747 449 OFFCURVE",
"747 420 CURVE SMOOTH",
"747 365 OFFCURVE",
"733 310 OFFCURVE",
"705 254 CURVE SMOOTH",
"665 174 OFFCURVE",
"613 108 OFFCURVE",
"552 53 CURVE SMOOTH",
"479 -12 OFFCURVE",
"406 -44 OFFCURVE",
"331 -44 CURVE SMOOTH",
"281 -44 OFFCURVE",
"243 -27 OFFCURVE",
"218 8 CURVE SMOOTH",
"196 38 OFFCURVE",
"185 79 OFFCURVE",
"185 131 CURVE SMOOTH",
"185 202 OFFCURVE",
"208 278 OFFCURVE",
"255 359 CURVE",
"276 356 OFFCURVE",
"298 355 OFFCURVE",
"321 355 CURVE SMOOTH",
"395 355 OFFCURVE",
"468 367 OFFCURVE",
"541 390 CURVE SMOOTH",
"621 416 OFFCURVE",
"685 452 OFFCURVE",
"734 498 CURVE"
);
},
{
closed = 1;
nodes = (
"803 804 OFFCURVE",
"792 815 OFFCURVE",
"769 815 CURVE SMOOTH",
"748 815 OFFCURVE",
"737 804 OFFCURVE",
"737 782 CURVE SMOOTH",
"737 760 OFFCURVE",
"748 749 OFFCURVE",
"771 749 CURVE SMOOTH",
"792 749 OFFCURVE",
"803 760 OFFCURVE",
"803 782 CURVE SMOOTH"
);
},
{
closed = 1;
nodes = (
"674 804 OFFCURVE",
"663 815 OFFCURVE",
"640 815 CURVE SMOOTH",
"619 815 OFFCURVE",
"608 804 OFFCURVE",
"608 782 CURVE SMOOTH",
"608 760 OFFCURVE",
"619 749 OFFCURVE",
"642 749 CURVE SMOOTH",
"663 749 OFFCURVE",
"674 760 OFFCURVE",
"674 782 CURVE SMOOTH"
);
}
);
width = 699;
}
);
note = Odieresis;
unicode = 00D6;
},
{
glyphname = Ograve;
lastChange = "2021-05-11 19:30:45 +0000";
layers = (
{
hints = (
{
horizontal = 1;
place = "{-64, 20}";
type = Stem;
},
{
horizontal = 1;
place = "{582, 24}";
type = Stem;
},
{
horizontal = 1;
place = "{652, 20}";
type = Stem;
},
{
horizontal = 1;
place = "{672, 21}";
target = up;
type = BottomGhost;
},
{
place = "{14, 36}";
type = Stem;
},
{
place = "{106, 80}";
type = Stem;
},
{
place = "{748, 56}";
type = Stem;
}
);
layerId = "3191725B-F824-48C7-90A0-BAE99CBF9356";
paths = (
{
closed = 1;
nodes = (
"795 572 OFFCURVE",
"804 596 OFFCURVE",
"804 617 CURVE SMOOTH",
"804 668 OFFCURVE",
"757 693 OFFCURVE",
"664 693 CURVE SMOOTH",
"565 693 OFFCURVE",
"467 662 OFFCURVE",
"372 599 CURVE",
"315 647 OFFCURVE",
"250 671 OFFCURVE",
"176 671 CURVE SMOOTH",
"133 671 OFFCURVE",
"97 662 OFFCURVE",
"67 644 CURVE SMOOTH",
"31 623 OFFCURVE",
"13 592 OFFCURVE",
"13 553 CURVE SMOOTH",
"13 514 OFFCURVE",
"29 477 OFFCURVE",
"62 443 CURVE SMOOTH",
"90 414 OFFCURVE",
"126 393 OFFCURVE",
"167 378 CURVE",
"126 301 OFFCURVE",
"105 226 OFFCURVE",
"105 152 CURVE SMOOTH",
"105 85 OFFCURVE",
"123 33 OFFCURVE",
"159 -6 CURVE SMOOTH",
"194 -45 OFFCURVE",
"245 -64 OFFCURVE",
"311 -64 CURVE SMOOTH",
"406 -64 OFFCURVE",
"495 -32 OFFCURVE",
"576 32 CURVE SMOOTH",
"647 88 OFFCURVE",
"707 164 OFFCURVE",
"754 258 CURVE SMOOTH",
"786 323 OFFCURVE",
"802 384 OFFCURVE",
"802 442 CURVE SMOOTH",
"802 483 OFFCURVE",
"794 518 OFFCURVE",
"777 546 CURVE"
);
},
{
closed = 1;
nodes = (
"761 612 OFFCURVE",
"756 596 OFFCURVE",
"747 579 CURVE",
"725 596 OFFCURVE",
"698 605 OFFCURVE",
"666 605 CURVE SMOOTH",
"639 605 OFFCURVE",
"608 598 OFFCURVE",
"575 585 CURVE SMOOTH",
"568 582 OFFCURVE",
"564 578 OFFCURVE",
"564 572 CURVE SMOOTH",
"564 568 OFFCURVE",
"566 566 OFFCURVE",
"571 566 CURVE SMOOTH",
"573 566 OFFCURVE",
"575 566 OFFCURVE",
"577 567 CURVE SMOOTH",
"596 576 OFFCURVE",
"615 581 OFFCURVE",
"633 581 CURVE SMOOTH",
"666 581 OFFCURVE",
"693 566 OFFCURVE",
"714 537 CURVE",
"704 527 OFFCURVE",
"694 517 OFFCURVE",
"682 508 CURVE SMOOTH",
"602 446 OFFCURVE",
"514 408 OFFCURVE",
"419 390 CURVE SMOOTH",
"373 382 OFFCURVE",
"324 380 OFFCURVE",
"271 385 CURVE",
"307 442 OFFCURVE",
"350 494 OFFCURVE",
"400 539 CURVE",
"415 520 OFFCURVE",
"427 506 OFFCURVE",
"434 497 CURVE SMOOTH",
"437 492 OFFCURVE",
"442 490 OFFCURVE",
"448 491 CURVE SMOOTH",
"454 492 OFFCURVE",
"455 495 OFFCURVE",
"452 500 CURVE SMOOTH",
"442 519 OFFCURVE",
"430 537 OFFCURVE",
"417 553 CURVE",
"511 632 OFFCURVE",
"602 672 OFFCURVE",
"691 672 CURVE SMOOTH",
"738 672 OFFCURVE",
"761 657 OFFCURVE",
"761 627 CURVE SMOOTH"
);
},
{
closed = 1;
nodes = (
"280 534 OFFCURVE",
"224 474 OFFCURVE",
"181 404 CURVE",
"93 433 OFFCURVE",
"49 484 OFFCURVE",
"49 557 CURVE SMOOTH",
"49 588 OFFCURVE",
"61 612 OFFCURVE",
"85 629 CURVE SMOOTH",
"106 644 OFFCURVE",
"132 652 OFFCURVE",
"165 652 CURVE SMOOTH",
"228 652 OFFCURVE",
"289 629 OFFCURVE",
"350 584 CURVE"
);
},
{
closed = 1;
nodes = (
"743 475 OFFCURVE",
"747 449 OFFCURVE",
"747 420 CURVE SMOOTH",
"747 365 OFFCURVE",
"733 310 OFFCURVE",
"705 254 CURVE SMOOTH",
"665 174 OFFCURVE",
"613 108 OFFCURVE",
"552 53 CURVE SMOOTH",
"479 -12 OFFCURVE",
"406 -44 OFFCURVE",
"331 -44 CURVE SMOOTH",
"281 -44 OFFCURVE",
"243 -27 OFFCURVE",
"218 8 CURVE SMOOTH",
"196 38 OFFCURVE",
"185 79 OFFCURVE",
"185 131 CURVE SMOOTH",
"185 202 OFFCURVE",
"208 278 OFFCURVE",
"255 359 CURVE",
"276 356 OFFCURVE",
"298 355 OFFCURVE",
"321 355 CURVE SMOOTH",
"395 355 OFFCURVE",
"468 367 OFFCURVE",
"541 390 CURVE SMOOTH",
"621 416 OFFCURVE",
"685 452 OFFCURVE",
"734 498 CURVE"
);
},
{
closed = 1;
nodes = (
"748 743 OFFCURVE",
"723 765 OFFCURVE",
"672 805 CURVE SMOOTH",
"621 845 OFFCURVE",
"592 865 OFFCURVE",
"583 865 CURVE SMOOTH",
"570 865 OFFCURVE",
"564 858 OFFCURVE",
"564 844 CURVE SMOOTH",
"564 826 OFFCURVE",
"576 811 OFFCURVE",
"601 798 CURVE SMOOTH",
"625 786 OFFCURVE",
"649 774 OFFCURVE",
"673 761 CURVE SMOOTH",
"712 740 OFFCURVE",
"734 730 OFFCURVE",
"738 730 CURVE SMOOTH",
"745 730 OFFCURVE",
"748 733 OFFCURVE",
"748 739 CURVE SMOOTH"
);
}
);
width = 699;
}
);
note = Ograve;
unicode = 00D2;
},
{
glyphname = Oslash;
lastChange = "2021-05-11 19:30:45 +0000";
layers = (
{
hints = (
{
horizontal = 1;
place = "{356, 244}";
type = Stem;
},
{
horizontal = 1;
place = "{652, 20}";
type = Stem;
},
{
horizontal = 1;
place = "{808, 38}";
type = Stem;
},
{
place = "{14, 36}";
type = Stem;
},
{
place = "{106, 80}";
type = Stem;
},
{
place = "{748, 56}";
type = Stem;
}
);
layerId = "3191725B-F824-48C7-90A0-BAE99CBF9356";
paths = (
{
closed = 1;
nodes = (
"810 839 OFFCURVE",
"795 845 OFFCURVE",
"779 845 CURVE SMOOTH",
"732 845 OFFCURVE",
"677 793 OFFCURVE",
"614 690 CURVE",
"531 681 OFFCURVE",
"450 650 OFFCURVE",
"372 599 CURVE",
"315 647 OFFCURVE",
"250 671 OFFCURVE",
"176 671 CURVE SMOOTH",
"133 671 OFFCURVE",
"97 662 OFFCURVE",
"67 644 CURVE SMOOTH",
"31 623 OFFCURVE",
"13 592 OFFCURVE",
"13 553 CURVE SMOOTH",
"13 514 OFFCURVE",
"29 477 OFFCURVE",
"62 443 CURVE SMOOTH",
"90 414 OFFCURVE",
"126 393 OFFCURVE",
"167 378 CURVE",
"126 301 OFFCURVE",
"105 226 OFFCURVE",
"105 152 CURVE SMOOTH",
"105 94 OFFCURVE",
"119 46 OFFCURVE",
"146 9 CURVE SMOOTH",
"173 -28 OFFCURVE",
"212 -51 OFFCURVE",
"263 -60 CURVE",
"234 -113 OFFCURVE",
"206 -158 OFFCURVE",
"181 -197 CURVE SMOOTH",
"176 -204 OFFCURVE",
"174 -211 OFFCURVE",
"174 -217 CURVE SMOOTH",
"174 -222 OFFCURVE",
"176 -224 OFFCURVE",
"179 -224 CURVE SMOOTH",
"183 -224 OFFCURVE",
"188 -221 OFFCURVE",
"193 -215 CURVE SMOOTH",
"222 -182 OFFCURVE",
"257 -132 OFFCURVE",
"296 -64 CURVE",
"301 -64 OFFCURVE",
"306 -64 OFFCURVE",
"311 -64 CURVE SMOOTH",
"406 -64 OFFCURVE",
"495 -32 OFFCURVE",
"576 32 CURVE SMOOTH",
"647 88 OFFCURVE",
"707 164 OFFCURVE",
"754 258 CURVE SMOOTH",
"786 323 OFFCURVE",
"802 384 OFFCURVE",
"802 442 CURVE SMOOTH",
"802 483 OFFCURVE",
"794 518 OFFCURVE",
"777 546 CURVE",
"795 572 OFFCURVE",
"804 596 OFFCURVE",
"804 617 CURVE SMOOTH",
"804 663 OFFCURVE",
"764 688 OFFCURVE",
"685 692 CURVE",
"734 769 OFFCURVE",
"771 808 OFFCURVE",
"796 808 CURVE SMOOTH",
"803 808 OFFCURVE",
"809 805 OFFCURVE",
"816 798 CURVE SMOOTH",
"822 792 OFFCURVE",
"827 789 OFFCURVE",
"830 789 CURVE SMOOTH",
"834 789 OFFCURVE",
"836 792 OFFCURVE",
"836 798 CURVE SMOOTH",
"836 809 OFFCURVE",
"832 819 OFFCURVE",
"824 826 CURVE SMOOTH"
);
},
{
closed = 1;
nodes = (
"761 612 OFFCURVE",
"756 596 OFFCURVE",
"747 579 CURVE",
"734 589 OFFCURVE",
"723 594 OFFCURVE",
"712 593 CURVE SMOOTH",
"702 592 OFFCURVE",
"697 587 OFFCURVE",
"697 577 CURVE SMOOTH",
"697 566 OFFCURVE",
"703 553 OFFCURVE",
"714 537 CURVE",
"704 527 OFFCURVE",
"694 517 OFFCURVE",
"682 508 CURVE SMOOTH",
"642 476 OFFCURVE",
"594 450 OFFCURVE",
"540 427 CURVE",
"592 531 OFFCURVE",
"636 612 OFFCURVE",
"672 671 CURVE",
"678 672 OFFCURVE",
"684 672 OFFCURVE",
"691 672 CURVE SMOOTH",
"738 672 OFFCURVE",
"761 657 OFFCURVE",
"761 627 CURVE SMOOTH"
);
},
{
closed = 1;
nodes = (
"557 590 OFFCURVE",
"516 505 OFFCURVE",
"471 402 CURVE",
"453 397 OFFCURVE",
"436 393 OFFCURVE",
"419 390 CURVE SMOOTH",
"373 382 OFFCURVE",
"324 380 OFFCURVE",
"271 385 CURVE",
"307 442 OFFCURVE",
"350 494 OFFCURVE",
"400 539 CURVE",
"415 520 OFFCURVE",
"427 506 OFFCURVE",
"434 497 CURVE SMOOTH",
"437 492 OFFCURVE",
"442 490 OFFCURVE",
"448 491 CURVE SMOOTH",
"454 492 OFFCURVE",
"455 495 OFFCURVE",
"452 500 CURVE SMOOTH",
"442 519 OFFCURVE",
"430 537 OFFCURVE",
"417 553 CURVE",
"476 602 OFFCURVE",
"535 637 OFFCURVE",
"594 656 CURVE"
);
},
{
closed = 1;
nodes = (
"743 475 OFFCURVE",
"747 449 OFFCURVE",
"747 420 CURVE SMOOTH",
"747 365 OFFCURVE",
"733 310 OFFCURVE",
"705 254 CURVE SMOOTH",
"665 174 OFFCURVE",
"613 108 OFFCURVE",
"552 53 CURVE SMOOTH",
"479 -12 OFFCURVE",
"406 -44 OFFCURVE",
"331 -44 CURVE SMOOTH",
"323 -44 OFFCURVE",
"315 -43 OFFCURVE",
"308 -42 CURVE",
"403 146 OFFCURVE",
"473 288 OFFCURVE",
"518 383 CURVE",
"609 409 OFFCURVE",
"681 447 OFFCURVE",
"734 498 CURVE"
);
},
{
closed = 1;
nodes = (
"280 534 OFFCURVE",
"224 474 OFFCURVE",
"181 404 CURVE",
"93 433 OFFCURVE",
"49 484 OFFCURVE",
"49 557 CURVE SMOOTH",
"49 588 OFFCURVE",
"61 612 OFFCURVE",
"85 629 CURVE SMOOTH",
"106 644 OFFCURVE",
"132 652 OFFCURVE",
"165 652 CURVE SMOOTH",
"228 652 OFFCURVE",
"289 629 OFFCURVE",
"350 584 CURVE"
);
},
{
closed = 1;
nodes = (
"421 282 OFFCURVE",
"397 220 OFFCURVE",
"382 185 CURVE SMOOTH",
"352 112 OFFCURVE",
"316 39 OFFCURVE",
"277 -35 CURVE",
"216 -14 OFFCURVE",
"185 42 OFFCURVE",
"185 131 CURVE SMOOTH",
"185 202 OFFCURVE",
"208 278 OFFCURVE",
"255 359 CURVE",
"276 356 OFFCURVE",
"298 355 OFFCURVE",
"321 355 CURVE SMOOTH",
"366 355 OFFCURVE",
"411 360 OFFCURVE",
"457 369 CURVE"
);
}
);
width = 699;
}
);
note = Oslash;
unicode = 00D8;
},
{
glyphname = Otilde;
lastChange = "2021-05-11 19:30:45 +0000";
layers = (
{
hints = (
{
horizontal = 1;
place = "{-64, 20}";
type = Stem;
},
{
horizontal = 1;
place = "{582, 24}";
type = Stem;
},
{
horizontal = 1;
place = "{652, 20}";
type = Stem;
},
{
horizontal = 1;
place = "{672, 21}";
target = up;
type = BottomGhost;
},
{
place = "{14, 36}";
type = Stem;
},
{
place = "{106, 80}";
type = Stem;
},
{
place = "{748, 56}";
type = Stem;
},
{
horizontal = 1;
place = "{800, 44}";
type = Stem;
}
);
layerId = "3191725B-F824-48C7-90A0-BAE99CBF9356";
paths = (
{
closed = 1;
nodes = (
"795 572 OFFCURVE",
"804 596 OFFCURVE",
"804 617 CURVE SMOOTH",
"804 668 OFFCURVE",
"757 693 OFFCURVE",
"664 693 CURVE SMOOTH",
"565 693 OFFCURVE",
"467 662 OFFCURVE",
"372 599 CURVE",
"315 647 OFFCURVE",
"250 671 OFFCURVE",
"176 671 CURVE SMOOTH",
"133 671 OFFCURVE",
"97 662 OFFCURVE",
"67 644 CURVE SMOOTH",
"31 623 OFFCURVE",
"13 592 OFFCURVE",
"13 553 CURVE SMOOTH",
"13 514 OFFCURVE",
"29 477 OFFCURVE",
"62 443 CURVE SMOOTH",
"90 414 OFFCURVE",
"126 393 OFFCURVE",
"167 378 CURVE",
"126 301 OFFCURVE",
"105 226 OFFCURVE",
"105 152 CURVE SMOOTH",
"105 85 OFFCURVE",
"123 33 OFFCURVE",
"159 -6 CURVE SMOOTH",
"194 -45 OFFCURVE",
"245 -64 OFFCURVE",
"311 -64 CURVE SMOOTH",
"406 -64 OFFCURVE",
"495 -32 OFFCURVE",
"576 32 CURVE SMOOTH",
"647 88 OFFCURVE",
"707 164 OFFCURVE",
"754 258 CURVE SMOOTH",
"786 323 OFFCURVE",
"802 384 OFFCURVE",
"802 442 CURVE SMOOTH",
"802 483 OFFCURVE",
"794 518 OFFCURVE",
"777 546 CURVE"
);
},
{
closed = 1;
nodes = (
"761 612 OFFCURVE",
"756 596 OFFCURVE",
"747 579 CURVE",
"725 596 OFFCURVE",
"698 605 OFFCURVE",
"666 605 CURVE SMOOTH",
"639 605 OFFCURVE",
"608 598 OFFCURVE",
"575 585 CURVE SMOOTH",
"568 582 OFFCURVE",
"564 578 OFFCURVE",
"564 572 CURVE SMOOTH",
"564 568 OFFCURVE",
"566 566 OFFCURVE",
"571 566 CURVE SMOOTH",
"573 566 OFFCURVE",
"575 566 OFFCURVE",
"577 567 CURVE SMOOTH",
"596 576 OFFCURVE",
"615 581 OFFCURVE",
"633 581 CURVE SMOOTH",
"666 581 OFFCURVE",
"693 566 OFFCURVE",
"714 537 CURVE",
"704 527 OFFCURVE",
"694 517 OFFCURVE",
"682 508 CURVE SMOOTH",
"602 446 OFFCURVE",
"514 408 OFFCURVE",
"419 390 CURVE SMOOTH",
"373 382 OFFCURVE",
"324 380 OFFCURVE",
"271 385 CURVE",
"307 442 OFFCURVE",
"350 494 OFFCURVE",
"400 539 CURVE",
"415 520 OFFCURVE",
"427 506 OFFCURVE",
"434 497 CURVE SMOOTH",
"437 492 OFFCURVE",
"442 490 OFFCURVE",
"448 491 CURVE SMOOTH",
"454 492 OFFCURVE",
"455 495 OFFCURVE",
"452 500 CURVE SMOOTH",
"442 519 OFFCURVE",
"430 537 OFFCURVE",
"417 553 CURVE",
"511 632 OFFCURVE",
"602 672 OFFCURVE",
"691 672 CURVE SMOOTH",
"738 672 OFFCURVE",
"761 657 OFFCURVE",
"761 627 CURVE SMOOTH"
);
},
{
closed = 1;
nodes = (
"280 534 OFFCURVE",
"224 474 OFFCURVE",
"181 404 CURVE",
"93 433 OFFCURVE",
"49 484 OFFCURVE",
"49 557 CURVE SMOOTH",
"49 588 OFFCURVE",
"61 612 OFFCURVE",
"85 629 CURVE SMOOTH",
"106 644 OFFCURVE",
"132 652 OFFCURVE",
"165 652 CURVE SMOOTH",
"228 652 OFFCURVE",
"289 629 OFFCURVE",
"350 584 CURVE"
);
},
{
closed = 1;
nodes = (
"743 475 OFFCURVE",
"747 449 OFFCURVE",
"747 420 CURVE SMOOTH",
"747 365 OFFCURVE",
"733 310 OFFCURVE",
"705 254 CURVE SMOOTH",
"665 174 OFFCURVE",
"613 108 OFFCURVE",
"552 53 CURVE SMOOTH",
"479 -12 OFFCURVE",
"406 -44 OFFCURVE",
"331 -44 CURVE SMOOTH",
"281 -44 OFFCURVE",
"243 -27 OFFCURVE",
"218 8 CURVE SMOOTH",
"196 38 OFFCURVE",
"185 79 OFFCURVE",
"185 131 CURVE SMOOTH",
"185 202 OFFCURVE",
"208 278 OFFCURVE",
"255 359 CURVE",
"276 356 OFFCURVE",
"298 355 OFFCURVE",
"321 355 CURVE SMOOTH",
"395 355 OFFCURVE",
"468 367 OFFCURVE",
"541 390 CURVE SMOOTH",
"621 416 OFFCURVE",
"685 452 OFFCURVE",
"734 498 CURVE"
);
},
{
closed = 1;
nodes = (
"877 842 OFFCURVE",
"874 843 OFFCURVE",
"867 844 CURVE SMOOTH",
"860 845 OFFCURVE",
"856 845 OFFCURVE",
"855 842 CURVE SMOOTH",
"843 817 OFFCURVE",
"825 805 OFFCURVE",
"800 807 CURVE SMOOTH",
"787 808 OFFCURVE",
"767 814 OFFCURVE",
"740 825 CURVE SMOOTH",
"714 836 OFFCURVE",
"694 842 OFFCURVE",
"679 843 CURVE SMOOTH",
"644 846 OFFCURVE",
"611 821 OFFCURVE",
"581 768 CURVE",
"580 765 OFFCURVE",
"583 764 OFFCURVE",
"591 763 CURVE SMOOTH",
"599 762 OFFCURVE",
"603 763 OFFCURVE",
"604 766 CURVE",
"617 790 OFFCURVE",
"635 801 OFFCURVE",
"656 799 CURVE SMOOTH",
"669 798 OFFCURVE",
"689 792 OFFCURVE",
"716 780 CURVE SMOOTH",
"743 768 OFFCURVE",
"763 761 OFFCURVE",
"777 760 CURVE SMOOTH",
"815 757 OFFCURVE",
"848 783 OFFCURVE",
"876 840 CURVE SMOOTH"
);
}
);
width = 699;
}
);
note = Otilde;
unicode = 00D5;
},
{
glyphname = OE;
lastChange = "2021-05-11 19:30:45 +0000";
layers = (
{
hints = (
{
horizontal = 1;
place = "{-64, 20}";
type = Stem;
},
{
horizontal = 1;
place = "{220, 26}";
type = Stem;
},
{
horizontal = 1;
place = "{330, 50}";
type = Stem;
},
{
horizontal = 1;
place = "{582, 24}";
type = Stem;
},
{
horizontal = 1;
place = "{652, 20}";
type = Stem;
},
{
horizontal = 1;
place = "{672, 21}";
target = up;
type = BottomGhost;
},
{
place = "{14, 36}";
type = Stem;
},
{
place = "{106, 80}";
type = Stem;
},
{
place = "{762, 44}";
type = Stem;
},
{
place = "{1126, 52}";
type = Stem;
},
{
place = "{1272, 24}";
type = Stem;
}
);
layerId = "3191725B-F824-48C7-90A0-BAE99CBF9356";
paths = (
{
closed = 1;
nodes = (
"1267 526 OFFCURVE",
"1294 564 OFFCURVE",
"1294 603 CURVE SMOOTH",
"1294 627 OFFCURVE",
"1283 647 OFFCURVE",
"1260 662 CURVE SMOOTH",
"1238 677 OFFCURVE",
"1208 685 OFFCURVE",
"1171 685 CURVE SMOOTH",
"1156 685 OFFCURVE",
"1139 684 OFFCURVE",
"1122 681 CURVE SMOOTH",
"1038 667 OFFCURVE",
"974 637 OFFCURVE",
"929 592 CURVE SMOOTH",
"891 554 OFFCURVE",
"872 511 OFFCURVE",
"872 464 CURVE SMOOTH",
"872 451 OFFCURVE",
"873 439 OFFCURVE",
"876 427 CURVE",
"850 428 OFFCURVE",
"825 432 OFFCURVE",
"802 437 CURVE",
"803 480 OFFCURVE",
"795 517 OFFCURVE",
"777 546 CURVE",
"795 572 OFFCURVE",
"804 596 OFFCURVE",
"804 617 CURVE SMOOTH",
"804 668 OFFCURVE",
"757 693 OFFCURVE",
"664 693 CURVE SMOOTH",
"565 693 OFFCURVE",
"467 662 OFFCURVE",
"372 599 CURVE",
"315 647 OFFCURVE",
"250 671 OFFCURVE",
"176 671 CURVE SMOOTH",
"133 671 OFFCURVE",
"97 662 OFFCURVE",
"67 644 CURVE SMOOTH",
"31 623 OFFCURVE",
"13 592 OFFCURVE",
"13 553 CURVE SMOOTH",
"13 514 OFFCURVE",
"29 477 OFFCURVE",
"62 443 CURVE SMOOTH",
"90 414 OFFCURVE",
"126 393 OFFCURVE",
"167 378 CURVE",
"126 301 OFFCURVE",
"105 226 OFFCURVE",
"105 152 CURVE SMOOTH",
"105 85 OFFCURVE",
"123 33 OFFCURVE",
"159 -6 CURVE SMOOTH",
"194 -45 OFFCURVE",
"245 -64 OFFCURVE",
"311 -64 CURVE SMOOTH",
"424 -64 OFFCURVE",
"527 -19 OFFCURVE",
"619 70 CURVE",
"632 31 OFFCURVE",
"658 -1 OFFCURVE",
"697 -24 CURVE SMOOTH",
"740 -50 OFFCURVE",
"795 -63 OFFCURVE",
"860 -63 CURVE SMOOTH",
"944 -63 OFFCURVE",
"1019 -36 OFFCURVE",
"1086 17 CURVE SMOOTH",
"1147 66 OFFCURVE",
"1178 115 OFFCURVE",
"1178 165 CURVE SMOOTH",
"1178 218 OFFCURVE",
"1139 244 OFFCURVE",
"1062 244 CURVE SMOOTH",
"1050 244 OFFCURVE",
"1038 243 OFFCURVE",
"1025 242 CURVE SMOOTH",
"971 237 OFFCURVE",
"917 213 OFFCURVE",
"862 172 CURVE SMOOTH",
"817 139 OFFCURVE",
"789 110 OFFCURVE",
"778 85 CURVE",
"777 81 OFFCURVE",
"778 78 OFFCURVE",
"782 76 CURVE SMOOTH",
"786 74 OFFCURVE",
"789 75 OFFCURVE",
"790 79 CURVE",
"799 99 OFFCURVE",
"829 127 OFFCURVE",
"878 161 CURVE SMOOTH",
"934 200 OFFCURVE",
"979 219 OFFCURVE",
"1014 219 CURVE SMOOTH",
"1089 219 OFFCURVE",
"1126 195 OFFCURVE",
"1126 147 CURVE SMOOTH",
"1126 104 OFFCURVE",
"1099 62 OFFCURVE",
"1046 19 CURVE SMOOTH",
"989 -27 OFFCURVE",
"927 -50 OFFCURVE",
"860 -50 CURVE SMOOTH",
"811 -50 OFFCURVE",
"772 -34 OFFCURVE",
"745 -1 CURVE SMOOTH",
"720 28 OFFCURVE",
"708 66 OFFCURVE",
"708 112 CURVE SMOOTH",
"708 144 OFFCURVE",
"714 176 OFFCURVE",
"727 208 CURVE",
"738 226 OFFCURVE",
"747 242 OFFCURVE",
"754 258 CURVE SMOOTH",
"758 267 LINE",
"797 322 OFFCURVE",
"849 354 OFFCURVE",
"912 364 CURVE",
"935 341 OFFCURVE",
"964 329 OFFCURVE",
"998 329 CURVE SMOOTH",
"1024 329 OFFCURVE",
"1037 337 OFFCURVE",
"1037 352 CURVE SMOOTH",
"1037 368 OFFCURVE",
"1025 377 OFFCURVE",
"1001 379 CURVE SMOOTH",
"978 380 OFFCURVE",
"955 381 OFFCURVE",
"933 380 CURVE",
"928 389 OFFCURVE",
"926 399 OFFCURVE",
"925 411 CURVE",
"1049 415 OFFCURVE",
"1145 441 OFFCURVE",
"1213 488 CURVE SMOOTH"
);
},
{
closed = 1;
nodes = (
"1115 460 OFFCURVE",
"1028 433 OFFCURVE",
"925 428 CURVE",
"928 481 OFFCURVE",
"956 531 OFFCURVE",
"1007 576 CURVE SMOOTH",
"1069 631 OFFCURVE",
"1133 658 OFFCURVE",
"1198 658 CURVE SMOOTH",
"1247 658 OFFCURVE",
"1271 643 OFFCURVE",
"1271 613 CURVE SMOOTH",
"1271 584 OFFCURVE",
"1243 549 OFFCURVE",
"1186 509 CURVE SMOOTH"
);
},
{
closed = 1;
nodes = (
"860 373 OFFCURVE",
"823 364 OFFCURVE",
"790 351 CURVE",
"796 374 OFFCURVE",
"800 397 OFFCURVE",
"802 419 CURVE",
"826 415 OFFCURVE",
"852 412 OFFCURVE",
"881 411 CURVE",
"886 399 OFFCURVE",
"892 388 OFFCURVE",
"900 377 CURVE"
);
},
{
closed = 1;
nodes = (
"761 612 OFFCURVE",
"756 596 OFFCURVE",
"747 579 CURVE",
"725 596 OFFCURVE",
"698 605 OFFCURVE",
"666 605 CURVE SMOOTH",
"639 605 OFFCURVE",
"608 598 OFFCURVE",
"575 585 CURVE SMOOTH",
"568 582 OFFCURVE",
"564 578 OFFCURVE",
"564 572 CURVE SMOOTH",
"564 568 OFFCURVE",
"566 566 OFFCURVE",
"571 566 CURVE SMOOTH",
"573 566 OFFCURVE",
"575 566 OFFCURVE",
"577 567 CURVE SMOOTH",
"596 576 OFFCURVE",
"615 581 OFFCURVE",
"633 581 CURVE SMOOTH",
"666 581 OFFCURVE",
"693 566 OFFCURVE",
"714 537 CURVE",
"704 527 OFFCURVE",
"694 517 OFFCURVE",
"682 508 CURVE SMOOTH",
"602 446 OFFCURVE",
"514 408 OFFCURVE",
"419 390 CURVE SMOOTH",
"373 382 OFFCURVE",
"324 380 OFFCURVE",
"271 385 CURVE",
"307 442 OFFCURVE",
"350 494 OFFCURVE",
"400 539 CURVE",
"415 520 OFFCURVE",
"427 506 OFFCURVE",
"434 497 CURVE SMOOTH",
"437 492 OFFCURVE",
"442 490 OFFCURVE",
"448 491 CURVE SMOOTH",
"454 492 OFFCURVE",
"455 495 OFFCURVE",
"452 500 CURVE SMOOTH",
"442 519 OFFCURVE",
"430 537 OFFCURVE",
"417 553 CURVE",
"511 632 OFFCURVE",
"602 672 OFFCURVE",
"691 672 CURVE SMOOTH",
"738 672 OFFCURVE",
"761 657 OFFCURVE",
"761 627 CURVE SMOOTH"
);
},
{
closed = 1;
nodes = (
"280 534 OFFCURVE",
"224 474 OFFCURVE",
"181 404 CURVE",
"93 433 OFFCURVE",
"49 484 OFFCURVE",
"49 557 CURVE SMOOTH",
"49 588 OFFCURVE",
"61 612 OFFCURVE",
"85 629 CURVE SMOOTH",
"106 644 OFFCURVE",
"132 652 OFFCURVE",
"165 652 CURVE SMOOTH",
"228 652 OFFCURVE",
"289 629 OFFCURVE",
"350 584 CURVE"
);
},
{
closed = 1;
nodes = (
"743 475 OFFCURVE",
"747 449 OFFCURVE",
"747 420 CURVE SMOOTH",
"747 388 OFFCURVE",
"742 355 OFFCURVE",
"732 322 CURVE",
"691 296 OFFCURVE",
"659 264 OFFCURVE",
"638 226 CURVE SMOOTH",
"617 189 OFFCURVE",
"607 151 OFFCURVE",
"610 112 CURVE",
"521 8 OFFCURVE",
"428 -44 OFFCURVE",
"331 -44 CURVE SMOOTH",
"281 -44 OFFCURVE",
"243 -27 OFFCURVE",
"218 8 CURVE SMOOTH",
"196 38 OFFCURVE",
"185 79 OFFCURVE",
"185 131 CURVE SMOOTH",
"185 202 OFFCURVE",
"208 278 OFFCURVE",
"255 359 CURVE",
"276 356 OFFCURVE",
"298 355 OFFCURVE",
"321 355 CURVE SMOOTH",
"395 355 OFFCURVE",
"468 367 OFFCURVE",
"541 390 CURVE SMOOTH",
"621 416 OFFCURVE",
"685 452 OFFCURVE",
"734 498 CURVE"
);
}
);
width = 1208;
}
);
note = OE;
unicode = 0152;
},
{
glyphname = P;
lastChange = "2021-05-11 19:30:45 +0000";
layers = (
{
hints = (
{
horizontal = 1;
place = "{-58, 26}";
type = Stem;
},
{
horizontal = 1;
place = "{-14, 96}";
type = Stem;
},
{
horizontal = 1;
place = "{332, 22}";
type = Stem;
},
{
horizontal = 1;
place = "{366, 24}";
type = Stem;
},
{
horizontal = 1;
place = "{736, 20}";
type = Stem;
},
{
place = "{32, 24}";
type = Stem;
},
{
place = "{708, 76}";
type = Stem;
}
);
layerId = "3191725B-F824-48C7-90A0-BAE99CBF9356";
paths = (
{
closed = 1;
nodes = (
"787 591 OFFCURVE",
"767 629 OFFCURVE",
"724 661 CURVE SMOOTH",
"694 683 OFFCURVE",
"651 695 OFFCURVE",
"596 696 CURVE",
"625 722 OFFCURVE",
"656 735 OFFCURVE",
"689 735 CURVE SMOOTH",
"704 735 OFFCURVE",
"717 732 OFFCURVE",
"729 726 CURVE SMOOTH",
"732 724 OFFCURVE",
"735 727 OFFCURVE",
"736 732 CURVE SMOOTH",
"737 737 OFFCURVE",
"736 741 OFFCURVE",
"731 743 CURVE SMOOTH",
"714 750 OFFCURVE",
"697 754 OFFCURVE",
"678 754 CURVE SMOOTH",
"633 754 OFFCURVE",
"591 736 OFFCURVE",
"551 701 CURVE",
"535 702 OFFCURVE",
"518 702 OFFCURVE",
"501 702 CURVE SMOOTH",
"409 702 OFFCURVE",
"323 689 OFFCURVE",
"243 665 CURVE SMOOTH",
"152 637 OFFCURVE",
"91 600 OFFCURVE",
"59 552 CURVE SMOOTH",
"41 525 OFFCURVE",
"31 497 OFFCURVE",
"31 470 CURVE SMOOTH",
"31 440 OFFCURVE",
"42 415 OFFCURVE",
"64 395 CURVE SMOOTH",
"85 375 OFFCURVE",
"115 365 OFFCURVE",
"153 365 CURVE SMOOTH",
"234 365 OFFCURVE",
"298 396 OFFCURVE",
"343 459 CURVE SMOOTH",
"360 482 OFFCURVE",
"375 509 OFFCURVE",
"386 541 CURVE SMOOTH",
"392 557 OFFCURVE",
"396 575 OFFCURVE",
"402 592 CURVE SMOOTH",
"404 599 OFFCURVE",
"403 603 OFFCURVE",
"397 603 CURVE SMOOTH",
"393 603 OFFCURVE",
"391 601 OFFCURVE",
"389 596 CURVE SMOOTH",
"371 543 OFFCURVE",
"350 504 OFFCURVE",
"328 476 CURVE SMOOTH",
"282 418 OFFCURVE",
"222 388 OFFCURVE",
"146 388 CURVE SMOOTH",
"85 388 OFFCURVE",
"55 409 OFFCURVE",
"55 451 CURVE SMOOTH",
"55 472 OFFCURVE",
"65 495 OFFCURVE",
"84 519 CURVE SMOOTH",
"125 570 OFFCURVE",
"190 611 OFFCURVE",
"280 641 CURVE SMOOTH",
"364 669 OFFCURVE",
"447 682 OFFCURVE",
"529 679 CURVE",
"510 658 OFFCURVE",
"493 635 OFFCURVE",
"480 606 CURVE SMOOTH",
"348 313 LINE SMOOTH",
"296 197 OFFCURVE",
"253 115 OFFCURVE",
"219 71 CURVE SMOOTH",
"179 19 OFFCURVE",
"131 -13 OFFCURVE",
"74 -28 CURVE SMOOTH",
"67 -30 OFFCURVE",
"60 -31 OFFCURVE",
"52 -31 CURVE SMOOTH",
"16 -31 OFFCURVE",
"-4 -19 OFFCURVE",
"-8 5 CURVE",
"-1 -8 OFFCURVE",
"10 -14 OFFCURVE",
"24 -14 CURVE SMOOTH",
"54 -15 OFFCURVE",
"70 -1 OFFCURVE",
"71 30 CURVE SMOOTH",
"72 43 OFFCURVE",
"67 55 OFFCURVE",
"58 65 CURVE SMOOTH",
"49 75 OFFCURVE",
"38 81 OFFCURVE",
"25 81 CURVE SMOOTH",
"8 81 OFFCURVE",
"-7 73 OFFCURVE",
"-18 58 CURVE SMOOTH",
"-29 43 OFFCURVE",
"-34 27 OFFCURVE",
"-33 8 CURVE SMOOTH",
"-29 -40 OFFCURVE",
"6 -62 OFFCURVE",
"73 -57 CURVE SMOOTH",
"136 -52 OFFCURVE",
"201 -18 OFFCURVE",
"266 45 CURVE SMOOTH",
"320 98 OFFCURVE",
"361 153 OFFCURVE",
"389 212 CURVE SMOOTH",
"413 263 OFFCURVE",
"430 304 OFFCURVE",
"440 333 CURVE",
"513 327 OFFCURVE",
"585 343 OFFCURVE",
"656 382 CURVE SMOOTH",
"735 425 OFFCURVE",
"777 481 OFFCURVE",
"783 548 CURVE SMOOTH"
);
},
{
closed = 1;
nodes = (
"667 458 OFFCURVE",
"637 423 OFFCURVE",
"598 396 CURVE SMOOTH",
"557 368 OFFCURVE",
"514 354 OFFCURVE",
"469 354 CURVE SMOOTH",
"462 354 OFFCURVE",
"455 354 OFFCURVE",
"448 355 CURVE",
"463 402 OFFCURVE",
"477 450 OFFCURVE",
"493 497 CURVE SMOOTH",
"522 584 OFFCURVE",
"549 642 OFFCURVE",
"572 671 CURVE",
"609 674 OFFCURVE",
"640 665 OFFCURVE",
"667 643 CURVE SMOOTH",
"694 621 OFFCURVE",
"707 593 OFFCURVE",
"707 560 CURVE SMOOTH",
"707 541 OFFCURVE",
"701 521 OFFCURVE",
"691 502 CURVE SMOOTH"
);
}
);
width = 708;
}
);
note = P;
unicode = 0050;
},
{
glyphname = Thorn;
lastChange = "2021-05-11 19:30:45 +0000";
layers = (
{
layerId = "3191725B-F824-48C7-90A0-BAE99CBF9356";
paths = (
{
closed = 1;
nodes = (
"421 758 LINE SMOOTH",
"432 792 OFFCURVE",
"427 826 OFFCURVE",
"409 843 QCURVE SMOOTH",
"401 850 OFFCURVE",
"375 849 OFFCURVE",
"369 858 QCURVE",
"369 845 OFFCURVE",
"350 749 OFFCURVE",
"310 608 OFFCURVE",
"248 436 OFFCURVE",
"206 347 QCURVE SMOOTH",
"196 326 OFFCURVE",
"163 263 OFFCURVE",
"124 191 OFFCURVE",
"83 119 OFFCURVE",
"46 57 OFFCURVE",
"17 14 OFFCURVE",
"11 8 QCURVE",
"22 10 OFFCURVE",
"43 4 OFFCURVE",
"53 3 QCURVE SMOOTH",
"77 1 OFFCURVE",
"105 23 OFFCURVE",
"122 55 QCURVE SMOOTH",
"197 208 LINE",
"230 206 OFFCURVE",
"325 217 OFFCURVE",
"371 229 QCURVE SMOOTH",
"409 238 OFFCURVE",
"486 280 OFFCURVE",
"547 337 OFFCURVE",
"585 405 OFFCURVE",
"583 476 OFFCURVE",
"535 546 OFFCURVE",
"480 576 QCURVE SMOOTH",
"458 589 OFFCURVE",
"400 609 OFFCURVE",
"367 614 QCURVE",
"367 614 LINE"
);
},
{
closed = 1;
nodes = (
"517 527 OFFCURVE",
"538 437 OFFCURVE",
"498 346 OFFCURVE",
"405 268 OFFCURVE",
"342 248 QCURVE SMOOTH",
"311 238 OFFCURVE",
"237 229 OFFCURVE",
"206 228 QCURVE",
"238 293 LINE",
"245 303 OFFCURVE",
"268 353 OFFCURVE",
"290 407 OFFCURVE",
"307 452 OFFCURVE",
"310 459 QCURVE SMOOTH",
"360 595 LINE",
"386 589 OFFCURVE",
"446 570 OFFCURVE",
"465 559 QCURVE",
"465 559 LINE"
);
}
);
userData = {
assembly = "SVTCA[0]	/* SetFreedomAndProjectionVectorToAxis */\012PUSHW[ ]	/* 1 value pushed */\01232 \012MDAP[1]	/* MoveDirectAbsPt */\012IUP[0]	/* InterpolateUntPts */\012IUP[1]	/* InterpolateUntPts */";
};
width = 336;
}
);
note = Thorn;
unicode = 00DE;
},
{
glyphname = Q;
lastChange = "2021-05-11 19:30:45 +0000";
layers = (
{
hints = (
{
horizontal = 1;
place = "{-340, 52}";
type = Stem;
},
{
horizontal = 1;
place = "{-196, 18}";
type = Stem;
},
{
horizontal = 1;
place = "{-104, 20}";
type = Stem;
},
{
horizontal = 1;
place = "{356, 28}";
type = Stem;
},
{
horizontal = 1;
place = "{582, 24}";
type = Stem;
},
{
horizontal = 1;
place = "{652, 20}";
type = Stem;
},
{
horizontal = 1;
place = "{672, 21}";
target = up;
type = BottomGhost;
},
{
place = "{-90, 30}";
type = Stem;
},
{
place = "{14, 36}";
type = Stem;
},
{
place = "{106, 80}";
type = Stem;
},
{
place = "{306, 120}";
type = Stem;
},
{
place = "{706, 22}";
type = Stem;
},
{
place = "{748, 56}";
type = Stem;
}
);
layerId = "3191725B-F824-48C7-90A0-BAE99CBF9356";
paths = (
{
closed = 1;
nodes = (
"804 668 OFFCURVE",
"757 693 OFFCURVE",
"664 693 CURVE SMOOTH",
"565 693 OFFCURVE",
"467 662 OFFCURVE",
"372 599 CURVE",
"315 647 OFFCURVE",
"250 671 OFFCURVE",
"176 671 CURVE SMOOTH",
"133 671 OFFCURVE",
"97 662 OFFCURVE",
"67 644 CURVE SMOOTH",
"31 623 OFFCURVE",
"13 592 OFFCURVE",
"13 553 CURVE SMOOTH",
"13 514 OFFCURVE",
"29 477 OFFCURVE",
"62 444 CURVE SMOOTH",
"91 415 OFFCURVE",
"126 393 OFFCURVE",
"167 378 CURVE",
"126 301 OFFCURVE",
"105 226 OFFCURVE",
"105 152 CURVE SMOOTH",
"105 91 OFFCURVE",
"120 42 OFFCURVE",
"149 5 CURVE SMOOTH",
"180 -35 OFFCURVE",
"226 -58 OFFCURVE",
"285 -63 CURVE",
"251 -90 OFFCURVE",
"215 -114 OFFCURVE",
"178 -133 CURVE",
"126 -100 OFFCURVE",
"78 -84 OFFCURVE",
"35 -84 CURVE SMOOTH",
"24 -84 OFFCURVE",
"13 -85 OFFCURVE",
"2 -87 CURVE SMOOTH",
"-18 -91 OFFCURVE",
"-37 -98 OFFCURVE",
"-55 -109 CURVE SMOOTH",
"-78 -123 OFFCURVE",
"-90 -138 OFFCURVE",
"-90 -154 CURVE SMOOTH",
"-90 -181 OFFCURVE",
"-57 -195 OFFCURVE",
"8 -195 CURVE SMOOTH",
"59 -195 OFFCURVE",
"109 -185 OFFCURVE",
"158 -165 CURVE",
"194 -192 OFFCURVE",
"230 -220 OFFCURVE",
"266 -248 CURVE SMOOTH",
"306 -278 OFFCURVE",
"343 -300 OFFCURVE",
"376 -314 CURVE SMOOTH",
"418 -332 OFFCURVE",
"463 -339 OFFCURVE",
"511 -339 CURVE SMOOTH",
"520 -339 LINE SMOOTH",
"544 -339 OFFCURVE",
"569 -334 OFFCURVE",
"594 -326 CURVE SMOOTH",
"627 -315 OFFCURVE",
"655 -298 OFFCURVE",
"681 -275 CURVE SMOOTH",
"711 -247 OFFCURVE",
"727 -219 OFFCURVE",
"727 -189 CURVE SMOOTH",
"727 -154 OFFCURVE",
"707 -129 OFFCURVE",
"666 -111 CURVE SMOOTH",
"634 -97 OFFCURVE",
"598 -90 OFFCURVE",
"559 -90 CURVE SMOOTH",
"488 -90 OFFCURVE",
"418 -112 OFFCURVE",
"350 -156 CURVE SMOOTH",
"348 -157 OFFCURVE",
"347 -159 OFFCURVE",
"347 -160 CURVE SMOOTH",
"347 -163 OFFCURVE",
"350 -165 OFFCURVE",
"355 -165 CURVE SMOOTH",
"358 -165 OFFCURVE",
"360 -164 OFFCURVE",
"363 -163 CURVE SMOOTH",
"438 -126 OFFCURVE",
"507 -108 OFFCURVE",
"570 -108 CURVE SMOOTH",
"600 -108 OFFCURVE",
"628 -112 OFFCURVE",
"654 -122 CURVE SMOOTH",
"689 -135 OFFCURVE",
"706 -154 OFFCURVE",
"706 -179 CURVE SMOOTH",
"706 -206 OFFCURVE",
"686 -232 OFFCURVE",
"644 -254 CURVE SMOOTH",
"611 -272 OFFCURVE",
"578 -282 OFFCURVE",
"545 -286 CURVE SMOOTH",
"534 -287 OFFCURVE",
"523 -288 OFFCURVE",
"512 -288 CURVE SMOOTH",
"461 -288 OFFCURVE",
"405 -272 OFFCURVE",
"346 -240 CURVE SMOOTH",
"332 -233 OFFCURVE",
"283 -201 OFFCURVE",
"198 -146 CURVE",
"241 -124 OFFCURVE",
"281 -97 OFFCURVE",
"320 -64 CURVE",
"414 -62 OFFCURVE",
"501 -29 OFFCURVE",
"580 35 CURVE SMOOTH",
"649 91 OFFCURVE",
"707 165 OFFCURVE",
"754 258 CURVE SMOOTH",
"786 322 OFFCURVE",
"802 383 OFFCURVE",
"802 442 CURVE SMOOTH",
"802 483 OFFCURVE",
"794 518 OFFCURVE",
"777 546 CURVE",
"795 572 OFFCURVE",
"804 596 OFFCURVE",
"804 617 CURVE SMOOTH"
);
},
{
closed = 1;
nodes = (
"761 612 OFFCURVE",
"756 596 OFFCURVE",
"747 579 CURVE",
"725 596 OFFCURVE",
"698 605 OFFCURVE",
"666 605 CURVE SMOOTH",
"651 605 OFFCURVE",
"631 603 OFFCURVE",
"608 597 CURVE SMOOTH",
"579 590 OFFCURVE",
"564 581 OFFCURVE",
"564 572 CURVE SMOOTH",
"564 568 OFFCURVE",
"566 566 OFFCURVE",
"571 566 CURVE SMOOTH",
"572 566 OFFCURVE",
"574 566 OFFCURVE",
"577 567 CURVE SMOOTH",
"598 576 OFFCURVE",
"617 581 OFFCURVE",
"633 581 CURVE SMOOTH",
"666 581 OFFCURVE",
"693 566 OFFCURVE",
"714 537 CURVE",
"681 504 OFFCURVE",
"636 473 OFFCURVE",
"577 444 CURVE SMOOTH",
"522 417 OFFCURVE",
"469 400 OFFCURVE",
"419 390 CURVE SMOOTH",
"392 385 OFFCURVE",
"363 382 OFFCURVE",
"330 382 CURVE SMOOTH",
"310 382 OFFCURVE",
"290 383 OFFCURVE",
"271 385 CURVE",
"307 442 OFFCURVE",
"350 494 OFFCURVE",
"400 539 CURVE",
"415 520 OFFCURVE",
"427 506 OFFCURVE",
"434 497 CURVE SMOOTH",
"437 493 OFFCURVE",
"441 491 OFFCURVE",
"446 491 CURVE SMOOTH",
"451 491 OFFCURVE",
"454 493 OFFCURVE",
"454 496 CURVE SMOOTH",
"454 504 OFFCURVE",
"442 523 OFFCURVE",
"417 553 CURVE",
"511 632 OFFCURVE",
"602 672 OFFCURVE",
"691 672 CURVE SMOOTH",
"738 672 OFFCURVE",
"761 657 OFFCURVE",
"761 627 CURVE SMOOTH"
);
},
{
closed = 1;
nodes = (
"280 534 OFFCURVE",
"224 474 OFFCURVE",
"181 404 CURVE",
"93 433 OFFCURVE",
"49 484 OFFCURVE",
"49 557 CURVE SMOOTH",
"49 588 OFFCURVE",
"61 612 OFFCURVE",
"85 629 CURVE SMOOTH",
"106 644 OFFCURVE",
"133 652 OFFCURVE",
"165 652 CURVE SMOOTH",
"228 652 OFFCURVE",
"290 629 OFFCURVE",
"350 584 CURVE"
);
},
{
closed = 1;
nodes = (
"747 365 OFFCURVE",
"733 309 OFFCURVE",
"705 254 CURVE SMOOTH",
"666 177 OFFCURVE",
"617 112 OFFCURVE",
"559 59 CURVE SMOOTH",
"488 -6 OFFCURVE",
"417 -40 OFFCURVE",
"344 -43 CURVE",
"399 8 OFFCURVE",
"426 53 OFFCURVE",
"426 92 CURVE SMOOTH",
"426 137 OFFCURVE",
"407 159 OFFCURVE",
"370 159 CURVE SMOOTH",
"352 159 OFFCURVE",
"337 153 OFFCURVE",
"324 141 CURVE SMOOTH",
"312 130 OFFCURVE",
"306 115 OFFCURVE",
"306 98 CURVE SMOOTH",
"306 86 OFFCURVE",
"310 76 OFFCURVE",
"317 67 CURVE SMOOTH",
"324 59 OFFCURVE",
"334 55 OFFCURVE",
"345 55 CURVE SMOOTH",
"367 55 OFFCURVE",
"383 66 OFFCURVE",
"394 89 CURVE",
"393 52 OFFCURVE",
"365 9 OFFCURVE",
"309 -42 CURVE",
"226 -33 OFFCURVE",
"185 25 OFFCURVE",
"185 131 CURVE SMOOTH",
"185 202 OFFCURVE",
"208 278 OFFCURVE",
"255 359 CURVE",
"276 356 OFFCURVE",
"298 355 OFFCURVE",
"321 355 CURVE SMOOTH",
"395 355 OFFCURVE",
"468 367 OFFCURVE",
"541 390 CURVE SMOOTH",
"621 416 OFFCURVE",
"685 452 OFFCURVE",
"734 498 CURVE",
"743 475 OFFCURVE",
"747 449 OFFCURVE",
"747 420 CURVE SMOOTH"
);
},
{
closed = 1;
nodes = (
"96 -169 OFFCURVE",
"53 -178 OFFCURVE",
"9 -178 CURVE SMOOTH",
"-38 -178 OFFCURVE",
"-61 -168 OFFCURVE",
"-61 -149 CURVE SMOOTH",
"-61 -135 OFFCURVE",
"-50 -123 OFFCURVE",
"-27 -114 CURVE SMOOTH",
"-9 -107 OFFCURVE",
"9 -104 OFFCURVE",
"26 -104 CURVE SMOOTH",
"56 -104 OFFCURVE",
"94 -120 OFFCURVE",
"139 -151 CURVE"
);
}
);
width = 731;
}
);
note = Q;
unicode = 0051;
},
{
glyphname = R;
lastChange = "2021-05-11 19:30:45 +0000";
layers = (
{
hints = (
{
horizontal = 1;
place = "{-58, 26}";
type = Stem;
},
{
horizontal = 1;
place = "{-14, 96}";
type = Stem;
},
{
horizontal = 1;
place = "{370, 28}";
type = Stem;
},
{
horizontal = 1;
place = "{736, 20}";
type = Stem;
},
{
place = "{-32, 106}";
type = Stem;
},
{
place = "{104, 62}";
type = Stem;
},
{
place = "{728, 66}";
type = Stem;
},
{
place = "{844, 24}";
type = Stem;
}
);
layerId = "3191725B-F824-48C7-90A0-BAE99CBF9356";
paths = (
{
closed = 1;
nodes = (
"867 161 OFFCURVE",
"843 219 OFFCURVE",
"793 279 CURVE SMOOTH",
"787 286 OFFCURVE",
"783 287 OFFCURVE",
"781 284 CURVE SMOOTH",
"779 281 OFFCURVE",
"781 276 OFFCURVE",
"785 270 CURVE SMOOTH",
"824 214 OFFCURVE",
"843 161 OFFCURVE",
"843 112 CURVE SMOOTH",
"843 83 OFFCURVE",
"836 61 OFFCURVE",
"821 45 CURVE SMOOTH",
"807 30 OFFCURVE",
"788 22 OFFCURVE",
"765 22 CURVE SMOOTH",
"736 22 OFFCURVE",
"706 34 OFFCURVE",
"677 57 CURVE SMOOTH",
"648 80 OFFCURVE",
"617 128 OFFCURVE",
"586 199 CURVE SMOOTH",
"562 253 OFFCURVE",
"547 299 OFFCURVE",
"538 336 CURVE",
"609 345 OFFCURVE",
"669 374 OFFCURVE",
"718 422 CURVE SMOOTH",
"764 467 OFFCURVE",
"789 514 OFFCURVE",
"793 565 CURVE SMOOTH",
"795 600 OFFCURVE",
"783 630 OFFCURVE",
"758 653 CURVE SMOOTH",
"730 679 OFFCURVE",
"688 694 OFFCURVE",
"633 699 CURVE",
"662 723 OFFCURVE",
"693 735 OFFCURVE",
"725 735 CURVE SMOOTH",
"740 735 OFFCURVE",
"753 732 OFFCURVE",
"765 726 CURVE SMOOTH",
"770 724 OFFCURVE",
"772 727 OFFCURVE",
"772 736 CURVE SMOOTH",
"772 739 OFFCURVE",
"770 742 OFFCURVE",
"767 743 CURVE SMOOTH",
"751 750 OFFCURVE",
"734 754 OFFCURVE",
"715 754 CURVE SMOOTH",
"670 754 OFFCURVE",
"627 736 OFFCURVE",
"585 700 CURVE",
"503 699 OFFCURVE",
"420 683 OFFCURVE",
"336 652 CURVE SMOOTH",
"237 616 OFFCURVE",
"168 569 OFFCURVE",
"128 510 CURVE SMOOTH",
"112 486 OFFCURVE",
"104 463 OFFCURVE",
"104 441 CURVE SMOOTH",
"104 393 OFFCURVE",
"135 369 OFFCURVE",
"197 369 CURVE SMOOTH",
"227 369 OFFCURVE",
"271 385 OFFCURVE",
"330 417 CURVE SMOOTH",
"393 451 OFFCURVE",
"425 481 OFFCURVE",
"425 507 CURVE SMOOTH",
"425 510 OFFCURVE",
"424 511 OFFCURVE",
"421 512 CURVE SMOOTH",
"417 513 OFFCURVE",
"414 512 OFFCURVE",
"412 509 CURVE SMOOTH",
"387 478 OFFCURVE",
"357 451 OFFCURVE",
"321 430 CURVE SMOOTH",
"282 407 OFFCURVE",
"245 396 OFFCURVE",
"210 396 CURVE SMOOTH",
"180 396 OFFCURVE",
"165 409 OFFCURVE",
"165 436 CURVE SMOOTH",
"165 479 OFFCURVE",
"197 527 OFFCURVE",
"261 578 CURVE SMOOTH",
"295 605 OFFCURVE",
"342 629 OFFCURVE",
"403 650 CURVE SMOOTH",
"463 670 OFFCURVE",
"518 682 OFFCURVE",
"568 684 CURVE",
"546 663 OFFCURVE",
"525 638 OFFCURVE",
"509 606 CURVE SMOOTH",
"364 313 LINE SMOOTH",
"306 196 OFFCURVE",
"260 116 OFFCURVE",
"223 71 CURVE SMOOTH",
"181 20 OFFCURVE",
"131 -13 OFFCURVE",
"73 -28 CURVE SMOOTH",
"66 -30 OFFCURVE",
"59 -31 OFFCURVE",
"52 -31 CURVE SMOOTH",
"15 -31 OFFCURVE",
"-4 -19 OFFCURVE",
"-7 5 CURVE",
"0 -8 OFFCURVE",
"10 -14 OFFCURVE",
"24 -14 CURVE SMOOTH",
"54 -15 OFFCURVE",
"70 -1 OFFCURVE",
"73 30 CURVE SMOOTH",
"74 43 OFFCURVE",
"71 55 OFFCURVE",
"62 65 CURVE SMOOTH",
"53 75 OFFCURVE",
"42 81 OFFCURVE",
"29 81 CURVE SMOOTH",
"12 81 OFFCURVE",
"-3 73 OFFCURVE",
"-15 58 CURVE SMOOTH",
"-26 43 OFFCURVE",
"-32 27 OFFCURVE",
"-32 8 CURVE SMOOTH",
"-31 -40 OFFCURVE",
"4 -62 OFFCURVE",
"71 -57 CURVE SMOOTH",
"134 -52 OFFCURVE",
"200 -18 OFFCURVE",
"269 45 CURVE SMOOTH",
"326 98 OFFCURVE",
"370 153 OFFCURVE",
"400 212 CURVE SMOOTH",
"428 266 OFFCURVE",
"448 309 OFFCURVE",
"460 340 CURVE SMOOTH",
"556 586 LINE SMOOTH",
"571 625 OFFCURVE",
"591 658 OFFCURVE",
"615 683 CURVE",
"654 678 OFFCURVE",
"684 663 OFFCURVE",
"704 639 CURVE SMOOTH",
"721 618 OFFCURVE",
"729 591 OFFCURVE",
"727 559 CURVE SMOOTH",
"724 512 OFFCURVE",
"702 468 OFFCURVE",
"663 427 CURVE SMOOTH",
"621 383 OFFCURVE",
"573 358 OFFCURVE",
"518 352 CURVE",
"543 186 OFFCURVE",
"576 77 OFFCURVE",
"619 25 CURVE SMOOTH",
"651 -13 OFFCURVE",
"689 -32 OFFCURVE",
"734 -32 CURVE SMOOTH",
"770 -32 OFFCURVE",
"801 -19 OFFCURVE",
"828 6 CURVE SMOOTH",
"854 31 OFFCURVE",
"867 64 OFFCURVE",
"867 104 CURVE SMOOTH"
);
}
);
width = 866;
}
);
note = R;
unicode = 0052;
},
{
glyphname = S;
lastChange = "2021-05-11 19:30:45 +0000";
layers = (
{
hints = (
{
horizontal = 1;
place = "{-92, 24}";
type = Stem;
},
{
horizontal = 1;
place = "{268, 24}";
type = Stem;
},
{
horizontal = 1;
place = "{558, 94}";
type = Stem;
},
{
horizontal = 1;
place = "{712, 22}";
type = Stem;
},
{
place = "{22, 50}";
type = Stem;
},
{
place = "{660, 106}";
type = Stem;
}
);
layerId = "3191725B-F824-48C7-90A0-BAE99CBF9356";
paths = (
{
closed = 1;
nodes = (
"736 645 OFFCURVE",
"725 651 OFFCURVE",
"706 651 CURVE SMOOTH",
"676 651 OFFCURVE",
"660 636 OFFCURVE",
"659 606 CURVE SMOOTH",
"658 593 OFFCURVE",
"663 581 OFFCURVE",
"672 572 CURVE SMOOTH",
"681 563 OFFCURVE",
"693 557 OFFCURVE",
"706 557 CURVE SMOOTH",
"723 557 OFFCURVE",
"737 565 OFFCURVE",
"748 581 CURVE SMOOTH",
"759 597 OFFCURVE",
"765 615 OFFCURVE",
"765 635 CURVE SMOOTH",
"765 664 OFFCURVE",
"754 687 OFFCURVE",
"732 702 CURVE SMOOTH",
"701 723 OFFCURVE",
"656 733 OFFCURVE",
"597 733 CURVE SMOOTH",
"545 733 OFFCURVE",
"497 721 OFFCURVE",
"452 696 CURVE SMOOTH",
"403 669 OFFCURVE",
"374 634 OFFCURVE",
"365 591 CURVE SMOOTH",
"363 582 OFFCURVE",
"362 572 OFFCURVE",
"362 563 CURVE SMOOTH",
"362 525 OFFCURVE",
"380 489 OFFCURVE",
"415 455 CURVE SMOOTH",
"433 437 OFFCURVE",
"467 413 OFFCURVE",
"516 381 CURVE SMOOTH",
"613 319 OFFCURVE",
"661 249 OFFCURVE",
"661 172 CURVE SMOOTH",
"661 105 OFFCURVE",
"628 51 OFFCURVE",
"561 10 CURVE SMOOTH",
"484 -37 OFFCURVE",
"394 -64 OFFCURVE",
"289 -68 CURVE SMOOTH",
"218 -71 OFFCURVE",
"163 -59 OFFCURVE",
"124 -32 CURVE SMOOTH",
"88 -8 OFFCURVE",
"70 24 OFFCURVE",
"70 64 CURVE SMOOTH",
"70 107 OFFCURVE",
"90 146 OFFCURVE",
"129 183 CURVE SMOOTH",
"171 223 OFFCURVE",
"227 249 OFFCURVE",
"296 262 CURVE SMOOTH",
"316 266 OFFCURVE",
"339 268 OFFCURVE",
"364 268 CURVE SMOOTH",
"445 268 OFFCURVE",
"497 251 OFFCURVE",
"521 217 CURVE SMOOTH",
"525 212 OFFCURVE",
"528 212 OFFCURVE",
"530 218 CURVE SMOOTH",
"531 224 OFFCURVE",
"530 230 OFFCURVE",
"526 235 CURVE SMOOTH",
"499 272 OFFCURVE",
"447 291 OFFCURVE",
"369 291 CURVE SMOOTH",
"343 291 OFFCURVE",
"318 288 OFFCURVE",
"295 284 CURVE SMOOTH",
"212 268 OFFCURVE",
"145 238 OFFCURVE",
"93 192 CURVE SMOOTH",
"45 149 OFFCURVE",
"21 104 OFFCURVE",
"21 55 CURVE SMOOTH",
"21 10 OFFCURVE",
"43 -25 OFFCURVE",
"86 -52 CURVE SMOOTH",
"133 -81 OFFCURVE",
"201 -95 OFFCURVE",
"289 -92 CURVE SMOOTH",
"402 -88 OFFCURVE",
"503 -60 OFFCURVE",
"593 -8 CURVE SMOOTH",
"635 16 OFFCURVE",
"669 47 OFFCURVE",
"694 84 CURVE SMOOTH",
"719 120 OFFCURVE",
"732 158 OFFCURVE",
"732 198 CURVE SMOOTH",
"732 287 OFFCURVE",
"672 366 OFFCURVE",
"553 434 CURVE SMOOTH",
"461 487 OFFCURVE",
"419 538 OFFCURVE",
"426 589 CURVE SMOOTH",
"430 621 OFFCURVE",
"450 649 OFFCURVE",
"486 673 CURVE SMOOTH",
"519 696 OFFCURVE",
"555 708 OFFCURVE",
"594 711 CURVE SMOOTH",
"646 714 OFFCURVE",
"688 704 OFFCURVE",
"719 680 CURVE SMOOTH",
"736 667 OFFCURVE",
"743 651 OFFCURVE",
"740 633 CURVE"
);
}
);
width = 758;
}
);
note = S;
unicode = 0053;
},
{
glyphname = T;
lastChange = "2021-05-11 19:30:45 +0000";
layers = (
{
hints = (
{
horizontal = 1;
place = "{-44, 34}";
type = Stem;
},
{
horizontal = 1;
place = "{16, 98}";
type = Stem;
},
{
horizontal = 1;
place = "{342, 18}";
type = Stem;
},
{
horizontal = 1;
place = "{598, 36}";
type = Stem;
},
{
horizontal = 1;
place = "{642, 56}";
type = Stem;
},
{
place = "{52, 48}";
type = Stem;
}
);
layerId = "3191725B-F824-48C7-90A0-BAE99CBF9356";
paths = (
{
closed = 1;
nodes = (
"938 640 OFFCURVE",
"940 644 OFFCURVE",
"940 648 CURVE SMOOTH",
"940 657 OFFCURVE",
"935 659 OFFCURVE",
"924 653 CURVE SMOOTH",
"895 636 OFFCURVE",
"855 630 OFFCURVE",
"806 633 CURVE SMOOTH",
"763 636 OFFCURVE",
"689 648 OFFCURVE",
"585 669 CURVE SMOOTH",
"490 688 OFFCURVE",
"417 697 OFFCURVE",
"365 697 CURVE SMOOTH",
"291 697 OFFCURVE",
"225 682 OFFCURVE",
"166 653 CURVE SMOOTH",
"129 634 OFFCURVE",
"101 609 OFFCURVE",
"81 578 CURVE SMOOTH",
"61 547 OFFCURVE",
"51 516 OFFCURVE",
"51 483 CURVE SMOOTH",
"51 445 OFFCURVE",
"64 413 OFFCURVE",
"89 387 CURVE SMOOTH",
"116 359 OFFCURVE",
"155 344 OFFCURVE",
"204 341 CURVE SMOOTH",
"275 337 OFFCURVE",
"341 355 OFFCURVE",
"400 398 CURVE SMOOTH",
"452 436 OFFCURVE",
"490 486 OFFCURVE",
"517 548 CURVE SMOOTH",
"520 554 OFFCURVE",
"517 557 OFFCURVE",
"510 557 CURVE SMOOTH",
"505 557 OFFCURVE",
"500 554 OFFCURVE",
"497 549 CURVE SMOOTH",
"466 495 OFFCURVE",
"426 452 OFFCURVE",
"379 418 CURVE SMOOTH",
"318 375 OFFCURVE",
"260 355 OFFCURVE",
"203 359 CURVE SMOOTH",
"134 364 OFFCURVE",
"99 393 OFFCURVE",
"99 446 CURVE SMOOTH",
"99 471 OFFCURVE",
"108 498 OFFCURVE",
"125 525 CURVE SMOOTH",
"142 552 OFFCURVE",
"165 575 OFFCURVE",
"192 593 CURVE SMOOTH",
"241 626 OFFCURVE",
"305 642 OFFCURVE",
"383 642 CURVE SMOOTH",
"422 642 OFFCURVE",
"472 638 OFFCURVE",
"532 629 CURVE SMOOTH",
"582 621 OFFCURVE",
"632 613 OFFCURVE",
"683 606 CURVE",
"618 587 OFFCURVE",
"557 526 OFFCURVE",
"502 422 CURVE SMOOTH",
"475 371 OFFCURVE",
"449 320 OFFCURVE",
"422 270 CURVE SMOOTH",
"393 216 OFFCURVE",
"363 168 OFFCURVE",
"333 124 CURVE SMOOTH",
"273 35 OFFCURVE",
"209 -10 OFFCURVE",
"140 -10 CURVE SMOOTH",
"110 -10 OFFCURVE",
"90 3 OFFCURVE",
"79 28 CURVE",
"88 20 OFFCURVE",
"98 16 OFFCURVE",
"110 16 CURVE SMOOTH",
"123 16 OFFCURVE",
"135 21 OFFCURVE",
"146 30 CURVE SMOOTH",
"156 39 OFFCURVE",
"162 51 OFFCURVE",
"163 64 CURVE SMOOTH",
"164 78 OFFCURVE",
"161 90 OFFCURVE",
"152 99 CURVE SMOOTH",
"144 108 OFFCURVE",
"133 113 OFFCURVE",
"120 113 CURVE SMOOTH",
"100 113 OFFCURVE",
"83 105 OFFCURVE",
"70 90 CURVE SMOOTH",
"57 75 OFFCURVE",
"52 58 OFFCURVE",
"53 38 CURVE SMOOTH",
"54 25 OFFCURVE",
"57 14 OFFCURVE",
"64 4 CURVE SMOOTH",
"85 -27 OFFCURVE",
"122 -43 OFFCURVE",
"175 -43 CURVE SMOOTH",
"226 -43 OFFCURVE",
"273 -28 OFFCURVE",
"315 2 CURVE SMOOTH",
"376 46 OFFCURVE",
"429 111 OFFCURVE",
"474 198 CURVE SMOOTH",
"485 219 OFFCURVE",
"518 297 OFFCURVE",
"574 434 CURVE SMOOTH",
"616 538 OFFCURVE",
"669 593 OFFCURVE",
"733 600 CURVE",
"744 599 OFFCURVE",
"755 598 OFFCURVE",
"765 597 CURVE SMOOTH",
"832 593 OFFCURVE",
"888 606 OFFCURVE",
"932 636 CURVE SMOOTH"
);
}
);
width = 630;
}
);
note = T;
unicode = 0054;
},
